<svg width="24" height="24" viewBox="0 0 24 24" fill="none" xmlns="http://www.w3.org/2000/svg">
<g clip-path="url(#clip0_731_1293)">
<path d="M12.025 6.59998C12.7844 6.59998 13.4 5.98437 13.4 5.22498C13.4 4.46558 12.7844 3.84998 12.025 3.84998C11.2656 3.84998 10.65 4.46558 10.65 5.22498C10.65 5.98437 11.2656 6.59998 12.025 6.59998Z" fill="black"/>
<path d="M12.025 13.35C12.7844 13.35 13.4 12.7344 13.4 11.975C13.4 11.2156 12.7844 10.6 12.025 10.6C11.2656 10.6 10.65 11.2156 10.65 11.975C10.65 12.7344 11.2656 13.35 12.025 13.35Z" fill="black"/>
<path d="M12.025 20.1C12.7844 20.1 13.4 19.4844 13.4 18.725C13.4 17.9656 12.7844 17.35 12.025 17.35C11.2656 17.35 10.65 17.9656 10.65 18.725C10.65 19.4844 11.2656 20.1 12.025 20.1Z" fill="black"/>
</g>
<defs>
<clipPath id="clip0_731_1293">
<rect width="24" height="24" fill="white"/>
</clipPath>
</defs>
</svg>
