<svg width="37" height="36" viewBox="0 0 37 36" fill="none" xmlns="http://www.w3.org/2000/svg">
<path d="M33.6563 13.8501L33.6563 13.8501L33.6581 13.8556C33.7747 14.2075 33.7826 14.5864 33.6808 14.9429C33.5791 15.2993 33.3724 15.6168 33.0878 15.8541C33.0877 15.8542 33.0876 15.8542 33.0875 15.8543L26.7267 21.1484L26.486 21.3487L26.5611 21.6527L28.5804 29.82L28.5804 29.82L28.5819 29.8257C28.6752 30.1846 28.6579 30.5632 28.5324 30.912C28.407 31.2609 28.1791 31.5638 27.8786 31.7809L27.8768 31.7822C27.589 31.9922 27.2445 32.1105 26.8884 32.1215C26.5323 32.1325 26.1812 32.0357 25.8809 31.8439L25.8793 31.8429L18.7865 27.3495L18.7744 27.3418L18.7618 27.3348C18.7054 27.3035 18.5942 27.2537 18.4487 27.2675C18.3288 27.2789 18.2423 27.3294 18.2023 27.3569L11.6222 31.5254L11.6214 31.5259C11.2813 31.7423 10.884 31.8513 10.4812 31.8387C10.0783 31.8262 9.68858 31.6927 9.36266 31.4555L9.3615 31.4547C9.02143 31.2088 8.76354 30.8659 8.62157 30.471C8.4796 30.0761 8.46017 29.6475 8.56583 29.2414L8.56652 29.2387L10.4672 21.7625L10.5442 21.4593L10.3053 21.2574L3.91569 15.8565L3.9157 15.8565L3.913 15.8543C3.6282 15.617 3.42145 15.2994 3.31969 14.9429C3.21792 14.5864 3.22585 14.2075 3.34245 13.8556L3.34248 13.8556L3.34424 13.8501C3.45419 13.5049 3.66564 13.2009 3.95099 12.9777C4.2363 12.7545 4.58223 12.6225 4.94369 12.5988C4.94375 12.5988 4.94381 12.5988 4.94387 12.5988L13.2493 12.0594L13.5638 12.0389L13.6811 11.7464L16.8253 3.89998L16.8254 3.89999L16.8273 3.89501C16.9581 3.55813 17.1876 3.26858 17.4856 3.06421C17.7836 2.85991 18.1362 2.75024 18.4974 2.74951H18.4991C18.4991 2.74951 18.4991 2.74951 18.4992 2.74951C18.8611 2.74959 19.2146 2.859 19.5134 3.06342L19.7947 2.65222L19.5134 3.06342C19.8121 3.26785 20.0421 3.55775 20.1733 3.89515L20.1746 3.89853L23.2728 11.6999L23.3888 11.9922L23.7025 12.0142L32.0544 12.5986L32.0567 12.5988C32.4182 12.6224 32.7642 12.7544 33.0495 12.9777C33.3349 13.2009 33.5463 13.5049 33.6563 13.8501ZM20.6393 3.71399C20.4716 3.28269 20.1776 2.9121 19.7957 2.65078L20.6393 3.71399Z" stroke="#71717A"/>
</svg>
