<svg width="17" height="16" viewBox="0 0 17 16" fill="none" xmlns="http://www.w3.org/2000/svg">
<path d="M16.5 8C16.5032 9.24222 16.213 10.4676 15.6529 11.5765C14.9889 12.9052 13.968 14.0227 12.7046 14.804C11.4413 15.5853 9.9854 15.9994 8.5 16C7.31462 16.0031 6.14453 15.7389 5.07647 15.2281C4.9768 15.1804 4.86469 15.1642 4.75618 15.185L1.2237 15.8614C0.876718 15.9278 0.57214 15.6233 0.638584 15.2763L1.31503 11.7438C1.33581 11.6353 1.31957 11.5232 1.2719 11.4235C0.761074 10.3555 0.496936 9.18538 0.500027 8C0.500602 6.5146 0.914719 5.05869 1.69599 3.79536C2.47727 2.53202 3.59484 1.51114 4.92354 0.847083C6.03235 0.28702 7.25778 -0.003212 8.5 2.68122e-05H8.97059C10.9323 0.108254 12.7852 0.93627 14.1745 2.32553C15.5637 3.7148 16.3917 5.56768 16.5 7.52941V8Z" fill="url(#paint0_linear_8_3504)"/>
<path d="M3.85 11.5C3.79667 11.5 3.74667 11.48 3.7 11.44C3.66 11.4 3.64 11.35 3.64 11.29C3.64 11.2633 3.64667 11.2333 3.66 11.2L6.07 4.75C6.09 4.68333 6.12667 4.62667 6.18 4.58C6.24 4.52667 6.32 4.5 6.42 4.5H7.51C7.61 4.5 7.68667 4.52667 7.74 4.58C7.79333 4.62667 7.83333 4.68333 7.86 4.75L10.27 11.2C10.2767 11.2333 10.28 11.2633 10.28 11.29C10.28 11.35 10.26 11.4 10.22 11.44C10.18 11.48 10.1333 11.5 10.08 11.5H9.21C9.11667 11.5 9.04667 11.48 9 11.44C8.96 11.3933 8.93333 11.35 8.92 11.31L8.45 10.09H5.48L5.01 11.31C4.99667 11.35 4.96667 11.3933 4.92 11.44C4.88 11.48 4.81333 11.5 4.72 11.5H3.85ZM5.83 8.94H8.1L6.96 5.85L5.83 8.94ZM11.4536 11.5C11.3869 11.5 11.3303 11.4767 11.2836 11.43C11.2369 11.3833 11.2136 11.3267 11.2136 11.26V4.74C11.2136 4.67333 11.2369 4.61667 11.2836 4.57C11.3303 4.52333 11.3869 4.5 11.4536 4.5H12.3936C12.4669 4.5 12.5236 4.52333 12.5636 4.57C12.6103 4.61667 12.6336 4.67333 12.6336 4.74V11.26C12.6336 11.3267 12.6103 11.3833 12.5636 11.43C12.5236 11.4767 12.4669 11.5 12.3936 11.5H11.4536Z" fill="white"/>
<defs>
<linearGradient id="paint0_linear_8_3504" x1="0.5" y1="1.25823" x2="16.5" y2="14.7418" gradientUnits="userSpaceOnUse">
<stop stop-color="#12C2E9"/>
<stop offset="0.5" stop-color="#C471ED"/>
<stop offset="1" stop-color="#F64F59"/>
</linearGradient>
</defs>
</svg>
