<svg width="28" height="28" viewBox="0 0 28 28" fill="none" xmlns="http://www.w3.org/2000/svg">
<rect width="28" height="28" rx="14" fill="black"/>
<mask id="mask0_49_789" style="mask-type:luminance" maskUnits="userSpaceOnUse" x="10" y="10" width="1" height="4">
<path fill-rule="evenodd" clip-rule="evenodd" d="M10.0685 10.4121V13.6163V10.6035C10.0685 10.5394 10.0701 10.4755 10.0733 10.4121V10.4121H10.0685Z" fill="white"/>
</mask>
<g mask="url(#mask0_49_789)">
<path fill-rule="evenodd" clip-rule="evenodd" d="M10.0685 10.4121V13.6163V10.6035C10.0685 10.5394 10.0701 10.4755 10.0733 10.4121V10.4121H10.0685Z" fill="url(#paint0_linear_49_789)"/>
</g>
<path fill-rule="evenodd" clip-rule="evenodd" d="M13.7852 10.4121H10.0796C10.0765 10.4755 10.0749 10.5393 10.0749 10.6037V13.6163H13.7852V10.4121Z" fill="#FEFEFE"/>
<mask id="mask1_49_789" style="mask-type:luminance" maskUnits="userSpaceOnUse" x="10" y="10" width="4" height="4">
<path fill-rule="evenodd" clip-rule="evenodd" d="M10.0732 10.4121V13.4249C10.0732 13.4891 10.0748 13.5527 10.0781 13.6163V13.6163H13.7835V10.4121H10.0732Z" fill="white"/>
</mask>
<g mask="url(#mask1_49_789)">
<path fill-rule="evenodd" clip-rule="evenodd" d="M10.0732 10.4121V13.4249C10.0732 13.4891 10.0748 13.5527 10.0781 13.6163V13.6163H13.7835V10.4121H10.0732Z" fill="url(#paint1_linear_49_789)"/>
</g>
<path fill-rule="evenodd" clip-rule="evenodd" d="M5.72843 15.9644H7.4248C7.45243 15.9644 7.47916 15.9606 7.50534 15.9549V14.8327C7.47916 14.827 7.45243 14.8233 7.4248 14.8233H5.72843C5.51062 14.8233 5.33334 15.0024 5.33334 15.2227V15.5648C5.33334 15.7851 5.51062 15.9644 5.72843 15.9644" fill="#FEFEFE"/>
<path fill-rule="evenodd" clip-rule="evenodd" d="M11.3622 20.4567V22.1564C11.3622 22.3767 11.5392 22.5558 11.7571 22.5558H12.1029C12.3207 22.5558 12.498 22.3767 12.498 22.1564V20.4567C12.498 20.4249 12.4932 20.3944 12.4862 20.3648H11.374C11.3669 20.3944 11.3622 20.4249 11.3622 20.4567" fill="#FEFEFE"/>
<path fill-rule="evenodd" clip-rule="evenodd" d="M12.1489 20.4415H11.7112C10.8074 20.4415 10.0749 19.7003 10.0749 18.7863V17.1729H13.7852V18.7863C13.7852 19.7003 13.0527 20.4415 12.1489 20.4415" fill="#FEFEFE"/>
<mask id="mask2_49_789" style="mask-type:luminance" maskUnits="userSpaceOnUse" x="10" y="17" width="4" height="2">
<path fill-rule="evenodd" clip-rule="evenodd" d="M10.0748 17.1727V18.5245C10.0748 18.5613 10.077 18.5977 10.081 18.6333V18.6333H13.7759C13.7788 18.6019 13.7853 18.5712 13.7853 18.539V18.539V17.1727H10.0748Z" fill="white"/>
</mask>
<g mask="url(#mask2_49_789)">
<path fill-rule="evenodd" clip-rule="evenodd" d="M10.0748 17.1727V18.5245C10.0748 18.5613 10.077 18.5977 10.081 18.6333V18.6333H13.7759C13.7788 18.6019 13.7853 18.5712 13.7853 18.539V18.539V17.1727H10.0748Z" fill="url(#paint2_linear_49_789)"/>
</g>
<mask id="mask3_49_789" style="mask-type:luminance" maskUnits="userSpaceOnUse" x="7" y="6" width="15" height="12">
<path fill-rule="evenodd" clip-rule="evenodd" d="M7.43713 6.85054H21.1682V17.1727H7.43713V6.85054Z" fill="white"/>
</mask>
<g mask="url(#mask3_49_789)">
<path fill-rule="evenodd" clip-rule="evenodd" d="M21.1682 10.4121C21.1682 8.44519 19.5917 6.85052 17.6471 6.85052H17.5335H13.7853H13.5959L10.0748 10.4121H10.0795H13.7853H14.2648H14.7222H17.0539V10.4123C17.3175 10.4123 17.5333 10.6304 17.5333 10.8972H17.5335V13.124H17.5333C17.5333 13.3907 17.3175 13.609 17.0539 13.609V13.6163H14.2648H13.7853H10.0748H9.07368C8.16986 13.6163 7.43713 14.3577 7.43713 15.2717V15.5163C7.43713 16.4303 8.16968 17.1714 9.0735 17.1714H10.0748V17.1727H13.7853V17.1714H17.5335C19.541 17.1714 21.1682 15.5255 21.1682 13.4949V10.527C21.1682 10.4886 21.1664 10.4503 21.1651 10.4121H21.1682Z" fill="#FEFEFE"/>
</g>
<defs>
<linearGradient id="paint0_linear_49_789" x1="9.98283" y1="10.4121" x2="9.98283" y2="13.6163" gradientUnits="userSpaceOnUse">
<stop stop-color="white"/>
<stop offset="1" stop-color="#E8E8E8"/>
</linearGradient>
<linearGradient id="paint1_linear_49_789" x1="13.7835" y1="13.6163" x2="13.7835" y2="10.4121" gradientUnits="userSpaceOnUse">
<stop stop-color="white"/>
<stop offset="1" stop-color="#E8E8E8"/>
</linearGradient>
<linearGradient id="paint2_linear_49_789" x1="13.7852" y1="18.6333" x2="13.7852" y2="17.1728" gradientUnits="userSpaceOnUse">
<stop stop-color="white"/>
<stop offset="1" stop-color="#E8E8E8"/>
</linearGradient>
</defs>
</svg>