<svg width="95" height="32" viewBox="0 0 95 32" fill="none" xmlns="http://www.w3.org/2000/svg"> <path fill-rule="evenodd" clip-rule="evenodd" d="M28.2177 14.7478C27.3711 15.1874 26.2674 15.4179 24.9057 15.4393C24.9718 14.9783 25.0634 14.4945 25.1856 13.9894C25.3066 13.4836 25.4823 13.0226 25.7128 12.605C25.944 12.1881 26.2286 11.8413 26.5687 11.5667C26.9095 11.2921 27.3217 11.1551 27.8054 11.1551C28.3767 11.1551 28.799 11.3309 29.0743 11.6816C29.3495 12.0338 29.4865 12.4293 29.4865 12.8683C29.4865 13.6814 29.0629 14.3081 28.2177 14.7478ZM33.7391 8.2374C33.2547 7.78774 32.6173 7.43028 31.8275 7.16636C31.0358 6.90244 30.069 6.77148 28.9271 6.77148C27.4979 6.77148 26.2672 6.96859 25.2342 7.36413C24.2013 7.75968 23.3227 8.27615 22.5984 8.91357C21.8721 9.55098 21.2835 10.2706 20.8345 11.0724C20.3828 11.8748 20.0314 12.6826 19.7795 13.4951C19.5262 14.3082 19.3552 15.0993 19.2683 15.869C19.1815 16.6374 19.1367 17.2955 19.1367 17.8454C19.1367 19.3394 19.3786 20.5814 19.8617 21.5696C20.3454 22.5585 20.9661 23.3502 21.7245 23.9422C22.4828 24.5355 23.3394 24.9531 24.2955 25.1963C25.2509 25.4362 26.2124 25.5585 27.1792 25.5585C27.9035 25.5585 28.6511 25.4917 29.4215 25.3607C30.1892 25.2284 30.8868 25.02 31.5142 24.7333C32.1396 24.4487 32.6514 24.0745 33.0469 23.6135C33.4418 23.1525 33.6402 22.6026 33.6402 21.9652C33.6402 21.4821 33.5293 21.0866 33.3101 20.7779C33.0903 20.4705 32.8371 20.2293 32.5518 20.0536C32.2672 19.8779 31.9859 19.7623 31.7113 19.7082C31.4367 19.6527 31.2442 19.6247 31.1347 19.6247C30.8921 19.6247 30.7004 19.7182 30.558 19.9059C30.4144 20.0924 30.2447 20.3008 30.0462 20.5313C29.8491 20.7625 29.5912 20.9703 29.2719 21.1574C28.9538 21.3445 28.5095 21.4387 27.9376 21.4387C27.3663 21.4387 26.8826 21.3391 26.4864 21.1414C26.0908 20.9436 25.7728 20.691 25.5309 20.3843C25.2897 20.0757 25.1073 19.7182 24.9877 19.312C24.8668 18.9051 24.8073 18.4935 24.8073 18.0759C25.1574 18.0759 25.6565 18.0598 26.3059 18.0264C26.9534 17.9924 27.6623 17.9055 28.432 17.7632C29.2004 17.6202 29.9814 17.4164 30.7712 17.1532C31.5629 16.8893 32.2819 16.5211 32.9306 16.0494C33.5781 15.5777 34.1059 14.989 34.5121 14.2861C34.919 13.5826 35.1228 12.726 35.1228 11.7151C35.1228 11.0343 35.0119 10.3969 34.7941 9.80354C34.5729 9.20956 34.2222 8.6884 33.7391 8.2374Z" fill="white"></path> <path fill-rule="evenodd" clip-rule="evenodd" d="M11.67 19.7957C11.0326 20.7191 10.2415 21.1801 9.29676 21.1801C8.76959 21.1801 8.3353 21.0478 7.99454 20.7846C7.65379 20.5213 7.38452 20.1699 7.18675 19.7296C6.98831 19.2906 6.85134 18.7962 6.77584 18.2463C6.699 17.6977 6.65958 17.1372 6.65958 16.5672C6.65958 14.8969 6.9235 13.5773 7.45201 12.6111C7.97784 11.645 8.80233 11.1606 9.92349 11.1606C10.4714 11.1606 10.923 11.2815 11.2745 11.5234C11.6253 11.7653 11.9005 12.0833 12.0983 12.4788C12.2961 12.8751 12.4331 13.3307 12.5106 13.8472C12.5874 14.363 12.6261 14.8969 12.6261 15.4448C12.6261 17.4231 12.3074 18.873 11.67 19.7957ZM12.3288 6.77686C11.1422 6.77686 10.148 6.99668 9.34618 7.43632C8.5444 7.87596 7.89029 8.6009 7.3845 9.61114C7.3845 8.9303 7.11657 8.343 6.57738 7.84857C6.03818 7.35347 5.1756 7.10692 3.99031 7.10692H2.70412C2.41882 7.10692 2.24377 7.13899 2.17762 7.20514C2.08876 7.29333 2.0333 7.5793 2.01192 8.06237C1.96782 8.47997 1.90836 9.23831 1.83085 10.3367C1.75334 11.4359 1.66047 12.6933 1.55023 14.1105C1.43998 15.5283 1.3264 17.0176 1.20479 18.5764C1.08319 20.1371 0.973616 21.5924 0.875398 22.9434C0.775844 24.2957 0.693661 25.4536 0.628851 26.4204C0.561368 27.3879 0.529297 27.9819 0.529297 28.201C0.529297 28.7062 0.577404 29.1505 0.676958 29.536C0.775844 29.9202 0.952235 30.2456 1.20479 30.5088C1.45669 30.7721 1.79744 30.9745 2.22639 31.1175C2.65601 31.2598 3.21058 31.3326 3.89142 31.3326H5.07738C5.36402 31.3326 5.55043 31.2872 5.63863 31.1997C5.72615 31.1122 5.78161 30.9364 5.80299 30.6732C5.89052 29.6623 5.956 28.8705 6.00076 28.3006C6.04486 27.7287 6.08295 27.2777 6.11635 26.9489C6.14843 26.6189 6.17047 26.3549 6.18183 26.1572C6.19252 25.9601 6.20923 25.7349 6.23194 25.4817C6.25266 25.2298 6.28606 24.8944 6.32949 24.4768C6.37493 24.0598 6.42838 23.4545 6.49519 22.6641C6.86802 23.5868 7.3845 24.3011 8.04463 24.8062C8.70409 25.3106 9.61478 25.5639 10.78 25.5639C11.8785 25.5639 12.9014 25.322 13.8448 24.8396C14.7896 24.3558 15.6141 23.6476 16.317 22.7129C17.0212 21.7795 17.5691 20.6423 17.9653 19.3013C18.3615 17.961 18.5586 16.4343 18.5586 14.7205C18.5586 11.9744 18.0368 9.96325 16.9925 8.68843C15.9495 7.41494 14.394 6.77686 12.3288 6.77686Z" fill="white"></path> <path fill-rule="evenodd" clip-rule="evenodd" d="M48.9506 8.02348C48.5992 7.71613 48.2083 7.48495 47.7807 7.33128C47.3511 7.1776 46.9288 7.1001 46.5112 7.1001C46.1584 7.1001 45.7749 7.14954 45.3573 7.24909C44.9397 7.34731 44.5328 7.51301 44.1386 7.74352C43.7424 7.97404 43.3635 8.27069 43.0014 8.6335C42.6379 8.99563 42.3259 9.42993 42.0607 9.93505C42.0172 9.60565 41.935 9.28762 41.8141 8.9796C41.6932 8.67225 41.5014 8.40232 41.2375 8.17181C40.9742 7.9413 40.6322 7.75889 40.2146 7.62793C39.797 7.49631 39.2805 7.43016 38.6665 7.43016H37.3809C36.9634 7.43016 36.7315 7.74887 36.6881 8.38562C36.5124 10.8036 36.3647 12.8308 36.2431 14.4678C36.1222 16.1054 36.0179 17.4551 35.9304 18.5214C35.8415 19.5878 35.7827 20.4216 35.7487 21.0263C35.7159 21.631 35.6992 22.0974 35.6992 22.4268C35.6992 22.9325 35.7487 23.3769 35.8482 23.7617C35.9471 24.1466 36.1222 24.4706 36.3754 24.7339C36.6279 24.9985 36.968 25.2016 37.397 25.3439C37.8253 25.4869 38.3805 25.5584 39.062 25.5584H40.2486C40.4244 25.5584 40.5887 25.5036 40.7431 25.3927C40.8954 25.2838 40.9742 25.1194 40.9742 24.8982C40.9742 24.7018 40.995 24.2842 41.0391 23.6475C41.0838 23.01 41.1386 22.2791 41.2034 21.4546C41.2696 20.6308 41.3411 19.7735 41.4192 18.8836C41.4947 17.9929 41.5562 17.1978 41.5996 16.4943C41.7085 14.8907 41.9671 13.688 42.374 12.8849C42.7803 12.0831 43.2914 11.6823 43.9068 11.6823C44.303 11.6823 44.5662 11.8359 44.6985 12.1439C44.8295 12.452 44.8963 12.8475 44.8963 13.3306C44.8963 13.5945 44.8849 13.8471 44.8629 14.0889C44.8408 14.3301 44.8295 14.594 44.8295 14.8793C44.8295 14.9675 44.8849 15.039 44.9952 15.0938C45.1041 15.1486 45.2364 15.1927 45.3894 15.2255C45.5437 15.2582 45.7034 15.2802 45.8691 15.2909C46.0335 15.303 46.1805 15.3076 46.3134 15.3076C46.8834 15.3076 47.4058 15.1927 47.8789 14.9615C48.3513 14.731 48.7528 14.413 49.0816 14.0054C49.4116 13.5998 49.6635 13.1321 49.8399 12.605C50.0156 12.0778 50.1045 11.5172 50.1045 10.9239C50.1045 10.2644 49.9989 9.69385 49.7905 9.20944C49.5813 8.72704 49.3007 8.33216 48.9506 8.02348Z" fill="white"></path> <path fill-rule="evenodd" clip-rule="evenodd" d="M66.6671 3.21049C66.4479 2.72808 66.0965 2.31049 65.6141 1.95838C65.1297 1.60693 64.4976 1.33165 63.7179 1.13455C62.9375 0.936108 61.9994 0.837891 60.9003 0.837891C59.7785 0.837891 58.7629 0.964839 57.8509 1.2174C56.9382 1.46996 56.1538 1.88822 55.4936 2.47018C54.8349 3.05213 54.3023 3.82585 53.8968 4.79333C53.4885 5.76014 53.2193 6.95746 53.0883 8.38529L52.956 9.70489C52.495 9.72627 52.1208 9.80845 51.8355 9.9521C51.5489 10.0944 51.3364 10.2701 51.1934 10.4793C51.0491 10.6877 50.9502 10.9303 50.8961 11.2042C50.8413 11.4788 50.8026 11.7474 50.7812 12.012C50.7591 12.3414 50.7358 12.6761 50.7137 13.0176C50.6923 13.3583 50.6816 13.6162 50.6816 13.7913C50.6816 14.0338 50.8026 14.1541 51.0438 14.1541H52.5939C52.5277 15.0554 52.4609 15.9561 52.3961 16.8567C52.3306 17.7574 52.2692 18.5759 52.2144 19.3122C52.1596 20.0485 52.1155 20.6792 52.0834 21.2077C52.05 21.7342 52.0333 22.0643 52.0333 22.1966C52.0333 23.3171 52.2692 24.1569 52.7415 24.7168C53.2139 25.2781 54.0438 25.558 55.2297 25.558H56.4164C56.7023 25.558 56.8894 25.5133 56.9769 25.4257C57.0651 25.3389 57.1199 25.1625 57.1426 24.8979C57.1426 24.8779 57.158 24.6801 57.1914 24.3046C57.2248 23.9324 57.2622 23.4594 57.307 22.8875C57.3511 22.3175 57.3992 21.6581 57.4547 20.9104C57.5101 20.1641 57.5702 19.3991 57.6371 18.6193C57.7025 17.8403 57.7687 17.0652 57.8348 16.2968C57.9003 15.5285 57.9544 14.8129 57.9992 14.1541H60.0103C60.9999 14.1541 61.652 13.9503 61.9707 13.5447C62.2887 13.1372 62.4704 12.6053 62.5152 11.9452L62.6462 10.1659C62.6462 9.85856 62.4704 9.70489 62.119 9.70489H58.3286C58.3947 9.13362 58.4769 8.57238 58.5765 8.02316C58.6754 7.47461 58.823 6.98486 59.0215 6.55657C59.2186 6.12762 59.4705 5.78286 59.7785 5.51827C60.0872 5.25502 60.4593 5.12273 60.9003 5.12273C61.4929 5.12273 61.8564 5.33186 61.9874 5.74878C62.119 6.16704 62.1851 6.73764 62.1851 7.46325C62.1851 7.66102 62.246 7.78797 62.3662 7.84276C62.4872 7.89688 62.713 7.92494 63.0417 7.92494C64.2511 7.92494 65.2119 7.68307 65.9261 7.19933C66.6404 6.71626 66.9972 5.90245 66.9972 4.75992C66.9972 4.21137 66.8869 3.69489 66.6671 3.21049Z" fill="white"></path> <path fill-rule="evenodd" clip-rule="evenodd" d="M72.2053 8.22193C71.9534 7.95734 71.6126 7.75957 71.1843 7.62795C70.7567 7.49632 70.2002 7.43018 69.5206 7.43018H68.2345C67.9485 7.43018 67.7734 7.46358 67.7066 7.52906C67.6198 7.61726 67.5636 7.90256 67.5423 8.38563C67.3665 10.8037 67.2182 12.8308 67.0973 14.4678C66.9757 16.1054 66.8721 17.4551 66.7846 18.5214C66.6957 19.5878 66.6349 20.4217 66.6028 21.0263C66.5688 21.631 66.5527 22.098 66.5527 22.4268C66.5527 22.9332 66.6028 23.3775 66.7024 23.7617C66.8006 24.1466 66.9757 24.4706 67.2282 24.7339C67.4815 24.9985 67.8215 25.2016 68.2512 25.3439C68.6795 25.4869 69.234 25.5584 69.9149 25.5584H71.1022C71.3868 25.5584 71.5752 25.5136 71.6627 25.4261C71.7496 25.3392 71.8044 25.1628 71.8271 24.8982C72.0242 22.5256 72.1899 20.4985 72.3215 18.8174C72.4532 17.1364 72.5574 15.7306 72.6349 14.5994C72.7117 13.4682 72.7719 12.5722 72.816 11.9128C72.8594 11.254 72.8814 10.7596 72.8814 10.4302C72.8814 9.96847 72.832 9.55088 72.7338 9.17738C72.6349 8.80389 72.4585 8.48518 72.2053 8.22193Z" fill="white"></path> <path fill-rule="evenodd" clip-rule="evenodd" d="M73.1613 1.28333C72.7323 0.89915 72.0448 0.706055 71.1007 0.706055C70.0243 0.706055 69.1671 0.959283 68.5297 1.4644C67.8923 1.97019 67.5742 2.66172 67.5742 3.54101C67.5742 4.94746 68.4649 5.64968 70.2441 5.64968C71.4081 5.64968 72.2927 5.38176 72.8967 4.84256C73.502 4.30403 73.804 3.62854 73.804 2.8154C73.804 2.17932 73.5896 1.66752 73.1613 1.28333Z" fill="white"></path> <path fill-rule="evenodd" clip-rule="evenodd" d="M94.1207 7.10011H90.6597C90.7252 6.24355 90.7592 5.59544 90.7592 5.15647C90.7592 4.36472 90.5815 3.68387 90.2307 3.11194C89.878 2.54134 89.2412 2.25537 88.3185 2.25537H87.3637C87.2087 2.25537 87.0383 2.43109 86.8519 2.78254C86.6642 3.13399 86.4731 3.56895 86.2753 4.08409C86.0769 4.60124 85.8798 5.13442 85.6813 5.68297C85.4835 6.23286 85.3078 6.70457 85.1548 7.10011C85.0853 7.10011 85.0212 7.10546 84.955 7.10746C84.9357 7.1068 84.9203 7.10011 84.9003 7.10011H81.4399C81.5047 6.24355 81.5381 5.59544 81.5381 5.15647C81.5381 4.36472 81.3617 3.68387 81.0103 3.11194C80.6588 2.54134 80.0221 2.25537 79.0994 2.25537H78.1426C77.9883 2.25537 77.8192 2.43109 77.6315 2.78254C77.4457 3.13399 77.2526 3.56895 77.0549 4.08409C76.8584 4.60124 76.6586 5.13442 76.4622 5.68297C76.2644 6.23286 76.0874 6.70457 75.9344 7.10011C75.4279 7.10011 75.0223 7.16693 74.7157 7.29855C74.407 7.43018 74.1705 7.6059 74.0061 7.82572C73.8411 8.04554 73.7315 8.29276 73.6754 8.56737C73.6219 8.84198 73.5838 9.1226 73.5618 9.40723L73.4629 11.089C73.4629 11.2426 73.4796 11.3582 73.511 11.4344C73.5451 11.5126 73.6493 11.55 73.825 11.55H75.5722C75.462 13.1108 75.3578 14.4177 75.2589 15.4727C75.16 16.5277 75.0778 17.4163 75.0117 18.1419C74.9455 18.8662 74.8967 19.4548 74.8633 19.9058C74.8299 20.3555 74.8139 20.7464 74.8139 21.0751C74.8139 22.5925 75.1934 23.7176 75.9517 24.4539C76.7094 25.1896 77.8794 25.5584 79.4609 25.5584C81.0658 25.5584 82.1969 25.2069 82.8564 24.504C83.5152 23.7998 83.8452 22.8437 83.8452 21.635C83.8452 20.9996 83.7798 20.592 83.6481 20.4163C83.5152 20.2399 83.3729 20.1524 83.2192 20.1524C83.0649 20.1524 82.9272 20.1965 82.8063 20.2847C82.6853 20.3722 82.5484 20.4711 82.3954 20.5807C82.2731 20.6695 82.1421 20.7464 82.0058 20.8192L81.9263 22.1642C81.921 22.2571 81.8415 22.3286 81.7479 22.3225C81.6557 22.3172 81.5836 22.2377 81.5896 22.1441L81.6597 20.9629C81.5408 20.9929 81.4139 21.009 81.2735 21.009C81.1573 21.009 81.0564 20.9916 80.9642 20.9642L80.3281 22.0359C80.2767 22.1241 80.1678 22.1582 80.0882 22.1107C80.0074 22.0633 79.984 21.9524 80.0381 21.8642L80.6742 20.7925C80.6548 20.7704 80.6315 20.7531 80.6148 20.729C80.5359 20.6174 80.4811 20.435 80.449 20.1831L79.3954 20.8379C79.3172 20.886 79.2116 20.862 79.1629 20.7825C79.1141 20.7036 79.1381 20.598 79.2177 20.5499L80.421 19.805C80.4183 19.7361 80.417 19.666 80.417 19.5925C80.417 19.2838 80.4337 18.8448 80.4664 18.2736C80.5005 17.7023 80.5493 17.0535 80.6148 16.3292C80.6816 15.6043 80.7524 14.8353 80.8292 14.0221C80.9067 13.2097 80.9782 12.3858 81.0437 11.55H82.7909C82.8564 11.55 82.9085 11.5413 82.9713 11.54C82.998 11.542 83.0141 11.55 83.0455 11.55H84.7913C84.6818 13.1108 84.5782 14.4177 84.4793 15.4727C84.3804 16.5277 84.2983 17.4163 84.2321 18.1419C84.166 18.8662 84.1165 19.4548 84.0838 19.9058C84.0504 20.3555 84.0343 20.7464 84.0343 21.0751C84.0343 22.5925 84.4138 23.7176 85.1702 24.4539C85.9292 25.1896 87.0985 25.5584 88.6813 25.5584C90.2849 25.5584 91.4167 25.2069 92.0768 24.504C92.7363 23.7998 93.065 22.8437 93.065 21.635C93.065 20.9996 92.9989 20.592 92.8666 20.4163C92.7363 20.2399 92.592 20.1524 92.4383 20.1524C92.2846 20.1524 92.1477 20.1965 92.0261 20.2847C91.9065 20.3722 91.7682 20.4711 91.6151 20.5807C91.4922 20.6695 91.3606 20.7464 91.2263 20.8192L91.1468 22.1642C91.1414 22.2571 91.0606 22.3286 90.9677 22.3225C90.8742 22.3172 90.8033 22.2377 90.81 22.1441L90.8788 20.9629C90.7613 20.9929 90.6336 21.009 90.494 21.009C90.3764 21.009 90.2755 20.9916 90.184 20.9642L89.5479 22.0359C89.4958 22.1241 89.3875 22.1582 89.308 22.1107C89.2272 22.0633 89.2045 21.9524 89.2586 21.8642L89.894 20.7925C89.8746 20.7704 89.8512 20.7531 89.8352 20.729C89.7557 20.6174 89.7016 20.435 89.6695 20.1831L88.6158 20.8379C88.5363 20.886 88.4321 20.862 88.3833 20.7825C88.3345 20.7036 88.3593 20.598 88.4374 20.5499L89.6408 19.805C89.6381 19.7361 89.6368 19.666 89.6368 19.5925C89.6368 19.2838 89.6535 18.8448 89.6869 18.2736C89.7189 17.7023 89.7691 17.0535 89.8352 16.3292C89.902 15.6043 89.9722 14.8353 90.049 14.0221C90.1252 13.2097 90.1973 12.3858 90.2648 11.55H92.01C92.9989 11.55 93.653 11.3469 93.9717 10.9406C94.2904 10.5351 94.4715 10.0019 94.5162 9.34108L94.6472 7.56181C94.6472 7.25446 94.4715 7.10011 94.1207 7.10011Z" fill="white"></path> </svg>