<svg width="30" height="30" viewBox="0 0 30 30" fill="none" xmlns="http://www.w3.org/2000/svg">
<path d="M29 14.2222C29.0053 16.2754 28.5256 18.3007 27.6 20.1333C26.5024 22.3294 24.8151 24.1765 22.7271 25.4678C20.6391 26.7591 18.2328 27.4435 15.7778 27.4444C13.7246 27.4498 11.6993 26.9701 9.86665 26.0444L1 29L3.95555 20.1333C3.02989 18.3007 2.5502 16.2754 2.55555 14.2222C2.5565 11.7672 3.24095 9.36091 4.53222 7.27289C5.8235 5.18487 7.67061 3.49759 9.86665 2.40004C11.6993 1.47438 13.7246 0.994691 15.7778 1.00004H16.5555C19.7978 1.17892 22.8603 2.54745 25.1564 4.8436C27.4526 7.13974 28.8211 10.2022 29 13.4445V14.2222Z" stroke="white" stroke-width="2" stroke-linecap="round" stroke-linejoin="round"/>
<path d="M16.1667 20.4445C16.811 20.4445 17.3333 19.9221 17.3333 19.2778C17.3333 18.6335 16.811 18.1111 16.1667 18.1111C15.5223 18.1111 15 18.6335 15 19.2778C15 19.9221 15.5223 20.4445 16.1667 20.4445Z" fill="white"/>
<path d="M16.1651 15V14.2222C16.7035 14.2222 17.2298 14.0626 17.6775 13.7634C18.1251 13.4643 18.4741 13.0392 18.6801 12.5417C18.8861 12.0443 18.94 11.497 18.835 10.9689C18.73 10.4409 18.4707 9.9558 18.09 9.57509C17.7093 9.19438 17.2242 8.93512 16.6962 8.83008C16.1681 8.72504 15.6208 8.77895 15.1233 8.98499C14.6259 9.19103 14.2008 9.53994 13.9016 9.98761C13.6025 10.4353 13.4429 10.9616 13.4429 11.5" stroke="white" stroke-width="2" stroke-linecap="round" stroke-linejoin="round"/>
</svg>
