<svg width="343" height="148" viewBox="0 0 343 148" fill="none" xmlns="http://www.w3.org/2000/svg">
<mask id="path-1-inside-1_73_5835" fill="white">
<path d="M0 0H343V148H0V0Z"/>
</mask>
<path d="M0 0H343V148H0V0Z" fill="white"/>
<path d="M0 1H343V-1H0V1Z" fill="#E4E4E7" mask="url(#path-1-inside-1_73_5835)"/>
<path d="M28.2188 23.2656V37.4062H26.4688V23.2656H28.2188ZM17.2188 34.0781V24.4219H18.9531V27.9531H22.375V24.4219H24.0938V34.0781H17.2188ZM18.9531 32.6562H22.375V29.3125H18.9531V32.6562ZM43.1239 29.9531V31.3594H30.2489V29.9531H43.1239ZM30.9364 27.6719C33.8426 27.3125 35.7879 25.6875 35.7957 24.0469V23.5H37.577V24.0469C37.577 25.6484 39.5067 27.3125 42.4364 27.6719L41.7645 29.0625C39.4364 28.7031 37.5848 27.6094 36.6864 26.1406C35.7801 27.6172 33.9207 28.7031 31.5926 29.0625L30.9364 27.6719ZM31.1551 35.9844C34.0614 35.6016 35.7879 34.1719 35.7957 32.5625V32.2031H37.5457V32.5625C37.5457 34.1719 39.2723 35.6016 42.202 35.9844L41.5614 37.3125C39.2879 36.9922 37.5457 36.0547 36.6707 34.6875C35.7957 36.0547 34.0536 36.9922 31.7801 37.3125L31.1551 35.9844ZM55.1696 23.2812V27.7188H57.1384V29.1562H55.1696V33.8281H53.4352V23.2812H55.1696ZM44.0446 26.2344V24.8438H47.3727V23.2656H49.1071V24.8438H52.4196V26.2344H44.0446ZM44.7634 29.5156C44.7634 27.8906 46.1774 26.8125 48.2321 26.8125C50.2712 26.8125 51.6774 27.8906 51.6852 29.5156C51.6774 31.1328 50.2712 32.1875 48.2321 32.1875C46.1774 32.1875 44.7634 31.1328 44.7634 29.5156ZM46.1227 37.1094V33H47.8571V35.7031H55.7321V37.1094H46.1227ZM46.4509 29.5156C46.4431 30.3672 47.1618 30.8516 48.2321 30.8438C49.3024 30.8516 50.029 30.3672 50.029 29.5156C50.029 28.6562 49.3024 28.1562 48.2321 28.1562C47.1618 28.1562 46.4431 28.6562 46.4509 29.5156ZM63.7611 23.8906V25.6875H67.058V23.8906H68.7767V30.0469H62.0424V23.8906H63.7611ZM63.4642 32.4219V31.0625H72.6986V34.7656H65.1986V35.8906H73.1361V37.2656H63.4799V33.5H70.9642V32.4219H63.4642ZM63.7611 28.6719H67.058V27H63.7611V28.6719ZM70.9642 30.5V23.2656H72.6986V26.125H74.6674V27.5312H72.6986V30.5H70.9642ZM87.1037 23.2656V30.4219H85.3537V23.2656H87.1037ZM75.5569 29.2969C79.0647 28.6094 80.7053 27.1328 80.9084 25.25H76.3069V23.8438H82.8381C82.8303 27.6328 80.5412 29.7812 76.1662 30.7031L75.5569 29.2969ZM77.7287 32.3594V31H87.1037V34.6875H79.51V35.8906H87.5256V37.25H77.76V33.4219H85.3537V32.3594H77.7287ZM100.868 23.2656V37.4062H99.1182V23.2656H100.868ZM89.5714 29.2812C89.5636 26.2344 91.1182 24.2969 93.2589 24.2969C95.3761 24.2969 96.9386 26.2344 96.9464 29.2812C96.9386 32.3516 95.3761 34.2812 93.2589 34.2812C91.1182 34.2812 89.5636 32.3516 89.5714 29.2812ZM91.2432 29.2812C91.2432 31.4531 92.0636 32.7109 93.2589 32.7188C94.4464 32.7109 95.2589 31.4531 95.2589 29.2812C95.2589 27.125 94.4464 25.8594 93.2589 25.8594C92.0636 25.8594 91.2432 27.125 91.2432 29.2812ZM107.117 24.1406C109.289 24.1406 110.945 25.5391 110.961 27.5469C110.945 29.2734 109.727 30.5469 108.008 30.8672V32.9531C109.187 32.8906 110.359 32.8047 111.461 32.6562L111.586 33.9531C108.625 34.4844 105.398 34.5 102.977 34.4688L102.727 33.0469C103.789 33.0469 105.008 33.0391 106.273 33.0078V30.8828C104.5 30.5703 103.273 29.2891 103.289 27.5469C103.273 25.5391 104.898 24.1406 107.117 24.1406ZM104.977 27.5469C104.969 28.7266 105.883 29.4844 107.117 29.4688C108.328 29.4844 109.234 28.7266 109.242 27.5469C109.234 26.3594 108.328 25.625 107.117 25.6094C105.883 25.625 104.969 26.3594 104.977 27.5469ZM112.273 37.3906V23.2656H114.008V28.9062H116.055V30.375H114.008V37.3906H112.273ZM132.177 23.2656V37.4062H130.427V23.2656H132.177ZM121.177 34.0781V24.4219H122.912V27.9531H126.334V24.4219H128.052V34.0781H121.177ZM122.912 32.6562H126.334V29.3125H122.912V32.6562ZM145.786 24.5625V26C145.786 27.7578 145.786 29.6484 145.27 32.4219L143.567 32.25C144.051 29.6328 144.051 27.7109 144.051 26V25.9531H135.504V24.5625H145.786ZM134.207 35.5625V34.1406H137.098V29.6406H138.832V34.1406H140.629V29.6406H142.332V34.1406H147.082V35.5625H134.207ZM159.05 23.2656V28.8906H161.222V30.3281H159.05V37.3906H157.331V23.2656H159.05ZM147.91 26.8281V25.4375H151.253V23.4688H152.988V25.4375H156.238V26.8281H147.91ZM148.566 31.0781C148.55 29.125 150.066 27.7422 152.128 27.75C154.16 27.7422 155.667 29.125 155.675 31.0781C155.667 33.0234 154.16 34.3906 152.128 34.3906C150.066 34.3906 148.55 33.0234 148.566 31.0781ZM150.222 31.0781C150.214 32.2266 151.019 32.9609 152.128 32.9531C153.214 32.9609 154.003 32.2266 154.019 31.0781C154.003 29.9297 153.214 29.1719 152.128 29.1719C151.019 29.1719 150.214 29.9297 150.222 31.0781ZM169.018 24.4531V25.5781H171.861V23.2812H173.596V33.5625H171.861V30H169.018V31.2188H162.377V24.4531H169.018ZM164.111 29.8594H167.299V25.8281H164.111V29.8594ZM164.283 37.1094V32.6094H166.049V35.7031H173.908V37.1094H164.283ZM169.018 28.6094H171.861V27H169.018V28.6094Z" fill="black"/>
<g filter="url(#filter0_dd_73_5835)">
<rect x="276.5" y="73.5" width="55" height="25" rx="12.5" transform="rotate(180 276.5 73.5)" fill="#18181B"/>
<rect x="276.5" y="73.5" width="55" height="25" rx="12.5" transform="rotate(180 276.5 73.5)" stroke="#18181B"/>
<path d="M228.337 66L232.384 58.0566L232.384 57.9883L227.653 57.9883L227.653 56.1016L234.804 56.1016L234.804 58.002L230.743 66L228.337 66ZM239.711 66.1367C237.544 66.1367 235.985 64.8789 235.951 63.1152L238.221 63.1152C238.255 63.8467 238.904 64.3389 239.711 64.332C240.641 64.3389 241.304 63.6826 241.297 62.7188C241.304 61.7549 240.634 61.0918 239.684 61.0918C238.98 61.0918 238.501 61.3721 238.234 61.8984L236.143 61.8984L236.635 56.1016L242.965 56.1016L242.965 57.9883L238.549 57.9883L238.316 60.3535L238.385 60.3535C238.72 59.8135 239.499 59.417 240.422 59.4238C242.22 59.417 243.553 60.7637 243.553 62.6504C243.553 64.6875 242.015 66.1367 239.711 66.1367ZM245.821 66.1367C245.145 66.1367 244.577 65.583 244.591 64.8926C244.577 64.2227 245.145 63.6758 245.821 63.6758C246.478 63.6758 247.059 64.2227 247.065 64.8926C247.059 65.583 246.478 66.1367 245.821 66.1367ZM252.178 66.1367C249.607 66.1367 248.035 64.2979 248.035 61.0508C248.035 57.8037 249.607 55.9648 252.178 55.9648C254.748 55.9648 256.327 57.8174 256.32 61.0508C256.327 64.3047 254.748 66.1367 252.178 66.1367ZM250.428 61.0508C250.421 63.2451 251.125 64.2363 252.178 64.2363C253.231 64.2363 253.935 63.2451 253.928 61.0508C253.928 58.8906 253.231 57.8584 252.178 57.8516C251.132 57.8584 250.435 58.8906 250.428 61.0508ZM260.394 61.1602C258.856 61.167 258.022 60.0459 258.028 58.4395C258.022 56.8193 258.897 55.6982 260.394 55.7051C261.952 55.6982 262.779 56.8193 262.786 58.4395C262.779 60.0664 261.932 61.167 260.394 61.1602ZM259.56 58.4395C259.553 59.2734 259.86 59.8203 260.394 59.8203C260.968 59.8203 261.248 59.2734 261.255 58.4395C261.248 57.6123 260.988 57.0381 260.394 57.0449C259.84 57.0449 259.553 57.626 259.56 58.4395ZM259.587 66L266.396 56.1016L268.064 56.1016L261.255 66L259.587 66ZM264.933 63.6621C264.926 62.042 265.794 60.9209 267.298 60.9277C268.85 60.9209 269.677 62.042 269.677 63.6621C269.677 65.2891 268.829 66.3897 267.298 66.3965C265.76 66.3897 264.926 65.2686 264.933 63.6621ZM266.45 63.6621C266.457 64.4961 266.758 65.043 267.298 65.043C267.865 65.043 268.152 64.4961 268.159 63.6621C268.152 62.835 267.893 62.2607 267.298 62.2676C266.744 62.2676 266.457 62.8486 266.45 63.6621Z" fill="white"/>
<line x1="265" y1="50.5" x2="233" y2="50.5" stroke="#18181B"/>
<g clip-path="url(#clip0_73_5835)">
<path d="M247.767 75.0983C248.364 75.9593 249.637 75.9593 250.233 75.0983L253.52 70.3542C254.209 69.3594 253.497 68 252.287 68L245.713 68C244.503 68 243.791 69.3594 244.48 70.3542L247.767 75.0983Z" fill="#18181B" stroke="#18181B"/>
</g>
</g>
<rect x="16" y="82" width="311" height="16" rx="8" fill="#EFF6FF"/>
<path d="M16 90C16 85.5817 19.5817 82 24 82H249.25V98H24C19.5817 98 16 94.4183 16 90Z" fill="#3B82F6"/>
<g filter="url(#filter1_d_73_5835)">
<circle cx="249" cy="90" r="8" fill="white"/>
<circle cx="249" cy="90" r="9" stroke="#93C5FD" stroke-width="2"/>
</g>
<path d="M26.6641 110.768V111.971H23.1162C23.3965 112.955 24.8799 113.83 27.1426 114.035L26.6094 115.238C24.3672 115.013 22.6992 114.131 22.0293 112.887C21.3594 114.124 19.7119 115.006 17.4629 115.238L16.9297 114.035C19.1924 113.83 20.6621 112.948 20.9492 111.971H17.4355V110.768H26.6641ZM16.4102 117.303V116.072H21.2637V114.541H22.7949V116.072H27.6758V117.303H16.4102ZM17.7637 122.566V117.932H19.2676V119.025H24.7363V117.932H26.2539V122.566H17.7637ZM19.2676 121.336H24.7363V120.188H19.2676V121.336ZM39.7334 116.742V117.959H28.4678V116.742H39.7334ZM29.6299 113.256C29.6299 111.69 31.3867 110.747 34.0869 110.754C36.7803 110.747 38.5371 111.69 38.5439 113.256C38.5371 114.828 36.7803 115.785 34.0869 115.785C31.3867 115.785 29.6299 114.828 29.6299 113.256ZM29.8623 122.471V118.875H31.3799V121.24H38.4619V122.471H29.8623ZM31.2158 113.256C31.2021 114.097 32.2891 114.548 34.0869 114.541C35.8916 114.548 36.9717 114.097 36.9717 113.256C36.9717 112.442 35.8916 111.971 34.0869 111.971C32.2891 111.971 31.2021 112.442 31.2158 113.256ZM54.1553 110.357V119.49H52.6377V116.264H50.8877V115.006H52.6377V113.83H50.8877V112.6H52.6377V110.357H54.1553ZM43.8193 116.605C44.25 116.605 44.7217 116.605 45.2138 116.599V112.504H44.1338V111.287H50.7099V112.504H49.6162V116.455C50.081 116.421 50.5322 116.38 50.9697 116.332L51.0381 117.439C48.6933 117.815 45.9521 117.863 43.9834 117.863L43.8193 116.605ZM46.0342 122.471V118.779H47.5654V121.24H54.4697V122.471H46.0342ZM46.6904 116.578C47.1689 116.571 47.6611 116.551 48.1533 116.53V112.504H46.6904V116.578Z" fill="#71717A"/>
<path d="M170.703 119.982V121.227H159.41V119.982H164.277V117.576H160.654V111.178H162.172V113.201H167.9V111.178H169.418V117.576H165.781V119.982H170.703ZM162.172 116.346H167.9V114.418H162.172V116.346ZM182.733 116.783V117.986H171.44V116.783H176.321V115.867H172.89V110.686H181.38V111.861H174.407V112.709H181.079V113.83H174.407V114.705H181.476V115.867H177.839V116.783H182.733ZM172.78 120.68C172.78 119.388 174.332 118.663 177.087 118.67C179.801 118.663 181.359 119.388 181.366 120.68C181.359 122.006 179.801 122.703 177.087 122.703C174.332 122.703 172.78 122.006 172.78 120.68ZM174.298 120.68C174.298 121.281 175.228 121.568 177.087 121.568C178.912 121.568 179.835 121.281 179.849 120.68C179.835 120.092 178.912 119.805 177.087 119.805C175.228 119.805 174.298 120.092 174.298 120.68Z" fill="#71717A"/>
<path d="M290.663 111.295V115.417C292.119 115.383 293.678 115.26 295.312 114.959L295.558 116.545C293.48 116.941 291.559 117.023 289.774 117.023H288.722V111.295H290.663ZM289.474 123.189V119.785H291.88V119.266H289.474V117.83H293.767V121.139H291.401V121.72C292.413 121.706 293.097 121.672 293.903 121.535L294.054 122.984C292.967 123.169 292.058 123.189 290.253 123.189H289.474ZM293.753 114.002V112.43H296.692V110.762H298.647V117.311H296.692V114.002H293.753ZM294.313 123.189V117.707H296.077V118.951H296.897V117.707H298.647V123.189H294.313ZM296.077 121.672H296.897V120.414H296.077V121.672ZM311.525 117.119V118.664H300.082V117.119H311.525ZM301.189 113.715C301.183 112.115 303.021 111.124 305.797 111.131C308.559 111.124 310.397 112.115 310.404 113.715C310.397 115.342 308.559 116.347 305.797 116.354C303.021 116.347 301.183 115.342 301.189 113.715ZM301.436 123.107V119.43H303.404V121.535H310.213V123.107H301.436ZM303.24 113.715C303.227 114.433 304.149 114.761 305.797 114.754C307.444 114.761 308.367 114.433 308.367 113.715C308.367 113.038 307.444 112.683 305.797 112.676C304.149 112.683 303.227 113.038 303.24 113.715ZM325.852 110.762V119.977H323.896V117.051H322.488V115.451H323.896V114.48H322.488V112.908H323.896V110.762H325.852ZM315.215 116.982C315.604 116.982 316.021 116.982 316.459 116.976V113.195H315.529V111.623H322.215V113.195H321.258V116.812C321.627 116.777 321.989 116.75 322.338 116.709L322.406 118.145C320.096 118.521 317.382 118.582 315.42 118.582L315.215 116.982ZM317.43 123.107V119.307H319.412V121.535H326.139V123.107H317.43ZM318.359 116.948C318.701 116.941 319.043 116.928 319.385 116.914V113.195H318.359V116.948Z" fill="black"/>
<defs>
<filter id="filter0_dd_73_5835" x="218" y="46" width="62" height="35" filterUnits="userSpaceOnUse" color-interpolation-filters="sRGB">
<feFlood flood-opacity="0" result="BackgroundImageFix"/>
<feColorMatrix in="SourceAlpha" type="matrix" values="0 0 0 0 0 0 0 0 0 0 0 0 0 0 0 0 0 0 127 0" result="hardAlpha"/>
<feOffset dy="1"/>
<feGaussianBlur stdDeviation="1.5"/>
<feColorMatrix type="matrix" values="0 0 0 0 0 0 0 0 0 0 0 0 0 0 0 0 0 0 0.1 0"/>
<feBlend mode="normal" in2="BackgroundImageFix" result="effect1_dropShadow_73_5835"/>
<feColorMatrix in="SourceAlpha" type="matrix" values="0 0 0 0 0 0 0 0 0 0 0 0 0 0 0 0 0 0 127 0" result="hardAlpha"/>
<feOffset dy="1"/>
<feGaussianBlur stdDeviation="1"/>
<feColorMatrix type="matrix" values="0 0 0 0 0 0 0 0 0 0 0 0 0 0 0 0 0 0 0.06 0"/>
<feBlend mode="normal" in2="effect1_dropShadow_73_5835" result="effect2_dropShadow_73_5835"/>
<feBlend mode="normal" in="SourceGraphic" in2="effect2_dropShadow_73_5835" result="shape"/>
</filter>
<filter id="filter1_d_73_5835" x="237" y="79" width="24" height="24" filterUnits="userSpaceOnUse" color-interpolation-filters="sRGB">
<feFlood flood-opacity="0" result="BackgroundImageFix"/>
<feColorMatrix in="SourceAlpha" type="matrix" values="0 0 0 0 0 0 0 0 0 0 0 0 0 0 0 0 0 0 127 0" result="hardAlpha"/>
<feOffset dy="1"/>
<feGaussianBlur stdDeviation="1"/>
<feColorMatrix type="matrix" values="0 0 0 0 0 0 0 0 0 0 0 0 0 0 0 0 0 0 0.05 0"/>
<feBlend mode="normal" in2="BackgroundImageFix" result="effect1_dropShadow_73_5835"/>
<feBlend mode="normal" in="SourceGraphic" in2="effect1_dropShadow_73_5835" result="shape"/>
</filter>
<clipPath id="clip0_73_5835">
<rect width="10" height="6" fill="white" transform="translate(254 77) rotate(180)"/>
</clipPath>
</defs>
</svg>
