<svg width="343" height="104" viewBox="0 0 343 104" fill="none" xmlns="http://www.w3.org/2000/svg">
<mask id="path-1-inside-1_225_2240" fill="white">
<path d="M0 0H343V104H0V0Z"/>
</mask>
<path d="M0 0H343V104H0V0Z" fill="white"/>
<path d="M0 0V-1H-1V0H0ZM343 0H344V-1H343V0ZM0 1H343V-1H0V1ZM342 0V104H344V0H342ZM1 104V0H-1V104H1Z" fill="#E4E4E7" mask="url(#path-1-inside-1_225_2240)"/>
<g clip-path="url(#clip0_225_2240)">
<rect width="64" height="64" transform="translate(16 20)" fill="white"/>
<path d="M35.1452 28.0346C39.4075 23.8591 43.5953 23.6589 47.3853 24.2387C51.1753 24.8185 54.902 26.9969 57.787 30.2068C61.5434 34.3861 67.4157 44.0617 66.4013 52.8024C65.7218 58.6571 62.5655 71.2153 61.6385 75.3548C60.8735 78.7711 60.267 86.9156 57.787 96.6659C55.6735 104.976 50.6343 106.419 45.8553 106.419C43.2064 106.419 41.2791 107.797 38.1102 103.016C34.6347 97.7728 33.6652 86.7742 33.6652 80.7908C33.6652 75.8369 31.8665 67.796 30.6643 62.6716C29.6489 58.3432 28.4785 54.5724 28.4785 46.3495C28.4785 37.1446 30.883 32.21 35.1452 28.0346Z" fill="#93C5FD"/>
<path d="M42.557 35.194C42.0807 34.0033 41.8426 31.6221 38.2707 31.6221C34.6988 31.6221 33.2701 35.9084 33.2701 35.9084C33.2701 35.9084 32.6056 39.8457 32.1798 42.8262L31.8413 45.1953C31.8413 45.1953 31.127 46.9098 31.127 50.9104C31.127 54.9109 32.0795 69.2461 32.5557 75.9137C33.032 79.9618 33.9845 88.6297 33.9845 90.9157C34.108 97.49 37.5156 110.639 45.3683 110.639C53.7487 110.639 60.2734 108.66 59.7019 90.9157C59.7348 86.6942 60.4163 82.3431 61.1307 78.7712C61.4261 77.2944 62.5594 70.913 62.4163 66.6267C62.2017 60.2009 62.5594 50.6246 62.5594 49.4816C62.5594 48.0528 62.5594 46.6241 61.1307 46.6241C59.7019 46.6241 58.9876 46.6241 58.9876 50.196L58.9876 43.7665C58.9876 42.814 58.4161 40.909 56.1301 40.909C54.2251 40.909 54.0068 42.8934 53.987 43.9683L53.987 40.1946C53.987 39.2421 53.4154 37.3371 51.1294 37.3371C48.272 37.3371 48.272 40.909 48.272 41.6234L48.272 37.3371C48.272 36.3846 47.5576 34.4796 46.1288 34.4796C44.9233 34.4796 42.557 33.7652 42.557 39.4803L42.557 35.194Z" fill="white"/>
<path d="M42.557 45.9097L42.557 39.4803M48.272 46.6241L48.272 41.6234M42.557 39.4803L42.557 35.194C42.0807 34.0033 41.8426 31.6221 38.2707 31.6221C34.6988 31.6221 33.2701 35.9084 33.2701 35.9084C33.2701 35.9084 32.6056 39.8457 32.1798 42.8262L31.8413 45.1953C31.8413 45.1953 31.127 46.9098 31.127 50.9104C31.127 54.9109 32.0795 69.2461 32.5557 75.9137C33.032 79.9618 33.9845 88.6297 33.9845 90.9157C34.108 97.49 37.5156 110.639 45.3683 110.639C53.7487 110.639 60.2734 108.66 59.7019 90.9157C59.7348 86.6942 60.4163 82.3431 61.1307 78.7712C61.4261 77.2944 62.5594 70.913 62.4163 66.6267C62.2017 60.2009 62.5594 50.6246 62.5594 49.4816C62.5594 48.0528 62.5594 46.6241 61.1307 46.6241C59.7019 46.6241 58.9876 46.6241 58.9876 50.196M42.557 39.4803C42.557 33.7652 44.9233 34.4796 46.1288 34.4796C47.5576 34.4796 48.272 36.3846 48.272 37.3371L48.272 41.6234M53.987 48.7672L53.987 44.4809M48.272 41.6234C48.272 40.909 48.272 37.3371 51.1294 37.3371C53.4154 37.3371 53.987 39.2421 53.987 40.1946L53.987 44.4809M58.9876 52.3391L58.9876 50.196M53.987 44.4809C53.987 43.7665 53.8441 40.909 56.1301 40.909C58.4161 40.909 58.9876 42.814 58.9876 43.7665L58.9876 50.196" stroke="black" stroke-linecap="round" stroke-linejoin="bevel"/>
</g>
<path d="M108.328 21.2344V31.6094H106.328V21.2344H108.328ZM96.375 28.0938C98.7578 27.2969 99.7969 25.3203 99.7969 23.3906V22.0156H101.875V23.3906C101.859 25.2734 102.867 27.1094 105.203 27.8594L104.188 29.4219C102.578 28.8906 101.477 27.8281 100.844 26.4766C100.203 27.9297 99.0703 29.1016 97.4062 29.6719L96.375 28.0938ZM98.7969 35.1875V30.6094H100.812V33.5938H108.703V35.1875H98.7969ZM112.608 21.8594V23.5469H115.514V21.8594H117.514V28.0625H110.624V21.8594H112.608ZM112.046 30.5312V28.9844H121.483V32.8438H114.03V33.7656H121.889V35.3438H112.077V31.4219H119.499V30.5312H112.046ZM112.608 26.5H115.514V25.0469H112.608V26.5ZM119.483 28.4531V21.2188H121.483V23.9844H123.405V25.5938H121.483V28.4531H119.483ZM128.591 22.1719C130.849 22.1641 132.521 23.6172 132.529 25.6562C132.521 27.7031 130.849 29.1484 128.591 29.1562C126.349 29.1484 124.631 27.7031 124.638 25.6562C124.631 23.6172 126.349 22.1641 128.591 22.1719ZM124.045 30.9375C126.584 30.9453 130.099 30.9141 133.138 30.4844L133.295 31.9219C130.138 32.5391 126.763 32.5625 124.279 32.5625L124.045 30.9375ZM126.623 25.6562C126.615 26.7812 127.466 27.4297 128.591 27.4219C129.724 27.4297 130.584 26.7812 130.591 25.6562C130.584 24.5469 129.724 23.8906 128.591 23.8906C127.466 23.8906 126.615 24.5469 126.623 25.6562ZM133.951 35.4688V21.2188H135.935V35.4688H133.951ZM153.417 21.2188V35.4688H151.433V27.2344H147.542V25.6094H151.433V21.2188H153.417ZM142.136 32.125V22.7344H144.136V30.4609C145.941 30.4297 147.8 30.2734 149.73 29.9062L149.949 31.5312C147.652 32.0078 145.464 32.125 143.339 32.125H142.136ZM167.088 21.2188V35.4688H165.072V21.2188H167.088ZM155.885 32.1406V22.3438H157.885V25.8125H160.947V22.3438H162.916V32.1406H155.885ZM157.885 30.5312H160.947V27.3594H157.885V30.5312ZM179.853 21.375V27.0312H182.103V28.0625H179.853V35.2656H178.634V21.375H179.853ZM169.196 31.6562C172.782 29.875 174.735 27.1953 175.017 23.9062H169.837V22.875H176.259C176.251 26.8047 174.407 30.3906 169.884 32.625L169.196 31.6562ZM198.382 21.875V22.8906H193.983C194.124 24.3906 196.428 25.5312 198.819 25.7812L198.382 26.7656C196.093 26.4922 193.944 25.4922 193.178 23.9688C192.413 25.4922 190.28 26.4922 187.991 26.7656L187.538 25.7812C189.936 25.5312 192.233 24.3906 192.374 22.8906H188.007V21.875H198.382ZM186.85 28.9844V27.9688H192.569V26.0469H193.788V27.9688H199.507V28.9844H186.85ZM188.46 35.0781V29.8438H189.678V31.375H196.647V29.8438H197.866V35.0781H188.46ZM189.678 34.0781H196.647V32.3438H189.678V34.0781ZM204.349 22.4531C206.396 22.4609 207.849 24.3438 207.865 27.2969C207.849 30.2578 206.396 32.1328 204.349 32.125C202.287 32.1328 200.841 30.2578 200.849 27.2969C200.841 24.3438 202.287 22.4609 204.349 22.4531ZM202.006 27.2969C202.013 29.5547 202.974 31.0391 204.349 31.0312C205.74 31.0391 206.677 29.5547 206.677 27.2969C206.677 25.0391 205.74 23.5547 204.349 23.5469C202.974 23.5547 202.013 25.0391 202.006 27.2969ZM210.162 35.2656V21.375H211.381V26.9219H213.709V27.9844H211.381V35.2656H210.162ZM220.175 21.9688V23.9688H224.222V21.9688H225.441V28.0156H218.972V21.9688H220.175ZM220.175 27.0156H224.222V24.9219H220.175V27.0156ZM220.378 30.2031V29.2188H229.238V32.5781H221.613V34.1094H229.753V35.1094H220.41V31.6406H228.019V30.2031H220.378ZM228.019 28.5625V21.375H229.238V24.3906H231.331V25.4219H229.238V28.5625H228.019ZM242.908 21.375V27.0312H245.158V28.0625H242.908V35.2656H241.69V21.375H242.908ZM232.252 31.6562C235.838 29.875 237.791 27.1953 238.072 23.9062H232.893V22.875H239.315C239.307 26.8047 237.463 30.3906 232.94 32.625L232.252 31.6562ZM252.829 22.2188V26.0469H247.767V28.0625C250.235 28.0547 252.024 27.9688 254.189 27.6094L254.314 28.625C252.087 28.9922 250.228 29.0859 247.642 29.0781H246.564V25.0781H251.626V23.2188H246.532V22.2188H252.829ZM247.704 31.5625V30.5625H256.798V35.2656H255.579V31.5625H247.704ZM255.579 29.8281V21.3906H256.798V24.9531H258.907V25.9844H256.798V29.8281H255.579ZM271.172 21.375V35.2969H269.937V21.375H271.172ZM260.234 27.2969C260.242 24.3438 261.711 22.4609 263.781 22.4531C265.844 22.4609 267.336 24.3438 267.328 27.2969C267.336 30.2578 265.844 32.1328 263.781 32.125C261.711 32.1328 260.242 30.2578 260.234 27.2969ZM261.422 27.2969C261.422 29.5547 262.391 31.0391 263.781 31.0312C265.18 31.0391 266.141 29.5547 266.141 27.2969C266.141 25.0391 265.18 23.5547 263.781 23.5469C262.391 23.5547 261.422 25.0391 261.422 27.2969ZM288.669 24.7188V25.7344H279.185V21.6094H280.388V24.7188H288.669ZM277.451 27.9531V26.9531H290.169V27.9531H284.373V29.4375H288.529V32.6094H280.31V34.125H289.029V35.1094H279.076V31.7188H287.326V30.3906H279.044V29.4375H283.185V27.9531H277.451ZM302.715 21.375V35.2969H301.497V21.375H302.715ZM292.028 23.6875V22.6719H298.497V27.6094H293.309V30.8906C295.614 30.8984 297.668 30.7891 300.153 30.3906L300.278 31.4219C297.723 31.8203 295.614 31.9219 293.215 31.9219H292.059V26.6094H297.262V23.6875H292.028ZM316.527 21.375V35.2656H315.308V27.9844H311.995V26.9688H315.308V21.375H316.527ZM305.042 31.6406C308.8 29.8203 310.542 27.1406 310.792 23.8906H305.652V22.8906H312.027C312.019 26.8281 310.355 30.3203 305.714 32.625L305.042 31.6406ZM109.562 50.9219V51.9531H107.312V59.2656H106.094V45.375H107.312V50.9219H109.562ZM97.1406 55.7344V46.75H98.3594V54.7031C100.391 54.7031 102.461 54.5469 104.75 54.0625L104.906 55.1094C102.508 55.5938 100.352 55.7344 98.25 55.7344H97.1406ZM116.107 45.9688V47.9688H120.154V45.9688H121.373V52.0156H114.904V45.9688H116.107ZM116.107 51.0156H120.154V48.9219H116.107V51.0156ZM116.31 54.2031V53.2188H125.17V56.5781H117.545V58.1094H125.685V59.1094H116.341V55.6406H123.951V54.2031H116.31ZM123.951 52.5625V45.375H125.17V48.3906H127.263V49.4219H125.17V52.5625H123.951ZM143.574 45.375V53.2031H142.339V51.5156H138.675C138.035 52.2109 137.042 52.6172 135.886 52.625C133.769 52.6172 132.269 51.3281 132.277 49.4219C132.269 47.5 133.769 46.1797 135.886 46.1875C137.05 46.1797 138.042 46.6016 138.683 47.3125H142.339V45.375H143.574ZM133.449 49.4219C133.449 50.7109 134.464 51.6016 135.886 51.6094C137.261 51.6016 138.292 50.7109 138.292 49.4219C138.292 48.125 137.261 47.2031 135.886 47.2188C134.464 47.2031 133.449 48.125 133.449 49.4219ZM134.152 59.0469V58.0469H136.308V54.875H134.292V53.875H143.683V54.875H141.683V58.0469H143.855V59.0469H134.152ZM137.511 58.0469H140.464V54.875H137.511V58.0469ZM139.292 48.3281C139.41 48.6641 139.48 49.0312 139.48 49.4219C139.48 49.8047 139.417 50.1562 139.3 50.4844H142.339V48.3281H139.292ZM152.869 46.5938V47.8281H156.119V45.3906H157.354V55.5312H156.119V51.8281H152.869V53.0781H146.494V46.5938H152.869ZM147.713 52.0938H151.666V47.6094H147.713V52.0938ZM148.369 58.9688V54.625H149.604V57.9375H157.666V58.9688H148.369ZM152.869 50.8125H156.119V48.8594H152.869V50.8125ZM171.525 45.375V59.2656H170.337V45.375H171.525ZM159.79 51.375C159.798 48.4219 160.97 46.5547 162.775 46.5469C164.462 46.5547 165.603 48.1797 165.759 50.7969H167.556V45.6719H168.728V58.5625H167.556V51.8125H165.767C165.65 54.5156 164.485 56.2109 162.775 56.2031C160.97 56.2109 159.798 54.3281 159.79 51.375ZM160.946 51.375C160.931 53.625 161.65 55.0469 162.775 55.0312C163.907 55.0469 164.626 53.625 164.618 51.375C164.626 49.1172 163.907 47.7031 162.775 47.7031C161.65 47.7031 160.931 49.1172 160.946 51.375ZM181.225 45.875C183.428 45.8672 185.061 47.2578 185.069 49.2188C185.061 51.2422 183.428 52.625 181.225 52.625C178.999 52.625 177.35 51.2422 177.35 49.2188C177.35 47.2578 178.999 45.8672 181.225 45.875ZM179.163 59.2812V53.5312H181.163V54.875H186.507V53.5312H188.507V59.2812H179.163ZM179.303 49.2188C179.296 50.3203 180.108 50.9531 181.225 50.9688C182.319 50.9531 183.124 50.3203 183.132 49.2188C183.124 48.1641 182.319 47.5078 181.225 47.5156C180.108 47.5078 179.296 48.1641 179.303 49.2188ZM181.163 57.6875H186.507V56.4062H181.163V57.6875ZM186.507 52.9375V45.2188H188.507V48.2188H190.428V49.8438H188.507V52.9375H186.507ZM197.834 46.0469V50.4844H193.537V52C195.646 52 196.912 51.9297 198.349 51.6562L198.537 53.25C196.873 53.5469 195.381 53.5859 192.631 53.5938H191.568V49H195.834V47.6094H191.537V46.0469H197.834ZM193.193 56.2188V54.625H202.99V59.4375H201.006V56.2188H193.193ZM198.646 51.7969V50.2188H201.006V48.7812H198.646V47.2031H201.006V45.2344H202.99V53.9844H201.006V51.7969H198.646ZM216.692 45.2188V59.4688H214.676V45.2188H216.692ZM205.207 51.2812C205.2 48.1797 206.786 46.2188 208.973 46.2188C211.114 46.2188 212.707 48.1797 212.707 51.2812C212.707 54.4062 211.114 56.3594 208.973 56.3594C206.786 56.3594 205.2 54.4062 205.207 51.2812ZM207.129 51.2812C207.122 53.3984 207.864 54.5547 208.973 54.5469C210.051 54.5547 210.778 53.3984 210.786 51.2812C210.778 49.1719 210.051 48.0156 208.973 48.0156C207.864 48.0156 207.122 49.1719 207.129 51.2812ZM233.424 45.2188V50.6719H235.44V52.3125H233.424V59.4062H231.424V45.2188H233.424ZM222.049 55.4219C225.416 53.7344 227.229 51.4688 227.604 48.2969H222.862V46.6719H229.627C229.612 50.9219 227.955 54.6016 223.174 56.9531L222.049 55.4219ZM242.845 47.3906V48.9688H235.97V47.3906H238.439V45.6094H240.407V47.3906H242.845ZM236.298 52.9844C236.298 51.0078 237.626 49.6172 239.439 49.6094C241.259 49.6172 242.556 51.0078 242.564 52.9844C242.556 54.9688 241.259 56.375 239.439 56.375C237.626 56.375 236.298 54.9688 236.298 52.9844ZM238.048 52.9844C238.048 54.0703 238.61 54.6875 239.439 54.6875C240.235 54.6875 240.806 54.0703 240.814 52.9844C240.806 51.9141 240.235 51.2656 239.439 51.2656C238.61 51.2656 238.048 51.9141 238.048 52.9844ZM243.376 58.8281V45.5H245.235V51H246.392V45.2188H248.282V59.4375H246.392V52.5938H245.235V58.8281H243.376ZM255.281 49.0938C255.273 51.3906 256.461 53.8516 258.844 54.8438L257.766 56.4062C256.094 55.6953 254.937 54.2812 254.297 52.5625C253.656 54.4297 252.476 55.9922 250.797 56.7656L249.656 55.1875C252.016 54.1328 253.234 51.5 253.234 49.0938V48.2188H250.219V46.5938H258.25V48.2188H255.281V49.0938ZM259.656 59.4375V45.2188H261.672V59.4375H259.656ZM269.061 49.0938C269.053 51.3906 270.241 53.8516 272.624 54.8438L271.546 56.4062C269.874 55.6953 268.717 54.2812 268.077 52.5625C267.436 54.4297 266.257 55.9922 264.577 56.7656L263.436 55.1875C265.796 54.1328 267.014 51.5 267.014 49.0938V48.2188H263.999V46.5938H272.03V48.2188H269.061V49.0938ZM273.436 59.4375V45.2188H275.452V59.4375H273.436ZM284.887 45.9062C287.075 45.8984 288.7 47.2891 288.7 49.2188C288.7 51.1641 287.075 52.5469 284.887 52.5469C282.715 52.5469 281.051 51.1641 281.059 49.2188C281.051 47.2891 282.715 45.8984 284.887 45.9062ZM282.247 59.0625V53.6094H284.184V57.4375C284.973 57.3828 285.715 57.2656 286.45 57.0312L286.731 58.5781C285.536 59.0078 284.387 59.0625 283.028 59.0625H282.247ZM283.012 49.2188C282.997 50.2656 283.809 50.9141 284.887 50.9219C285.965 50.9141 286.762 50.2656 286.762 49.2188C286.762 48.1797 285.965 47.5391 284.887 47.5469C283.809 47.5391 282.997 48.1797 283.012 49.2188ZM286.247 55.0938V53.625H288.872V52.625H290.809V53.625H293.403V55.0938H286.247ZM287.075 57.4375C287.059 56.2109 288.176 55.4219 289.809 55.4219C291.434 55.4219 292.567 56.2109 292.575 57.4375C292.567 58.6719 291.434 59.4453 289.809 59.4375C288.168 59.4453 287.059 58.6719 287.075 57.4375ZM288.84 57.4375C288.832 57.8672 289.247 58.0781 289.809 58.0781C290.379 58.0781 290.786 57.8672 290.793 57.4375C290.786 57.0312 290.379 56.8047 289.809 56.7969C289.247 56.8047 288.832 57.0312 288.84 57.4375ZM290.247 52.2344V45.2188H292.247V48.1719H294.168V49.8125H292.247V52.2344H290.247ZM306.292 49.0938V50.6562H296.355V45.7188H298.339V49.0938H306.292ZM294.73 53.75V52.1875H307.745V53.75H294.73ZM296.23 59.125V54.9062H298.23V57.5312H306.386V59.125H296.23ZM314.041 49.0938C314.033 51.3906 315.221 53.8516 317.604 54.8438L316.525 56.4062C314.854 55.6953 313.697 54.2812 313.057 52.5625C312.416 54.4297 311.236 55.9922 309.557 56.7656L308.416 55.1875C310.775 54.1328 311.994 51.5 311.994 49.0938V48.2188H308.979V46.5938H317.01V48.2188H314.041V49.0938ZM318.416 59.4375V45.2188H320.432V59.4375H318.416ZM107.797 69.2344V73.2969H109.609V74.9375H107.797V78.8906H105.797V69.2344H107.797ZM96.2656 77.0625C97.3047 77.0625 98.4844 77.0625 99.7188 77.0312V76.2344C98.1719 76.0156 97.2109 75.2578 97.2188 74.1719C97.2109 72.8516 98.5938 72.0391 100.703 72.0469C102.797 72.0391 104.18 72.8516 104.188 74.1719C104.18 75.2578 103.227 76.0078 101.703 76.2266V76.9609C102.875 76.8984 104.047 76.8125 105.141 76.6719L105.281 78.0469C102.273 78.5781 98.9766 78.6094 96.4688 78.6094L96.2656 77.0625ZM96.6406 71.7188V70.2656H99.7188V69.1094H101.703V70.2656H104.781V71.7188H96.6406ZM98.0781 81V79.4688H107.797V83.4375H105.797V81H98.0781ZM99.125 74.1719C99.1172 74.6875 99.6875 74.9922 100.703 74.9844C101.703 74.9922 102.273 74.6875 102.281 74.1719C102.273 73.6172 101.703 73.375 100.703 73.375C99.6875 73.375 99.1172 73.6172 99.125 74.1719ZM122.108 69.2344V79.4531H120.108V69.2344H122.108ZM110.421 73.7188C110.421 71.6328 112.124 70.1328 114.311 70.1406C116.491 70.1328 118.194 71.6328 118.202 73.7188C118.194 75.8359 116.491 77.3281 114.311 77.3281C112.124 77.3281 110.421 75.8359 110.421 73.7188ZM112.374 73.7188C112.358 74.9062 113.194 75.5938 114.311 75.5938C115.389 75.5938 116.225 74.9062 116.233 73.7188C116.225 72.5625 115.389 71.8672 114.311 71.875C113.194 71.8672 112.358 72.5625 112.374 73.7188ZM112.577 83.1875V78.4219H114.593V81.5938H122.483V83.1875H112.577ZM134.873 69.375V75.1094H137.201V76.125H134.873V83.2656H133.654V69.375H134.873ZM124.045 72.625V71.6094H127.623V69.5469H128.841V71.6094H132.31V72.625H124.045ZM124.841 76.9688C124.834 75.0938 126.271 73.7812 128.248 73.7812C130.209 73.7812 131.638 75.0938 131.654 76.9688C131.638 78.8516 130.209 80.1562 128.248 80.1562C126.271 80.1562 124.834 78.8516 124.841 76.9688ZM126.013 76.9688C126.006 78.2344 126.951 79.125 128.248 79.1094C129.529 79.125 130.466 78.2344 130.482 76.9688C130.466 75.7109 129.529 74.8047 128.248 74.8125C126.951 74.8047 126.006 75.7109 126.013 76.9688ZM142.028 73.3281C142.028 75.5391 143.106 77.9219 144.95 79.0156L144.247 79.9688C142.903 79.1562 141.942 77.6719 141.458 75.9766C140.95 77.8281 139.918 79.4219 138.528 80.2656L137.747 79.3438C139.668 78.2188 140.84 75.7578 140.84 73.375V70.6875H142.028V73.3281ZM143.418 75.4062V74.3594H145.778V69.6719H146.934V82.5625H145.778V75.4062H143.418ZM148.622 83.2656V69.375H149.809V83.2656H148.622ZM164.402 80.4531V81.4844H151.683V80.4531H154.839V76.7109C153.652 76.0938 152.933 75.0938 152.933 73.8281C152.933 71.6797 155.042 70.2656 158.011 70.25C160.98 70.2656 163.089 71.6797 163.089 73.8281C163.089 75.0703 162.394 76.0547 161.245 76.6719V80.4531H164.402ZM154.12 73.8281C154.113 75.3828 155.73 76.4219 158.011 76.4219C160.269 76.4219 161.902 75.3828 161.902 73.8281C161.902 72.2734 160.269 71.25 158.011 71.2656C155.73 71.25 154.113 72.2734 154.12 73.8281ZM156.042 80.4531H160.011V77.1484C159.41 77.3047 158.738 77.3906 158.011 77.3906C157.3 77.3906 156.636 77.3125 156.042 77.1562V80.4531ZM166.932 82.0938C166.385 82.0859 165.916 81.6328 165.932 81.0781C165.916 80.5312 166.385 80.0781 166.932 80.0781C167.487 80.0781 167.94 80.5312 167.932 81.0781C167.94 81.6328 167.487 82.0859 166.932 82.0938Z" fill="#27272A"/>
<defs>
<clipPath id="clip0_225_2240">
<rect width="64" height="64" fill="white" transform="translate(16 20)"/>
</clipPath>
</defs>
</svg>
