<svg width="343" height="96" viewBox="0 0 343 96" fill="none" xmlns="http://www.w3.org/2000/svg">
<mask id="path-1-inside-1_225_2296" fill="white">
<path d="M0 0H343V96H0V0Z"/>
</mask>
<path d="M0 0H343V96H0V0Z" fill="white"/>
<path d="M0 0V-1H-1V0H0ZM343 0H344V-1H343V0ZM0 1H343V-1H0V1ZM342 0V96H344V0H342ZM1 96V0H-1V96H1Z" fill="#E4E4E7" mask="url(#path-1-inside-1_225_2296)"/>
<g clip-path="url(#clip0_225_2296)">
<rect width="64" height="64" transform="translate(16 16)" fill="white"/>
<path d="M43.57 43.5709C44.0462 42.3803 44.2844 39.999 47.8562 39.999C51.4281 39.999 52.8569 44.2853 52.8569 44.2853C52.8569 44.2853 53.5214 48.2226 53.9472 51.2032L54.2856 53.5723C54.2856 53.5723 55 55.2868 55 59.2873C55 63.2878 54.0475 77.6231 53.5712 84.2906C53.095 88.3388 52.1425 97.0066 52.1425 99.2926C52.0189 105.867 48.6114 119.016 40.7587 119.016C32.3782 119.016 25.8535 117.036 26.425 99.2926C26.3922 95.0711 25.7106 90.7201 24.9963 87.1482C24.7009 85.6714 23.5675 79.29 23.7107 75.0037C23.9253 68.5778 23.5675 59.0016 23.5675 57.8585C23.5675 56.4298 23.5675 55.001 24.9963 55.001C26.425 55.001 27.1394 55.001 27.1394 58.5729L27.1394 52.1435C27.1394 51.191 27.7109 49.286 29.9969 49.286C31.9019 49.286 32.1202 51.2704 32.14 52.3453L32.14 48.5716C32.14 47.6191 32.7115 45.7141 34.9975 45.7141C37.855 45.7141 37.855 49.286 37.855 50.0004L37.855 45.7141C37.855 44.7616 38.5694 42.8565 39.9981 42.8565C41.2036 42.8565 43.57 42.1422 43.57 47.8572L43.57 43.5709Z" fill="white"/>
<path d="M43.57 54.2866L43.57 47.8572M37.855 55.001L37.855 50.0004M43.57 47.8572L43.57 43.5709C44.0463 42.3803 44.2844 39.999 47.8562 39.999C51.4281 39.999 52.8569 44.2853 52.8569 44.2853C52.8569 44.2853 53.5214 48.2226 53.9472 51.2032L54.2856 53.5723C54.2856 53.5723 55 55.2868 55 59.2873C55 63.2878 54.0475 77.6231 53.5712 84.2906C53.095 88.3388 52.1425 97.0066 52.1425 99.2926C52.0189 105.867 48.6114 119.016 40.7587 119.016C32.3782 119.016 25.8535 117.036 26.425 99.2926C26.3922 95.0711 25.7106 90.7201 24.9963 87.1482C24.7009 85.6714 23.5675 79.29 23.7107 75.0037C23.9253 68.5778 23.5675 59.0016 23.5675 57.8585C23.5675 56.4298 23.5675 55.001 24.9963 55.001C26.425 55.001 27.1394 55.001 27.1394 58.5729M43.57 47.8572C43.57 42.1422 41.2036 42.8565 39.9981 42.8565C38.5694 42.8565 37.855 44.7616 37.855 45.7141L37.855 50.0004M32.14 57.1442L32.14 52.8579M37.855 50.0004C37.855 49.286 37.855 45.7141 34.9975 45.7141C32.7115 45.7141 32.14 47.6191 32.14 48.5716L32.14 52.8579M27.1394 60.7161L27.1394 58.5729M32.14 52.8579C32.14 52.1435 32.2829 49.286 29.9969 49.286C27.7109 49.286 27.1394 51.191 27.1394 52.1435L27.1394 58.5729" stroke="black" stroke-linecap="round" stroke-linejoin="bevel"/>
<path fill-rule="evenodd" clip-rule="evenodd" d="M73.51 30.8657C72.5231 31.5788 71.3106 31.999 70 31.999C66.6863 31.999 64 29.3127 64 25.999C64 24.7012 64.412 23.4997 65.1124 22.5181C61.999 23.2284 59.6758 26.0143 59.6758 29.3428C59.6758 33.2088 62.8099 36.3428 66.676 36.3428C70.019 36.3428 72.8147 33.9994 73.51 30.8657Z" fill="#93C5FD"/>
<path d="M47.1508 36.7087L44.5589 32.999" stroke="black" stroke-width="1.06667"/>
<path d="M54.303 38.8907L58.0128 36.2988" stroke="black" stroke-width="1.06667"/>
<path d="M51.1599 37.2504L52.0915 31.999" stroke="black" stroke-width="1.06667"/>
</g>
<path d="M109.266 35.9062V36.9219H103.469V38.5H102.266V36.9219H96.5625V35.9062H109.266ZM97.4844 42.2656C99.9688 42.0234 102.234 40.9297 102.234 39.4219V39.0469H103.484V39.4219C103.492 40.9531 105.734 42.0234 108.25 42.2656L107.859 43.2031C105.68 42.9609 103.695 42.1484 102.859 40.8281C102.031 42.1328 100.062 42.9766 97.8906 43.2031L97.4844 42.2656ZM98.25 34.5938V29.5781H99.4688V31.0938H106.344V29.5781H107.562V34.5938H98.25ZM99.4688 33.6094H106.344V32.0625H99.4688V33.6094ZM121.827 29.375V43.2656H120.593V29.375H121.827ZM110.514 39.6562C114.272 37.875 116.194 35.2109 116.468 31.8906H111.155V30.8906H117.718C117.702 34.8828 115.843 38.4219 111.186 40.6562L110.514 39.6562ZM136.841 40.5156V41.5469H124.123V40.5156H129.841V37.8906H125.716V33.6094H134.029V31.4219H125.685V30.4062H135.232V34.6094H126.935V36.875H135.56V37.8906H131.045V40.5156H136.841ZM153.339 29.3906V39.5469H152.12V29.3906H153.339ZM142.199 33.7656C142.191 31.7656 143.761 30.3672 145.839 30.3594C147.917 30.3672 149.472 31.7656 149.48 33.7656C149.472 35.7891 147.917 37.1953 145.839 37.1875C143.761 37.1953 142.191 35.7891 142.199 33.7656ZM143.402 33.7656C143.386 35.1484 144.433 36.1094 145.839 36.1094C147.222 36.1094 148.277 35.1484 148.277 33.7656C148.277 32.4062 147.222 31.4375 145.839 31.4375C144.433 31.4375 143.386 32.4062 143.402 33.7656ZM144.37 42.9688V38.5156H145.589V41.9375H153.777V42.9688H144.37ZM162.588 31.7812V32.7812H155.619V31.7812H158.51V29.7969H159.729V31.7812H162.588ZM156.119 36.875C156.119 35.0312 157.377 33.7266 159.104 33.7188C160.854 33.7266 162.104 35.0312 162.119 36.875C162.104 38.7422 160.854 40.0547 159.104 40.0625C157.377 40.0547 156.119 38.7422 156.119 36.875ZM157.213 36.875C157.213 38.1094 158.002 38.9922 159.104 38.9844C160.213 38.9922 161.026 38.1094 161.026 36.875C161.026 35.6562 160.213 34.7656 159.104 34.75C158.002 34.7656 157.213 35.6562 157.213 36.875ZM163.307 42.5781V29.7188H164.463V35.2344H166.307V29.375H167.479V43.2656H166.307V36.25H164.463V42.5781H163.307ZM175.195 29.9688V31.9688H179.242V29.9688H180.461V36.0156H173.992V29.9688H175.195ZM175.195 35.0156H179.242V32.9219H175.195V35.0156ZM175.398 38.2031V37.2188H184.258V40.5781H176.633V42.1094H184.773V43.1094H175.43V39.6406H183.039V38.2031H175.398ZM183.039 36.5625V29.375H184.258V32.3906H186.352V33.4219H184.258V36.5625H183.039ZM198.632 29.375V43.2969H197.397V29.375H198.632ZM187.694 35.2969C187.702 32.3438 189.171 30.4609 191.241 30.4531C193.303 30.4609 194.796 32.3438 194.788 35.2969C194.796 38.2578 193.303 40.1328 191.241 40.125C189.171 40.1328 187.702 38.2578 187.694 35.2969ZM188.882 35.2969C188.882 37.5547 189.85 39.0391 191.241 39.0312C192.639 39.0391 193.6 37.5547 193.6 35.2969C193.6 33.0391 192.639 31.5547 191.241 31.5469C189.85 31.5547 188.882 33.0391 188.882 35.2969ZM211.989 30.8281C211.973 34.8359 210.551 38.5078 205.645 40.9688L204.942 40.0312C207.497 38.75 209.075 37.1484 209.942 35.2734L205.207 35.7188L204.989 34.6562L210.317 34.3047C210.575 33.5234 210.715 32.7031 210.778 31.8438H205.692V30.8281H211.989ZM211.942 35.9844V34.9688H215.207V29.375H216.426V43.2656H215.207V35.9844H211.942ZM223.675 33.6406C223.683 36 225.394 38.3984 227.441 39.2812L226.753 40.25C225.128 39.5156 223.73 37.9141 223.081 35.9922C222.433 38.0312 221.027 39.7969 219.441 40.5938L218.706 39.625C220.699 38.6719 222.433 36.0469 222.441 33.6406V31.8281H219.16V30.8125H226.988V31.8281H223.675V33.6406ZM228.925 43.2656V29.375H230.16V43.2656H228.925ZM243.721 33.5938V34.5781H234.205V29.8906H235.424V33.5938H243.721ZM232.471 37.4688V36.4688H245.19V37.4688H232.471ZM234.127 42.9219V38.8906H235.346V41.9062H243.799V42.9219H234.127ZM261.641 32.7969V34.3906H251.797V29.5938H253.812V32.7969H261.641ZM250.094 36.9844V35.3906H263.094V36.9844H250.094ZM250.969 41.8594C253.5 41.5781 254.961 40.6484 255.398 39.5938H251.562V38.0312H261.609V39.5938H257.75C258.187 40.6484 259.641 41.5781 262.187 41.8594L261.453 43.3594C259.101 43.0859 257.422 42.2344 256.562 41.0078C255.711 42.2344 254.039 43.0859 251.703 43.3594L250.969 41.8594ZM276.842 36.4844V38.0781H263.874V36.4844H276.842ZM265.171 32.5625C265.171 30.75 267.225 29.6406 270.358 29.6562C273.467 29.6406 275.522 30.75 275.53 32.5625C275.522 34.3828 273.467 35.5 270.358 35.5C267.225 35.5 265.171 34.3828 265.171 32.5625ZM265.436 43.1875V39.0312H267.436V41.5938H275.374V43.1875H265.436ZM267.249 32.5625C267.233 33.4453 268.382 33.8906 270.358 33.8906C272.319 33.8906 273.467 33.4453 273.467 32.5625C273.467 31.7031 272.319 31.2344 270.358 31.2188C268.382 31.2344 267.233 31.7031 267.249 32.5625ZM287.778 29.9531C290.832 29.9531 293.129 31.5 293.137 33.8438C293.129 35.9922 291.317 37.4297 288.762 37.7109V40.1406H294.309V41.7812H281.293V40.1406H286.778V37.7109C284.239 37.4219 282.434 35.9844 282.434 33.8438C282.434 31.5 284.723 29.9531 287.778 29.9531ZM284.403 33.8438C284.403 35.3438 285.786 36.1797 287.778 36.1875C289.778 36.1797 291.161 35.3438 291.168 33.8438C291.161 32.4219 289.778 31.5391 287.778 31.5469C285.786 31.5391 284.403 32.4219 284.403 33.8438ZM307.37 30.6875V32.2969H295.699V30.6875H300.558V29.2031H302.542V30.6875H307.37ZM295.074 40.0312V38.4062H308.089V40.0312H302.542V43.4531H300.558V40.0312H295.074ZM296.652 35.2812C296.644 33.7031 298.48 32.8438 301.558 32.8438C304.613 32.8438 306.456 33.7031 306.464 35.2812C306.456 36.8516 304.613 37.7109 301.558 37.7188C298.48 37.7109 296.644 36.8516 296.652 35.2812ZM298.714 35.2812C298.714 35.9297 299.652 36.2344 301.558 36.2344C303.441 36.2344 304.386 35.9297 304.386 35.2812C304.386 34.6328 303.441 34.3203 301.558 34.3125C299.652 34.3203 298.714 34.6328 298.714 35.2812ZM324.399 29.2188V43.4688H322.384V29.2188H324.399ZM312.915 35.2812C312.907 32.1797 314.493 30.2188 316.681 30.2188C318.821 30.2188 320.415 32.1797 320.415 35.2812C320.415 38.4062 318.821 40.3594 316.681 40.3594C314.493 40.3594 312.907 38.4062 312.915 35.2812ZM314.837 35.2812C314.829 37.3984 315.571 38.5547 316.681 38.5469C317.759 38.5547 318.485 37.3984 318.493 35.2812C318.485 33.1719 317.759 32.0156 316.681 32.0156C315.571 32.0156 314.829 33.1719 314.837 35.2812ZM108.719 54.6875V56.2969H97.0469V54.6875H101.906V53.2031H103.891V54.6875H108.719ZM96.4219 64.0312V62.4062H109.438V64.0312H103.891V67.4531H101.906V64.0312H96.4219ZM98 59.2812C97.9922 57.7031 99.8281 56.8438 102.906 56.8438C105.961 56.8438 107.805 57.7031 107.812 59.2812C107.805 60.8516 105.961 61.7109 102.906 61.7188C99.8281 61.7109 97.9922 60.8516 98 59.2812ZM100.062 59.2812C100.062 59.9297 101 60.2344 102.906 60.2344C104.789 60.2344 105.734 59.9297 105.734 59.2812C105.734 58.6328 104.789 58.3203 102.906 58.3125C101 58.3203 100.062 58.6328 100.062 59.2812ZM126.81 60.2656V61.8594H113.841V60.2656H126.81ZM114.388 58.2344C117.474 58.0391 118.92 57.1172 119.162 56.0938H115.091V54.5469H119.326V53.2656H121.295V54.5469H125.56V56.0938H121.451C121.685 57.1172 123.123 58.0391 126.232 58.2344L125.623 59.75C123.006 59.5547 121.201 58.7969 120.302 57.6484C119.412 58.7969 117.599 59.5547 114.998 59.75L114.388 58.2344ZM115.279 64.5V62.9375H125.232V67.4375H123.248V64.5H115.279ZM139.606 53.2188V61.6562H137.622V58.2969H135.403V56.6875H137.622V53.2188H139.606ZM127.528 60.0938C129.856 59.3125 130.919 57.4531 130.965 55.6719H128.106V54.0781H135.825V55.6719H132.997C133.036 57.3281 134.051 59 136.262 59.7344L135.278 61.2969C133.715 60.7891 132.629 59.7578 132.012 58.4844C131.387 59.9297 130.247 61.0938 128.559 61.6719L127.528 60.0938ZM129.856 64.7188C129.856 62.9922 131.715 61.9766 134.747 61.9688C137.786 61.9766 139.645 62.9922 139.653 64.7188C139.645 66.4453 137.786 67.4531 134.747 67.4531C131.715 67.4531 129.856 66.4453 129.856 64.7188ZM131.84 64.7188C131.84 65.5312 132.864 65.9375 134.747 65.9375C136.637 65.9375 137.661 65.5312 137.669 64.7188C137.661 63.8984 136.637 63.4922 134.747 63.5C132.864 63.4922 131.84 63.8984 131.84 64.7188ZM152.292 53.375V59.1094H154.62V60.125H152.292V67.2656H151.074V53.375H152.292ZM141.464 56.625V55.6094H145.042V53.5469H146.261V55.6094H149.73V56.625H141.464ZM142.261 60.9688C142.253 59.0938 143.691 57.7812 145.667 57.7812C147.628 57.7812 149.058 59.0938 149.074 60.9688C149.058 62.8516 147.628 64.1562 145.667 64.1562C143.691 64.1562 142.253 62.8516 142.261 60.9688ZM143.433 60.9688C143.425 62.2344 144.37 63.125 145.667 63.1094C146.949 63.125 147.886 62.2344 147.902 60.9688C147.886 59.7109 146.949 58.8047 145.667 58.8125C144.37 58.8047 143.425 59.7109 143.433 60.9688ZM159.447 57.3281C159.447 59.5391 160.526 61.9219 162.369 63.0156L161.666 63.9688C160.322 63.1562 159.362 61.6719 158.877 59.9766C158.369 61.8281 157.338 63.4219 155.947 64.2656L155.166 63.3438C157.088 62.2188 158.26 59.7578 158.26 57.375V54.6875H159.447V57.3281ZM160.838 59.4062V58.3594H163.197V53.6719H164.354V66.5625H163.197V59.4062H160.838ZM166.041 67.2656V53.375H167.229V67.2656H166.041ZM181.821 64.4531V65.4844H169.103V64.4531H172.259V60.7109C171.071 60.0938 170.353 59.0938 170.353 57.8281C170.353 55.6797 172.462 54.2656 175.431 54.25C178.399 54.2656 180.509 55.6797 180.509 57.8281C180.509 59.0703 179.814 60.0547 178.665 60.6719V64.4531H181.821ZM171.54 57.8281C171.532 59.3828 173.149 60.4219 175.431 60.4219C177.689 60.4219 179.321 59.3828 179.321 57.8281C179.321 56.2734 177.689 55.25 175.431 55.2656C173.149 55.25 171.532 56.2734 171.54 57.8281ZM173.462 64.4531H177.431V61.1484C176.829 61.3047 176.157 61.3906 175.431 61.3906C174.72 61.3906 174.056 61.3125 173.462 61.1562V64.4531ZM184.352 66.0938C183.805 66.0859 183.336 65.6328 183.352 65.0781C183.336 64.5312 183.805 64.0781 184.352 64.0781C184.906 64.0781 185.359 64.5312 185.352 65.0781C185.359 65.6328 184.906 66.0859 184.352 66.0938Z" fill="#27272A"/>
<defs>
<clipPath id="clip0_225_2296">
<rect width="64" height="64" fill="white" transform="translate(16 16)"/>
</clipPath>
</defs>
</svg>
