<svg width="343" height="80" viewBox="0 0 343 80" fill="none" xmlns="http://www.w3.org/2000/svg">
<mask id="path-1-inside-1_225_1907" fill="white">
<path d="M0 0H343V80H0V0Z"/>
</mask>
<path d="M0 0H343V80H0V0Z" fill="#FAFAFA"/>
<path d="M0 1H343V-1H0V1Z" fill="#E4E4E7" mask="url(#path-1-inside-1_225_1907)"/>
<path d="M18.3594 21.9688V23.9688H22.4062V21.9688H23.625V28.0156H17.1562V21.9688H18.3594ZM18.3594 27.0156H22.4062V24.9219H18.3594V27.0156ZM18.5625 30.2031V29.2188H27.4219V32.5781H19.7969V34.1094H27.9375V35.1094H18.5938V31.6406H26.2031V30.2031H18.5625ZM26.2031 28.5625V21.375H27.4219V24.3906H29.5156V25.4219H27.4219V28.5625H26.2031ZM33.2489 21.6094V22.9375H40.1239V21.6094H41.3426V26.1719H37.2489V27.5469H42.9989V28.5469H30.3426V27.5469H36.0457V26.1719H32.0301V21.6094H33.2489ZM31.8739 30.6406V29.7031H41.3739V32.7812H33.1239V34.1406H41.7957V35.1094H31.9051V31.875H40.1707V30.6406H31.8739ZM33.2489 25.2188H40.1239V23.875H33.2489V25.2188ZM59.6216 21.375V35.2969H58.3873V26.9844H54.0591V25.9688H58.3873V21.375H59.6216ZM48.856 31.9219V22.9375H50.0904V30.8906C52.2154 30.8672 54.0982 30.7578 56.1841 30.3281L56.3404 31.3438C54.1216 31.8047 52.1685 31.9219 49.9185 31.9219H48.856ZM73.3236 21.375V35.2969H72.0892V21.375H73.3236ZM62.683 31.9375V22.5625H63.9017V26.2344H68.0424V22.5625H69.2455V31.9375H62.683ZM63.9017 30.9062H68.0424V27.2188H63.9017V30.9062ZM86.4006 21.375V27.0312H88.6506V28.0625H86.4006V35.2656H85.1819V21.375H86.4006ZM75.7444 31.6562C79.3303 29.875 81.2834 27.1953 81.5647 23.9062H76.385V22.875H82.8069C82.7991 26.8047 80.9553 30.3906 76.4319 32.625L75.7444 31.6562ZM95.4609 22.0938V27.0312C97.6249 27.0312 99.4687 26.9062 101.492 26.5L101.68 27.5312C99.4843 27.9531 97.6015 28.0625 95.289 28.0625H94.2265V22.0938H95.4609ZM95.0859 30.4062V29.4688H99.5859V32.625H96.3203V34.1406C97.8203 34.1406 98.7187 34.1094 99.8984 33.9062L100.008 34.8438C98.7031 35.0859 97.6953 35.1172 95.8359 35.1094H95.1171V31.7188H98.3984V30.4062H95.0859ZM99.6796 24.7188V23.7031H103.68V21.375H104.914V28.7812H103.68V24.7188H99.6796ZM100.445 35.1094V29.2969H101.57V31.125H103.789V29.2969H104.914V35.1094H100.445ZM101.57 34.125H103.789V32.0938H101.57V34.125ZM119.835 28.7031V29.7031H107.178V28.7031H119.835ZM108.585 24.625C108.585 22.8828 110.491 21.8594 113.507 21.875C116.491 21.8594 118.405 22.8828 118.413 24.625C118.405 26.3516 116.491 27.3906 113.507 27.3906C110.491 27.3906 108.585 26.3516 108.585 24.625ZM108.819 34.9688V30.9219H110.053V33.9375H118.428V34.9688H108.819ZM109.85 24.625C109.843 25.7266 111.264 26.3906 113.507 26.3906C115.733 26.3906 117.155 25.7266 117.163 24.625C117.155 23.5391 115.733 22.8594 113.507 22.8594C111.264 22.8594 109.843 23.5391 109.85 24.625ZM137.629 28.7344V29.7344H131.973V32.4531H130.754V29.7344H124.911V28.7344H137.629ZM126.536 34.9688V31.1719H127.754V33.9375H136.207V34.9688H126.536ZM126.614 27.375V21.8281H127.832V23.6094H134.707V21.8281H135.926V27.375H126.614ZM127.832 26.375H134.707V24.5469H127.832V26.375ZM151.378 27.2188V28.2031H138.706V27.2188H151.378ZM140.238 30.4062V29.4531H149.738V32.6719H141.488V34.1094H150.16V35.1094H140.269V31.75H148.535V30.4062H140.238ZM140.394 26.0781V21.8594H149.722V22.8438H141.628V25.0781H149.863V26.0781H140.394ZM165.143 28.7031V29.7031H152.486V28.7031H165.143ZM153.893 24.625C153.893 22.8828 155.799 21.8594 158.815 21.875C161.799 21.8594 163.713 22.8828 163.721 24.625C163.713 26.3516 161.799 27.3906 158.815 27.3906C155.799 27.3906 153.893 26.3516 153.893 24.625ZM154.127 34.9688V30.9219H155.361V33.9375H163.736V34.9688H154.127ZM155.158 24.625C155.151 25.7266 156.572 26.3906 158.815 26.3906C161.041 26.3906 162.463 25.7266 162.471 24.625C162.463 23.5391 161.041 22.8594 158.815 22.8594C156.572 22.8594 155.151 23.5391 155.158 24.625ZM181.703 21.3906V31.5781H180.484V21.3906H181.703ZM170.375 28.6094C172.476 27.7891 173.906 25.7578 173.906 23.5625V22.1719H175.156V23.5625C175.141 25.6797 176.586 27.5781 178.656 28.3281L178.016 29.3125C176.406 28.6953 175.156 27.4453 174.539 25.8438C173.937 27.5469 172.672 28.9141 171.047 29.5625L170.375 28.6094ZM172.734 34.9688V30.6406H173.953V33.9375H182.141V34.9688H172.734ZM185.811 21.9688V23.9688H189.858V21.9688H191.077V28.0156H184.608V21.9688H185.811ZM185.811 27.0156H189.858V24.9219H185.811V27.0156ZM186.014 30.2031V29.2188H194.874V32.5781H187.249V34.1094H195.389V35.1094H186.046V31.6406H193.655V30.2031H186.014ZM193.655 28.5625V21.375H194.874V24.3906H196.967V25.4219H194.874V28.5625H193.655ZM213.293 21.375V35.2969H212.059V26.9844H207.731V25.9688H212.059V21.375H213.293ZM202.528 31.9219V22.9375H203.762V30.8906C205.887 30.8672 207.77 30.7578 209.856 30.3281L210.012 31.3438C207.793 31.8047 205.84 31.9219 203.59 31.9219H202.528ZM226.995 21.375V35.2969H225.761V21.375H226.995ZM216.355 31.9375V22.5625H217.574V26.2344H221.714V22.5625H222.917V31.9375H216.355ZM217.574 30.9062H221.714V27.2188H217.574V30.9062ZM240.072 21.375V27.0312H242.322V28.0625H240.072V35.2656H238.854V21.375H240.072ZM229.416 31.6562C233.002 29.875 234.955 27.1953 235.236 23.9062H230.057V22.875H236.479C236.471 26.8047 234.627 30.3906 230.104 32.625L229.416 31.6562ZM258.18 21.375V25.1094H260.023V26.1562H258.18V29.7031H256.945V21.375H258.18ZM247.601 28.625V22.4844H251.07V23.4844H248.773V27.6016C249.492 27.5781 250.367 27.5078 251.32 27.2812L251.445 28.3281C250.133 28.6094 249.062 28.6172 248.211 28.625H247.601ZM248.945 31.3438V30.3594H258.18V35.2969H256.945V31.3438H248.945ZM251.914 28.625V22.4844H255.601V23.4844H253.086V27.6016C254.195 27.5859 255.062 27.5156 256.086 27.2812L256.226 28.3125C254.969 28.5859 254.008 28.6172 252.601 28.625H251.914ZM275.974 29.9375V30.8594H267.63V32.0625H275.646V32.9375H267.63V34.1719H276.13V35.1094H266.396V29.9375H270.521V28.4688H264.818V27.4844H277.474V28.4688H271.74V29.9375H275.974ZM266.505 26.3281V21.625H267.724V23H274.599V21.625H275.818V26.3281H266.505ZM267.724 25.3438H274.599V23.9531H267.724V25.3438ZM284.926 22.2812C287.825 22.2891 290.004 23.8047 290.004 26.0938C290.004 28.4062 287.825 29.9219 284.926 29.9062C282.028 29.9219 279.848 28.4062 279.848 26.0938C279.848 23.8047 282.028 22.2891 284.926 22.2812ZM278.598 33.4219V32.3906H291.317V33.4219H278.598ZM281.02 26.0938C281.004 27.7812 282.684 28.9062 284.926 28.9062C287.153 28.9062 288.817 27.7812 288.817 26.0938C288.817 24.4297 287.153 23.2734 284.926 23.2812C282.684 23.2734 281.004 24.4297 281.02 26.0938ZM299.409 22.5938V23.8281H302.659V21.3906H303.894V31.5312H302.659V27.8281H299.409V29.0781H293.034V22.5938H299.409ZM294.253 28.0938H298.206V23.6094H294.253V28.0938ZM294.909 34.9688V30.625H296.144V33.9375H304.206V34.9688H294.909ZM299.409 26.8125H302.659V24.8594H299.409V26.8125ZM311.923 21.9688V23.9688H315.97V21.9688H317.188V28.0156H310.72V21.9688H311.923ZM311.923 27.0156H315.97V24.9219H311.923V27.0156ZM312.126 30.2031V29.2188H320.985V32.5781H313.36V34.1094H321.501V35.1094H312.157V31.6406H319.767V30.2031H312.126ZM319.767 28.5625V21.375H320.985V24.3906H323.079V25.4219H320.985V28.5625H319.767ZM28.4688 45.375V59.2656H27.2812V45.375H28.4688ZM16.7344 51.375C16.7422 48.4219 17.9141 46.5547 19.7188 46.5469C21.4062 46.5547 22.5469 48.1797 22.7031 50.7969H24.5V45.6719H25.6719V58.5625H24.5V51.8125H22.7109C22.5938 54.5156 21.4297 56.2109 19.7188 56.2031C17.9141 56.2109 16.7422 54.3281 16.7344 51.375ZM17.8906 51.375C17.875 53.625 18.5938 55.0469 19.7188 55.0312C20.8516 55.0469 21.5703 53.625 21.5625 51.375C21.5703 49.1172 20.8516 47.7031 19.7188 47.7031C18.5938 47.7031 17.875 49.1172 17.8906 51.375ZM46.9665 52.75V53.75H34.2946V52.75H40.0134V51.375H35.9821V45.7812H45.3884V46.7812H37.2165V48.0781H45.0134V49.0156H37.2165V50.3906H45.4665V51.375H41.2321V52.75H46.9665ZM35.8415 57.0156C35.8337 55.5703 37.5602 54.7812 40.6384 54.7969C43.6852 54.7812 45.404 55.5703 45.4196 57.0156C45.404 58.4766 43.6852 59.2344 40.6384 59.2344C37.5602 59.2344 35.8337 58.4766 35.8415 57.0156ZM37.0759 57.0156C37.0602 57.8594 38.3415 58.2969 40.6384 58.2812C42.9118 58.2969 44.1774 57.8594 44.1852 57.0156C44.1774 56.1875 42.9118 55.7266 40.6384 55.7188C38.3415 55.7266 37.0602 56.1875 37.0759 57.0156ZM60.7466 51.9844V53H48.0904V51.9844H60.7466ZM48.8091 50.1719C51.231 49.8906 53.5669 48.6953 53.6216 47.1094H49.2466V46.0938H59.6216V47.1094H55.2154C55.2701 48.6797 57.5826 49.8906 60.0435 50.1719L59.5904 51.1562C57.3169 50.8672 55.1841 49.8438 54.4185 48.3047C53.6529 49.8438 51.5357 50.8672 49.2466 51.1562L48.8091 50.1719ZM49.6216 56.7344C49.6138 55.1406 51.4185 54.2188 54.4185 54.2188C57.3951 54.2188 59.1841 55.1406 59.1998 56.7344C59.1841 58.3438 57.3951 59.2344 54.4185 59.2344C51.4185 59.2344 49.6138 58.3438 49.6216 56.7344ZM50.8716 56.7344C50.856 57.7031 52.1919 58.2578 54.4185 58.25C56.6216 58.2578 57.9576 57.7031 57.9654 56.7344C57.9576 55.7578 56.6216 55.2031 54.4185 55.1875C52.1919 55.2031 50.856 55.7578 50.8716 56.7344ZM69.5736 46.9219V47.6406C69.5658 48.7422 69.5658 50.5781 69.1674 53.1562L67.933 53.0469C68.3158 50.7188 68.3471 49.0312 68.3392 47.9219H62.5111V46.9219H69.5736ZM61.7299 55.1875C62.6439 55.1797 63.6596 55.1719 64.7299 55.1484V50.8906H65.933V55.1094C67.4721 55.0547 69.0502 54.9531 70.4955 54.7812L70.558 55.7031C67.6361 56.1562 64.3705 56.2188 61.8861 56.2031L61.7299 55.1875ZM71.3705 59.2656V45.375H72.5892V51.1875H74.8392V52.25H72.5892V59.2656H71.3705ZM91.1339 45.3906V55.6719H89.8995V51.9375H86.6183V53.2969H80.3214V46.3125H81.5401V48.7812H85.4151V46.3125H86.6183V47.9375H89.8995V45.3906H91.1339ZM81.5401 52.2812H85.4151V49.75H81.5401V52.2812ZM82.1495 58.9688V54.6562H83.3839V57.9375H91.4464V58.9688H82.1495ZM86.6183 50.9219H89.8995V48.9688H86.6183V50.9219ZM101.273 46.9375V47.9375H93.414V46.9375H96.789V45.2656H98.0078V46.9375H101.273ZM94.2421 51.2188C94.2265 49.6719 95.5078 48.6484 97.3828 48.6562C99.2421 48.6484 100.547 49.6719 100.555 51.2188C100.547 52.7734 99.2421 53.7891 97.3828 53.7969C95.5078 53.7891 94.2265 52.7734 94.2421 51.2188ZM95.3828 51.2188C95.3749 52.1953 96.1718 52.8516 97.3828 52.8438C98.5781 52.8516 99.3984 52.1953 99.414 51.2188C99.3984 50.2422 98.5781 49.5938 97.3828 49.5781C96.1718 49.5938 95.3749 50.2422 95.3828 51.2188ZM95.664 56.875C95.664 55.3594 97.4218 54.5 100.336 54.5C103.234 54.5 104.992 55.3594 104.992 56.875C104.992 58.3672 103.234 59.2344 100.336 59.2344C97.4218 59.2344 95.664 58.3672 95.664 56.875ZM96.9296 56.875C96.9374 57.7578 98.2265 58.2891 100.336 58.2812C102.414 58.2891 103.695 57.7578 103.695 56.875C103.695 55.9688 102.414 55.4609 100.336 55.4531C98.2265 55.4609 96.9374 55.9688 96.9296 56.875ZM101.258 52.4375V51.4219H103.68V49.7344H101.273V48.7188H103.68V45.375H104.914V54.3594H103.68V52.4375H101.258ZM118.632 45.375V59.2969H117.397V45.375H118.632ZM107.694 51.2969C107.702 48.3438 109.171 46.4609 111.241 46.4531C113.303 46.4609 114.796 48.3438 114.788 51.2969C114.796 54.2578 113.303 56.1328 111.241 56.125C109.171 56.1328 107.702 54.2578 107.694 51.2969ZM108.882 51.2969C108.882 53.5547 109.85 55.0391 111.241 55.0312C112.639 55.0391 113.6 53.5547 113.6 51.2969C113.6 49.0391 112.639 47.5547 111.241 47.5469C109.85 47.5547 108.882 49.0391 108.882 51.2969ZM129.067 48.1406C129.075 49.6797 130.145 51.2344 131.926 51.9062L131.286 52.8438C129.95 52.3281 128.989 51.3359 128.489 50.1406C127.981 51.4609 126.981 52.6406 125.614 53.2344L124.942 52.2812C126.77 51.4844 127.887 49.6875 127.895 48.1406V46.25H129.067V48.1406ZM127.473 56.7656C127.457 55.1953 129.239 54.2734 132.129 54.2812C135.004 54.2734 136.793 55.1953 136.801 56.7656C136.793 58.3203 135.004 59.2344 132.129 59.2344C129.239 59.2344 127.457 58.3203 127.473 56.7656ZM128.692 56.7656C128.676 57.7109 129.997 58.2891 132.129 58.2812C134.239 58.2891 135.567 57.7109 135.582 56.7656C135.567 55.8047 134.239 55.2266 132.129 55.2188C129.997 55.2266 128.676 55.8047 128.692 56.7656ZM132.551 53.5312V45.6562H133.707V49.125H135.551V45.3906H136.723V53.9688H135.551V50.1406H133.707V53.5312H132.551ZM150.175 45.375V52.4844H148.956V45.375H150.175ZM138.941 51.75C142.425 50.9766 144.456 49.3125 144.675 47.0781H139.644V46.0625H146.019C146.011 49.6094 143.503 51.8203 139.394 52.7812L138.941 51.75ZM141.144 54.125V53.1406H150.175V56.5H142.394V58.1562H150.675V59.1406H141.175V55.5625H148.956V54.125H141.144ZM163.423 46.6719C163.431 48.6328 165.978 50.3203 168.485 50.6719L167.985 51.6719C165.829 51.3125 163.689 50.1172 162.798 48.4141C161.907 50.1328 159.774 51.3125 157.61 51.6719L157.11 50.6719C159.618 50.3203 162.157 48.6641 162.157 46.6719V45.875H163.423V46.6719ZM156.454 54.2344V53.2031H169.11V54.2344H163.36V59.2656H162.157V54.2344H156.454ZM178.905 54.7031C178.897 55.9297 179.561 57.2344 180.882 57.9844C182.21 57.1641 182.913 55.7734 182.905 54.7031V53.9375H184.108V54.7031C184.1 56.1328 185.155 57.5547 186.936 58.1719L186.327 59.0781C184.936 58.5859 183.967 57.6172 183.483 56.4531C183.053 57.5781 182.202 58.6484 180.921 59.1875C179.569 58.6719 178.71 57.6562 178.296 56.4922C177.796 57.6094 176.842 58.5781 175.514 59.0781L174.889 58.1719C176.647 57.5156 177.702 56.0312 177.717 54.7031V53.9375H178.905V54.7031ZM174.53 49.4531C174.522 47.5156 176.061 46.1953 178.171 46.2031C180.28 46.1953 181.803 47.5156 181.811 49.4531C181.803 51.3594 180.28 52.6719 178.171 52.6719C176.061 52.6719 174.522 51.3594 174.53 49.4531ZM175.733 49.4531C175.717 50.7422 176.741 51.6484 178.171 51.6562C179.585 51.6484 180.608 50.7422 180.608 49.4531C180.608 48.1562 179.585 47.2344 178.171 47.25C176.741 47.2344 175.717 48.1562 175.733 49.4531ZM184.452 53.3281V45.3906H185.671V53.3281H184.452ZM191.716 46.4531C193.607 46.4609 194.974 48.0859 195.162 50.6875H198.279V45.375H199.498V59.2969H198.279V51.7031H195.177C195.044 54.4297 193.654 56.1328 191.716 56.125C189.662 56.1328 188.224 54.2578 188.232 51.2969C188.224 48.3438 189.662 46.4609 191.716 46.4531ZM189.404 51.2969C189.412 53.5547 190.349 55.0391 191.716 55.0312C193.076 55.0391 194.029 53.5547 194.029 51.2969C194.029 49.0391 193.076 47.5547 191.716 47.5469C190.349 47.5547 189.412 49.0391 189.404 51.2969ZM214.481 56.4531V57.4844H201.762V56.4531H204.918V52.7109C203.731 52.0938 203.012 51.0938 203.012 49.8281C203.012 47.6797 205.122 46.2656 208.09 46.25C211.059 46.2656 213.168 47.6797 213.168 49.8281C213.168 51.0703 212.473 52.0547 211.325 52.6719V56.4531H214.481ZM204.2 49.8281C204.192 51.3828 205.809 52.4219 208.09 52.4219C210.348 52.4219 211.981 51.3828 211.981 49.8281C211.981 48.2734 210.348 47.25 208.09 47.2656C205.809 47.25 204.192 48.2734 204.2 49.8281ZM206.122 56.4531H210.09V53.1484C209.489 53.3047 208.817 53.3906 208.09 53.3906C207.379 53.3906 206.715 53.3125 206.122 53.1562V56.4531ZM217.011 58.0938C216.464 58.0859 215.995 57.6328 216.011 57.0781C215.995 56.5312 216.464 56.0781 217.011 56.0781C217.566 56.0781 218.019 56.5312 218.011 57.0781C218.019 57.6328 217.566 58.0859 217.011 58.0938Z" fill="black"/>
</svg>
