<svg width="343" height="182" viewBox="0 0 343 182" fill="none" xmlns="http://www.w3.org/2000/svg">
<mask id="path-1-inside-1_73_5832" fill="white">
<path d="M0 0H343V182H0V0Z"/>
</mask>
<path d="M0 0H343V182H0V0Z" fill="#FAFAFA"/>
<path d="M0 1H343V-1H0V1Z" fill="#E4E4E7" mask="url(#path-1-inside-1_73_5832)"/>
<path d="M20.2383 26.707V32.5957C22.3184 32.5469 24.5449 32.3711 26.8789 31.9414L27.2305 34.207C24.2617 34.7734 21.5176 34.8906 18.9688 34.8906H17.4648V26.707H20.2383ZM18.5391 43.6992V38.8359H21.9766V38.0938H18.5391V36.043H24.6719V40.7695H21.293V41.5996C22.7383 41.5801 23.7148 41.5312 24.8672 41.3359L25.082 43.4062C23.5293 43.6699 22.2305 43.6992 19.6523 43.6992H18.5391ZM24.6523 30.5742V28.3281H28.8516V25.9453H31.6445V35.3008H28.8516V30.5742H24.6523ZM25.4531 43.6992V35.8672H27.9727V37.6445H29.1445V35.8672H31.6445V43.6992H25.4531ZM27.9727 41.5312H29.1445V39.7344H27.9727V41.5312ZM49.7016 35.0273V37.2344H33.3539V35.0273H49.7016ZM34.9359 30.1641C34.9262 27.8789 37.5531 26.4629 41.518 26.4727C45.4633 26.4629 48.0902 27.8789 48.1 30.1641C48.0902 32.4883 45.4633 33.9238 41.518 33.9336C37.5531 33.9238 34.9262 32.4883 34.9359 30.1641ZM35.2875 43.582V38.3281H38.1V41.3359H47.8266V43.582H35.2875ZM37.8656 30.1641C37.8461 31.1895 39.1645 31.6582 41.518 31.6484C43.8715 31.6582 45.1898 31.1895 45.1898 30.1641C45.1898 29.1973 43.8715 28.6895 41.518 28.6797C39.1645 28.6895 37.8461 29.1973 37.8656 30.1641ZM69.4875 25.9453V39.1094H66.6945V34.9297H64.6828V32.6445H66.6945V31.2578H64.6828V29.0117H66.6945V25.9453H69.4875ZM54.2922 34.832C54.8488 34.832 55.4445 34.832 56.0695 34.8223V29.4219H54.7414V27.1758H64.2922V29.4219H62.925V34.5879C63.4523 34.5391 63.9699 34.5 64.468 34.4414L64.5656 36.4922C61.2648 37.0293 57.3879 37.1172 54.5852 37.1172L54.2922 34.832ZM57.4562 43.582V38.1523H60.2883V41.3359H69.8977V43.582H57.4562ZM58.7844 34.7832C59.2727 34.7734 59.7609 34.7539 60.2492 34.7344V29.4219H58.7844V34.7832Z" fill="black"/>
<path d="M18.3594 71.9688V73.9688H22.4062V71.9688H23.625V78.0156H17.1562V71.9688H18.3594ZM18.3594 77.0156H22.4062V74.9219H18.3594V77.0156ZM18.5625 80.2031V79.2188H27.4219V82.5781H19.7969V84.1094H27.9375V85.1094H18.5938V81.6406H26.2031V80.2031H18.5625ZM26.2031 78.5625V71.375H27.4219V74.3906H29.5156V75.4219H27.4219V78.5625H26.2031ZM33.2489 71.6094V72.9375H40.1239V71.6094H41.3426V76.1719H37.2489V77.5469H42.9989V78.5469H30.3426V77.5469H36.0457V76.1719H32.0301V71.6094H33.2489ZM31.8739 80.6406V79.7031H41.3739V82.7812H33.1239V84.1406H41.7957V85.1094H31.9051V81.875H40.1707V80.6406H31.8739ZM33.2489 75.2188H40.1239V73.875H33.2489V75.2188ZM55.5759 71.375V85.2969H54.3415V71.375H55.5759ZM44.6384 77.2969C44.6462 74.3438 46.1149 72.4609 48.1852 72.4531C50.2477 72.4609 51.7399 74.3438 51.7321 77.2969C51.7399 80.2578 50.2477 82.1328 48.1852 82.125C46.1149 82.1328 44.6462 80.2578 44.6384 77.2969ZM45.8259 77.2969C45.8259 79.5547 46.7946 81.0391 48.1852 81.0312C49.5837 81.0391 50.5446 79.5547 50.5446 77.2969C50.5446 75.0391 49.5837 73.5547 48.1852 73.5469C46.7946 73.5547 45.8259 75.0391 45.8259 77.2969ZM74.5892 82.5469V83.5625H61.8705V82.5469H65.4174V79.2344H63.0267V78.2188H65.1986V73.6875H62.9955V72.6719H73.3705V73.6875H71.1674V78.2188H73.3392V79.2344H70.9486V82.5469H74.5892ZM66.4174 78.2188H69.9642V73.6875H66.4174V78.2188ZM66.6517 82.5469H69.7299V79.2344H66.6517V82.5469ZM82.7756 73.1094C82.7678 74.8203 85.0959 76.2109 87.5569 76.5469L87.0725 77.5156C84.8303 77.1875 82.7287 76.0703 81.9787 74.4453C81.2209 76.0703 79.135 77.1875 76.885 77.5156L76.4319 76.5469C78.8772 76.2109 81.1897 74.8203 81.1819 73.1094V73.0781H76.8069V72.0781H87.1819V73.0781H82.7756V73.1094ZM75.635 79.5469V78.5312H88.3537V79.5469H82.6975V82.3906H81.4787V79.5469H75.635ZM77.26 84.9688V81H78.4944V83.9375H86.9319V84.9688H77.26ZM102.149 82.4688V83.4844H89.4307V82.4688H95.1495V79.4688H90.9307V72.3594H92.1651V74.875H99.3839V72.3594H100.587V79.4688H96.3526V82.4688H102.149ZM92.1651 78.4688H99.3839V75.875H92.1651V78.4688ZM113.961 71.375V76.875H116.289V77.9062H113.961V85.2969H112.742V71.375H113.961ZM103.82 81.8125V72.7344H110.305V73.75H105.039V80.7812C107.555 80.7734 109.328 80.6641 111.398 80.2812L111.555 81.3438C109.375 81.7344 107.555 81.8125 104.914 81.8125H103.82ZM128.037 72.7031V73.7344H122.896V80.8125C125.404 80.8203 127.052 80.7344 128.974 80.3594L129.131 81.375C127.084 81.7656 125.388 81.8594 122.724 81.8594H121.662V72.7031H128.037ZM127.209 77.4531V76.4375H131.256V71.375H132.49V85.2969H131.256V77.4531H127.209ZM140.769 72.0938V77.0312C142.933 77.0312 144.777 76.9062 146.8 76.5L146.988 77.5312C144.792 77.9531 142.91 78.0625 140.597 78.0625H139.535V72.0938H140.769ZM140.394 80.4062V79.4688H144.894V82.625H141.628V84.1406C143.128 84.1406 144.027 84.1094 145.206 83.9062L145.316 84.8438C144.011 85.0859 143.003 85.1172 141.144 85.1094H140.425V81.7188H143.706V80.4062H140.394ZM144.988 74.7188V73.7031H148.988V71.375H150.222V78.7812H148.988V74.7188H144.988ZM145.753 85.1094V79.2969H146.878V81.125H149.097V79.2969H150.222V85.1094H145.753ZM146.878 84.125H149.097V82.0938H146.878V84.125ZM155.315 79.7188V81.3438H162.252V79.7188H163.486V85.0781H154.096V79.7188H155.315ZM152.486 78.7344V77.7188H165.143V78.7344H152.486ZM153.205 75.75C155.682 75.4141 158.19 73.9531 158.19 72.1875V71.5312H159.455V72.1875C159.447 73.8984 161.979 75.4375 164.424 75.75L163.971 76.7344C161.822 76.4141 159.705 75.3203 158.822 73.7656C157.94 75.3281 155.815 76.4141 153.674 76.7344L153.205 75.75ZM155.315 84.0938H162.252V82.3125H155.315V84.0938ZM177.72 71.375V85.2656H176.501V71.375H177.72ZM167.173 81.6875V72.75H168.376V80.625C170.501 80.6094 172.689 80.4453 175.017 79.9531L175.189 81C172.72 81.5156 170.524 81.6875 168.298 81.6875H167.173ZM190.797 71.375V76.875H193.125V77.9062H190.797V85.2969H189.578V71.375H190.797ZM180.656 81.8125V72.7344H187.141V73.75H181.875V80.7812C184.391 80.7734 186.164 80.6641 188.234 80.2812L188.391 81.3438C186.211 81.7344 184.391 81.8125 181.75 81.8125H180.656ZM195.296 84.0938C194.749 84.0859 194.28 83.6328 194.296 83.0781C194.28 82.5312 194.749 82.0781 195.296 82.0781C195.85 82.0781 196.303 82.5312 196.296 83.0781C196.303 83.6328 195.85 84.0859 195.296 84.0938ZM213.231 71.375V85.2969H211.997V71.375H213.231ZM202.59 81.9375V72.5625H203.809V76.2344H207.95V72.5625H209.153V81.9375H202.59ZM203.809 80.9062H207.95V77.2188H203.809V80.9062ZM228.214 78.1094V79.125H215.558V78.1094H228.214ZM216.308 75.9844C218.753 75.6484 221.261 74.0859 221.261 72.25V71.6094H222.527V72.25C222.519 74.0469 225.027 75.6484 227.464 75.9844L226.98 76.9688C224.87 76.6094 222.777 75.4688 221.902 73.8828C221.019 75.4922 218.917 76.6094 216.792 76.9688L216.308 75.9844ZM216.542 84.25C219.042 83.875 221.261 82.5 221.261 80.6406V80.1719H222.495V80.6406C222.495 82.5 224.706 83.875 227.245 84.25L226.745 85.2031C224.636 84.8594 222.714 83.8672 221.886 82.3438C221.05 83.8672 219.12 84.8594 217.011 85.2031L216.542 84.25ZM240.197 71.3906V75.9688H242.291V77H240.197V81.7969H238.979V71.3906H240.197ZM229.369 74.0938V73.0938H232.9V71.3906H234.119V73.0938H237.65V74.0938H229.369ZM230.166 77.4531C230.158 75.875 231.502 74.8594 233.51 74.8594C235.494 74.8594 236.838 75.875 236.854 77.4531C236.838 79.0156 235.494 80.0234 233.51 80.0156C231.502 80.0234 230.158 79.0156 230.166 77.4531ZM231.338 77.4531C231.33 78.4297 232.197 79.0625 233.51 79.0469C234.807 79.0625 235.682 78.4297 235.697 77.4531C235.682 76.4609 234.807 75.8203 233.51 75.8281C232.197 75.8203 231.33 76.4609 231.338 77.4531ZM231.51 84.9688V80.9688H232.713V83.9375H240.838V84.9688H231.51ZM248.883 71.9688V73.9688H252.93V71.9688H254.148V78.0156H247.68V71.9688H248.883ZM248.883 77.0156H252.93V74.9219H248.883V77.0156ZM249.086 80.2031V79.2188H257.945V82.5781H250.32V84.1094H258.461V85.1094H249.117V81.6406H256.726V80.2031H249.086ZM256.726 78.5625V71.375H257.945V74.3906H260.039V75.4219H257.945V78.5625H256.726ZM272.335 71.375V78.4844H271.116V71.375H272.335ZM261.1 77.75C264.585 76.9766 266.616 75.3125 266.835 73.0781H261.803V72.0625H268.178C268.171 75.6094 265.663 77.8203 261.553 78.7812L261.1 77.75ZM263.303 80.125V79.1406H272.335V82.5H264.553V84.1562H272.835V85.1406H263.335V81.5625H271.116V80.125H263.303ZM286.099 71.375V85.2969H284.865V71.375H286.099ZM275.162 77.2969C275.169 74.3438 276.638 72.4609 278.708 72.4531C280.771 72.4609 282.263 74.3438 282.255 77.2969C282.263 80.2578 280.771 82.1328 278.708 82.125C276.638 82.1328 275.169 80.2578 275.162 77.2969ZM276.349 77.2969C276.349 79.5547 277.318 81.0391 278.708 81.0312C280.107 81.0391 281.068 79.5547 281.068 77.2969C281.068 75.0391 280.107 73.5547 278.708 73.5469C277.318 73.5547 276.349 75.0391 276.349 77.2969ZM303.253 71.375V75.6094H305.347V76.6406H303.253V81.625H302.034V71.375H303.253ZM292.659 75.7812C292.652 73.7656 294.23 72.3672 296.3 72.3594C298.386 72.3672 299.941 73.7656 299.956 75.7812C299.941 77.7891 298.386 79.2031 296.3 79.2031C294.23 79.2031 292.652 77.7891 292.659 75.7812ZM293.862 75.7812C293.855 77.1484 294.925 78.125 296.3 78.125C297.698 78.125 298.745 77.1484 298.753 75.7812C298.745 74.4062 297.698 73.4375 296.3 73.4375C294.925 73.4375 293.855 74.4062 293.862 75.7812ZM294.566 84.9688V80.5625H295.769V83.9375H303.894V84.9688H294.566ZM318.08 71.375V85.2656H316.893V71.375H318.08ZM306.346 77.375C306.354 74.4219 307.525 72.5547 309.33 72.5469C311.018 72.5547 312.158 74.1797 312.315 76.7969H314.111V71.6719H315.283V84.5625H314.111V77.8125H312.322C312.205 80.5156 311.041 82.2109 309.33 82.2031C307.525 82.2109 306.354 80.3281 306.346 77.375ZM307.502 77.375C307.486 79.625 308.205 81.0469 309.33 81.0312C310.463 81.0469 311.182 79.625 311.174 77.375C311.182 75.1172 310.463 73.7031 309.33 73.7031C308.205 73.7031 307.486 75.1172 307.502 77.375ZM21.4531 99.1094C21.4453 101.625 23.0625 104.156 25.0781 105.078L24.3438 106.078C22.7656 105.266 21.4609 103.609 20.8438 101.633C20.2266 103.711 18.9219 105.492 17.3438 106.328L16.5469 105.344C18.5859 104.344 20.1953 101.672 20.2031 99.1094V96.5781H21.4531V99.1094ZM23.5625 101.125V100.125H26.8594V95.375H28.0781V109.297H26.8594V101.125H23.5625ZM41.5614 101.891V102.891H37.2645V106.484H43.0614V107.516H30.3426V106.484H36.0614V102.891H31.9676V96.5156H41.4207V97.5156H33.202V101.891H41.5614ZM50.1529 96.0938V101.031C52.3169 101.031 54.1607 100.906 56.1841 100.5L56.3716 101.531C54.1763 101.953 52.2935 102.062 49.981 102.062H48.9185V96.0938H50.1529ZM49.7779 104.406V103.469H54.2779V106.625H51.0123V108.141C52.5123 108.141 53.4107 108.109 54.5904 107.906L54.6998 108.844C53.3951 109.086 52.3873 109.117 50.5279 109.109H49.8091V105.719H53.0904V104.406H49.7779ZM54.3716 98.7188V97.7031H58.3716V95.375H59.606V102.781H58.3716V98.7188H54.3716ZM55.1373 109.109V103.297H56.2623V105.125H58.481V103.297H59.606V109.109H55.1373ZM56.2623 108.125H58.481V106.094H56.2623V108.125ZM74.5267 102.703V103.703H61.8705V102.703H74.5267ZM63.2767 98.625C63.2767 96.8828 65.183 95.8594 68.1986 95.875C71.183 95.8594 73.0971 96.8828 73.1049 98.625C73.0971 100.352 71.183 101.391 68.1986 101.391C65.183 101.391 63.2767 100.352 63.2767 98.625ZM63.5111 108.969V104.922H64.7455V107.938H73.1205V108.969H63.5111ZM64.5424 98.625C64.5346 99.7266 65.9564 100.391 68.1986 100.391C70.4252 100.391 71.8471 99.7266 71.8549 98.625C71.8471 97.5391 70.4252 96.8594 68.1986 96.8594C65.9564 96.8594 64.5346 97.5391 64.5424 98.625ZM91.1339 95.375V105.719H89.8995V101.688H87.5245V100.656H89.8995V99.0469H87.5245V98.0312H89.8995V95.375H91.1339ZM79.6495 102.562C80.2042 102.562 80.8058 102.555 81.4464 102.547V97.5156H80.0401V96.5156H87.4151V97.5156H85.9933V102.383C86.6339 102.344 87.2667 102.289 87.8683 102.219L87.9308 103.141C85.2354 103.555 82.0636 103.602 79.8058 103.609L79.6495 102.562ZM82.1808 108.969V104.859H83.4151V107.938H91.5089V108.969H82.1808ZM82.6339 102.523C83.3448 102.508 84.0792 102.484 84.8058 102.453V97.5156H82.6339V102.523ZM104.852 95.375V109.297H103.617V95.375H104.852ZM93.914 101.297C93.9218 98.3438 95.3906 96.4609 97.4609 96.4531C99.5234 96.4609 101.016 98.3438 101.008 101.297C101.016 104.258 99.5234 106.133 97.4609 106.125C95.3906 106.133 93.9218 104.258 93.914 101.297ZM95.1015 101.297C95.1015 103.555 96.0703 105.039 97.4609 105.031C98.8593 105.039 99.8203 103.555 99.8203 101.297C99.8203 99.0391 98.8593 97.5547 97.4609 97.5469C96.0703 97.5547 95.1015 99.0391 95.1015 101.297ZM118.319 96.7812V98.1719C118.303 99.875 118.303 101.781 117.803 104.578L116.553 104.438C117.077 101.781 117.077 99.8359 117.085 98.1719V97.7969H108.522V96.7812H118.319ZM107.178 107.297V106.281H112.147V101.312H113.35V106.281H119.835V107.297H107.178ZM123.24 106.953L122.021 111.203H120.865L121.724 106.953H123.24ZM140.488 95.3906V105.578H139.253V100.25H136.394V99.2344H139.253V95.3906H140.488ZM129.035 102.797C131.081 102.078 132.566 100.242 132.566 98.25V97.5312H129.425V96.5156H136.91V97.5312H133.8V98.25C133.8 100.047 135.191 101.789 137.222 102.484L136.581 103.469C135.019 102.898 133.808 101.734 133.206 100.297C132.605 101.906 131.324 103.18 129.675 103.797L129.035 102.797ZM131.566 108.969V104.656H132.8V107.938H140.878V108.969H131.566ZM146.815 99.6562C146.822 101.891 147.955 104.18 149.846 105.188L149.143 106.109C147.76 105.352 146.76 103.914 146.252 102.242C145.76 104.023 144.768 105.586 143.377 106.422L142.643 105.484C144.533 104.391 145.651 101.953 145.658 99.6562V98.9688H143.018V97.9531H145.658V95.8906H146.83V97.9531H149.424V98.9688H146.815V99.6562ZM148.471 101.906V100.859H150.658V95.7188H151.815V108.547H150.658V101.906H148.471ZM153.455 109.266V95.375H154.627V109.266H153.455ZM162.297 95.9688V97.9688H166.344V95.9688H167.562V102.016H161.094V95.9688H162.297ZM162.297 101.016H166.344V98.9219H162.297V101.016ZM162.5 104.203V103.219H171.359V106.578H163.734V108.109H171.875V109.109H162.531V105.641H170.141V104.203H162.5ZM170.141 102.562V95.375H171.359V98.3906H173.453V99.4219H171.359V102.562H170.141ZM186.936 102.391V103.391H174.28V102.391H186.936ZM175.03 100.656C177.632 100.43 179.835 99.3516 179.936 97.7656H175.592V96.7812H179.999V95.3438H181.202V96.7812H185.655V97.7656H181.28C181.366 99.3516 183.561 100.43 186.186 100.656L185.78 101.625C183.491 101.367 181.444 100.531 180.608 99.125C179.757 100.531 177.71 101.367 175.436 101.625L175.03 100.656ZM175.686 105.891V104.891H185.374V109.266H184.139V105.891H175.686ZM199.576 95.375V103.656H198.341V100.016H195.544V99H198.341V95.375H199.576ZM188.123 102.547C190.185 101.805 191.654 99.9219 191.654 97.9375V97.4219H188.513V96.3906H195.998V97.4219H192.888V97.9219C192.888 99.7344 194.279 101.461 196.31 102.156L195.669 103.141C194.115 102.578 192.904 101.406 192.302 99.9766C191.709 101.602 190.419 102.898 188.763 103.531L188.123 102.547ZM190.31 106.672C190.302 105.039 192.076 104.086 194.966 104.094C197.849 104.086 199.623 105.039 199.623 106.672C199.623 108.312 197.849 109.25 194.966 109.266C192.076 109.25 190.302 108.312 190.31 106.672ZM191.529 106.672C191.521 107.68 192.834 108.289 194.966 108.281C197.091 108.289 198.404 107.68 198.404 106.672C198.404 105.656 197.091 105.047 194.966 105.047C192.834 105.047 191.521 105.656 191.529 106.672ZM217.699 95.375V109.266H216.511V95.375H217.699ZM206.355 105.922V97.0938H211.589V98.1094H207.542V104.891C209.55 104.875 210.816 104.805 212.308 104.469L212.433 105.516C210.824 105.844 209.464 105.914 207.23 105.922H206.355ZM210.652 101.719V100.688H213.683V95.7188H214.855V108.547H213.683V101.719H210.652ZM231.041 95.375V109.297H229.807V95.375H231.041ZM220.104 101.297C220.111 98.3438 221.58 96.4609 223.65 96.4531C225.713 96.4609 227.205 98.3438 227.197 101.297C227.205 104.258 225.713 106.133 223.65 106.125C221.58 106.133 220.111 104.258 220.104 101.297ZM221.291 101.297C221.291 103.555 222.26 105.039 223.65 105.031C225.049 105.039 226.01 103.555 226.01 101.297C226.01 99.0391 225.049 97.5547 223.65 97.5469C222.26 97.5547 221.291 99.0391 221.291 101.297ZM244.884 95.375V109.297H243.665V101.641H240.727V100.625H243.665V95.375H244.884ZM234.009 105.938V96.6562H240.493V97.6719H235.243V100.562H239.884V101.562H235.243V104.922C237.79 104.914 239.431 104.844 241.337 104.5L241.477 105.516C239.454 105.844 237.759 105.938 235.071 105.938H234.009ZM261.975 95.375V99.6094H264.069V100.641H261.975V105.625H260.757V95.375H261.975ZM251.382 99.7812C251.374 97.7656 252.952 96.3672 255.022 96.3594C257.108 96.3672 258.663 97.7656 258.678 99.7812C258.663 101.789 257.108 103.203 255.022 103.203C252.952 103.203 251.374 101.789 251.382 99.7812ZM252.585 99.7812C252.577 101.148 253.647 102.125 255.022 102.125C256.421 102.125 257.467 101.148 257.475 99.7812C257.467 98.4062 256.421 97.4375 255.022 97.4375C253.647 97.4375 252.577 98.4062 252.585 99.7812ZM253.288 108.969V104.562H254.491V107.938H262.616V108.969H253.288ZM276.802 95.375V109.266H275.615V95.375H276.802ZM265.068 101.375C265.076 98.4219 266.248 96.5547 268.052 96.5469C269.74 96.5547 270.88 98.1797 271.037 100.797H272.833V95.6719H274.005V108.562H272.833V101.812H271.044C270.927 104.516 269.763 106.211 268.052 106.203C266.248 106.211 265.076 104.328 265.068 101.375ZM266.224 101.375C266.208 103.625 266.927 105.047 268.052 105.031C269.185 105.047 269.904 103.625 269.896 101.375C269.904 99.1172 269.185 97.7031 268.052 97.7031C266.927 97.7031 266.208 99.1172 266.224 101.375ZM283.567 99.1094C283.559 101.625 285.176 104.156 287.192 105.078L286.457 106.078C284.879 105.266 283.575 103.609 282.957 101.633C282.34 103.711 281.035 105.492 279.457 106.328L278.66 105.344C280.7 104.344 282.309 101.672 282.317 99.1094V96.5781H283.567V99.1094ZM285.676 101.125V100.125H288.973V95.375H290.192V109.297H288.973V101.125H285.676ZM303.675 101.891V102.891H299.378V106.484H305.175V107.516H292.456V106.484H298.175V102.891H294.081V96.5156H303.534V97.5156H295.316V101.891H303.675ZM312.267 96.0938V101.031C314.431 101.031 316.274 100.906 318.298 100.5L318.485 101.531C316.29 101.953 314.407 102.062 312.095 102.062H311.032V96.0938H312.267ZM311.892 104.406V103.469H316.392V106.625H313.126V108.141C314.626 108.141 315.524 108.109 316.704 107.906L316.813 108.844C315.509 109.086 314.501 109.117 312.642 109.109H311.923V105.719H315.204V104.406H311.892ZM316.485 98.7188V97.7031H320.485V95.375H321.72V102.781H320.485V98.7188H316.485ZM317.251 109.109V103.297H318.376V105.125H320.595V103.297H321.72V109.109H317.251ZM318.376 108.125H320.595V106.094H318.376V108.125ZM29.2188 126.703V127.703H16.5625V126.703H29.2188ZM17.9688 122.625C17.9688 120.883 19.875 119.859 22.8906 119.875C25.875 119.859 27.7891 120.883 27.7969 122.625C27.7891 124.352 25.875 125.391 22.8906 125.391C19.875 125.391 17.9688 124.352 17.9688 122.625ZM18.2031 132.969V128.922H19.4375V131.938H27.8125V132.969H18.2031ZM19.2344 122.625C19.2266 123.727 20.6484 124.391 22.8906 124.391C25.1172 124.391 26.5391 123.727 26.5469 122.625C26.5391 121.539 25.1172 120.859 22.8906 120.859C20.6484 120.859 19.2266 121.539 19.2344 122.625ZM45.8259 119.375V129.719H44.5915V125.688H42.2165V124.656H44.5915V123.047H42.2165V122.031H44.5915V119.375H45.8259ZM34.3415 126.562C34.8962 126.562 35.4977 126.555 36.1384 126.547V121.516H34.7321V120.516H42.1071V121.516H40.6852V126.383C41.3259 126.344 41.9587 126.289 42.5602 126.219L42.6227 127.141C39.9274 127.555 36.7556 127.602 34.4977 127.609L34.3415 126.562ZM36.8727 132.969V128.859H38.1071V131.938H46.2009V132.969H36.8727ZM37.3259 126.523C38.0368 126.508 38.7712 126.484 39.4977 126.453V121.516H37.3259V126.523ZM59.5435 119.375V133.297H58.3091V119.375H59.5435ZM48.606 125.297C48.6138 122.344 50.0826 120.461 52.1529 120.453C54.2154 120.461 55.7076 122.344 55.6998 125.297C55.7076 128.258 54.2154 130.133 52.1529 130.125C50.0826 130.133 48.6138 128.258 48.606 125.297ZM49.7935 125.297C49.7935 127.555 50.7623 129.039 52.1529 129.031C53.5513 129.039 54.5123 127.555 54.5123 125.297C54.5123 123.039 53.5513 121.555 52.1529 121.547C50.7623 121.555 49.7935 123.039 49.7935 125.297ZM73.7767 119.375V133.266H72.5892V119.375H73.7767ZM62.0424 125.375C62.0502 122.422 63.2221 120.555 65.0267 120.547C66.7142 120.555 67.8549 122.18 68.0111 124.797H69.808V119.672H70.9799V132.562H69.808V125.812H68.0189C67.9017 128.516 66.7377 130.211 65.0267 130.203C63.2221 130.211 62.0502 128.328 62.0424 125.375ZM63.1986 125.375C63.183 127.625 63.9017 129.047 65.0267 129.031C66.1596 129.047 66.8783 127.625 66.8705 125.375C66.8783 123.117 66.1596 121.703 65.0267 121.703C63.9017 121.703 63.183 123.117 63.1986 125.375ZM88.3694 130.453V131.484H75.6506V130.453H78.8069V126.711C77.6194 126.094 76.9006 125.094 76.9006 123.828C76.9006 121.68 79.01 120.266 81.9787 120.25C84.9475 120.266 87.0569 121.68 87.0569 123.828C87.0569 125.07 86.3616 126.055 85.2131 126.672V130.453H88.3694ZM78.0881 123.828C78.0803 125.383 79.6975 126.422 81.9787 126.422C84.2366 126.422 85.8694 125.383 85.8694 123.828C85.8694 122.273 84.2366 121.25 81.9787 121.266C79.6975 121.25 78.0803 122.273 78.0881 123.828ZM80.01 130.453H83.9787V127.148C83.3772 127.305 82.7053 127.391 81.9787 127.391C81.2678 127.391 80.6037 127.312 80.01 127.156V130.453ZM90.8995 132.094C90.3526 132.086 89.8839 131.633 89.8995 131.078C89.8839 130.531 90.3526 130.078 90.8995 130.078C91.4542 130.078 91.9073 130.531 91.8995 131.078C91.9073 131.633 91.4542 132.086 90.8995 132.094ZM108.85 119.391V129.578H107.632V119.391H108.85ZM97.5222 126.609C99.6238 125.789 101.053 123.758 101.053 121.562V120.172H102.303V121.562C102.288 123.68 103.733 125.578 105.803 126.328L105.163 127.312C103.553 126.695 102.303 125.445 101.686 123.844C101.085 125.547 99.8191 126.914 98.1941 127.562L97.5222 126.609ZM99.8816 132.969V128.641H101.1V131.938H109.288V132.969H99.8816ZM112.959 119.969V121.969H117.006V119.969H118.224V126.016H111.756V119.969H112.959ZM112.959 125.016H117.006V122.922H112.959V125.016ZM113.162 128.203V127.219H122.021V130.578H114.396V132.109H122.537V133.109H113.193V129.641H120.802V128.203H113.162ZM120.802 126.562V119.375H122.021V122.391H124.115V123.422H122.021V126.562H120.802ZM131.27 119.625C134.356 119.625 136.168 120.477 136.176 122.016C136.168 123.594 134.356 124.445 131.27 124.453C128.168 124.445 126.348 123.594 126.348 122.016C126.348 120.477 128.168 119.625 131.27 119.625ZM124.942 126.391V125.391H137.598V126.391H124.942ZM126.473 128.531V127.594H135.973V130.703H127.723V132.141H136.395V133.109H126.504V129.797H134.77V128.531H126.473ZM127.629 122.016C127.614 122.984 128.965 123.516 131.27 123.516C133.575 123.516 134.918 122.984 134.926 122.016C134.918 121.102 133.575 120.555 131.27 120.547C128.965 120.555 127.614 121.102 127.629 122.016ZM153.83 120.781V122.172C153.815 123.875 153.815 125.781 153.315 128.578L152.065 128.438C152.588 125.781 152.588 123.836 152.596 122.172V121.797H144.033V120.781H153.83ZM142.69 131.297V130.281H147.658V125.312H148.862V130.281H155.346V131.297H142.69ZM169.173 125.828V126.797H156.454V125.828H169.173ZM157.985 128.828V127.906H167.579V130.859H159.235V132.188H168.032V133.078H158.001V130.016H166.36V128.828H157.985ZM158.064 120.688V119.797H167.532V122.672H159.329V123.891H167.782V124.781H158.11V121.828H166.298V120.688H158.064ZM183.421 119.688V125.062H185.108V119.375H186.28V133.266H185.108V126.078H183.421V132.578H182.28V119.688H183.421ZM174.639 129.641V121.141H177.655V122.156H175.78V128.602C176.303 128.578 176.991 128.516 177.749 128.328L177.858 129.375C176.686 129.633 175.78 129.648 175.186 129.641H174.639ZM178.264 129.641V121.141H181.342V122.156H179.374V128.602C180.03 128.586 180.803 128.523 181.639 128.281L181.749 129.328C180.592 129.633 179.632 129.648 178.827 129.641H178.264ZM193.762 119.969V121.969H197.809V119.969H199.028V126.016H192.559V119.969H193.762ZM193.762 125.016H197.809V122.922H193.762V125.016ZM193.965 128.203V127.219H202.825V130.578H195.2V132.109H203.34V133.109H193.997V129.641H201.606V128.203H193.965ZM201.606 126.562V119.375H202.825V122.391H204.918V123.422H202.825V126.562H201.606ZM212.619 119.609V120.938H219.494V119.609H220.713V124.172H216.619V125.547H222.369V126.547H209.713V125.547H215.416V124.172H211.4V119.609H212.619ZM211.244 128.641V127.703H220.744V130.781H212.494V132.141H221.166V133.109H211.275V129.875H219.541V128.641H211.244ZM212.619 123.219H219.494V121.875H212.619V123.219ZM238.992 119.375V133.297H237.758V124.984H233.43V123.969H237.758V119.375H238.992ZM228.226 129.922V120.938H229.461V128.891C231.586 128.867 233.469 128.758 235.555 128.328L235.711 129.344C233.492 129.805 231.539 129.922 229.289 129.922H228.226ZM252.694 119.375V133.297H251.46V119.375H252.694ZM242.053 129.938V120.562H243.272V124.234H247.413V120.562H248.616V129.938H242.053ZM243.272 128.906H247.413V125.219H243.272V128.906ZM267.724 125.828V126.797H255.005V125.828H267.724ZM256.537 128.828V127.906H266.13V130.859H257.787V132.188H266.583V133.078H256.552V130.016H264.912V128.828H256.537ZM256.615 120.688V119.797H266.083V122.672H257.88V123.891H266.333V124.781H256.662V121.828H264.849V120.688H256.615ZM283.909 120.781V122.172C283.894 123.875 283.894 125.781 283.394 128.578L282.144 128.438C282.667 125.781 282.667 123.836 282.675 122.172V121.797H274.112V120.781H283.909ZM272.769 131.297V130.281H277.737V125.312H278.941V130.281H285.425V131.297H272.769ZM298.049 119.375V133.297H296.83V127.375H293.94V126.344H296.83V123.578H294.049V122.547H296.83V119.375H298.049ZM287.033 121.656V120.641H293.143V125.578H288.299V129C290.385 129 292.111 128.922 294.221 128.594L294.33 129.625C292.111 129.969 290.33 130.047 288.111 130.047H287.08V124.578H291.94V121.656H287.033ZM307.267 121.781V122.781H300.298V121.781H303.188V119.797H304.407V121.781H307.267ZM300.798 126.875C300.798 125.031 302.056 123.727 303.782 123.719C305.532 123.727 306.782 125.031 306.798 126.875C306.782 128.742 305.532 130.055 303.782 130.062C302.056 130.055 300.798 128.742 300.798 126.875ZM301.892 126.875C301.892 128.109 302.681 128.992 303.782 128.984C304.892 128.992 305.704 128.109 305.704 126.875C305.704 125.656 304.892 124.766 303.782 124.75C302.681 124.766 301.892 125.656 301.892 126.875ZM307.985 132.578V119.719H309.142V125.234H310.985V119.375H312.157V133.266H310.985V126.25H309.142V132.578H307.985ZM21.4531 147.109C21.4453 149.625 23.0625 152.156 25.0781 153.078L24.3438 154.078C22.7656 153.266 21.4609 151.609 20.8438 149.633C20.2266 151.711 18.9219 153.492 17.3438 154.328L16.5469 153.344C18.5859 152.344 20.1953 149.672 20.2031 147.109V144.578H21.4531V147.109ZM23.5625 149.125V148.125H26.8594V143.375H28.0781V157.297H26.8594V149.125H23.5625ZM45.2946 144.281V145.5C45.2946 146.812 45.2946 148.258 44.8962 150.25H46.9665V151.266H41.2321V157.297H39.9977V151.266H34.3102V150.25H43.654C44.0759 148.25 44.0759 146.797 44.0759 145.5V145.297H35.904V144.281H45.2946ZM59.9966 143.375V157.266H58.8091V149.906H56.8716V156.562H55.6998V143.672H56.8716V148.891H58.8091V143.375H59.9966ZM48.606 153.531V145H53.9185V153.531H48.606ZM49.7623 152.547H52.7623V145.984H49.7623V152.547ZM72.7299 143.391V147.969H74.8236V149H72.7299V153.797H71.5111V143.391H72.7299ZM61.9017 146.094V145.094H65.433V143.391H66.6517V145.094H70.183V146.094H61.9017ZM62.6986 149.453C62.6908 147.875 64.0346 146.859 66.0424 146.859C68.0267 146.859 69.3705 147.875 69.3861 149.453C69.3705 151.016 68.0267 152.023 66.0424 152.016C64.0346 152.023 62.6908 151.016 62.6986 149.453ZM63.8705 149.453C63.8627 150.43 64.7299 151.062 66.0424 151.047C67.3392 151.062 68.2142 150.43 68.2299 149.453C68.2142 148.461 67.3392 147.82 66.0424 147.828C64.7299 147.82 63.8627 148.461 63.8705 149.453ZM64.0424 156.969V152.969H65.2455V155.938H73.3705V156.969H64.0424ZM86.4006 143.375V148.875H88.7287V149.906H86.4006V157.297H85.1819V143.375H86.4006ZM76.26 153.812V144.734H82.7444V145.75H77.4787V152.781C79.9944 152.773 81.7678 152.664 83.8381 152.281L83.9944 153.344C81.8147 153.734 79.9944 153.812 77.3537 153.812H76.26ZM96.462 144.594V145.828H99.712V143.391H100.946V153.531H99.712V149.828H96.462V151.078H90.087V144.594H96.462ZM91.3057 150.094H95.2589V145.609H91.3057V150.094ZM91.962 156.969V152.625H93.1964V155.938H101.259V156.969H91.962ZM96.462 148.812H99.712V146.859H96.462V148.812ZM105.492 154.953L104.273 159.203H103.117L103.977 154.953H105.492ZM115.959 146.406C115.966 148.133 117.357 149.711 119.412 150.328L118.818 151.297C117.224 150.797 115.99 149.734 115.381 148.367C114.771 149.867 113.498 151.016 111.865 151.562L111.24 150.594C113.31 149.953 114.748 148.289 114.756 146.406V146.094H111.615V145.109H114.756V143.328H115.99V145.109H119.099V146.094H115.959V146.406ZM112.99 153.594V152.578H122.084V157.297H120.865V153.594H112.99ZM120.865 151.859V143.375H122.084V147.094H124.177V148.141H122.084V151.859H120.865ZM135.786 143.375V149.297H138.004V150.328H135.786V157.266H134.551V143.375H135.786ZM124.832 153.562C125.965 153.562 127.286 153.555 128.661 153.516V151.984C127.043 151.797 125.989 150.844 126.004 149.469C125.989 147.898 127.317 146.883 129.286 146.891C131.223 146.883 132.575 147.898 132.582 149.469C132.575 150.852 131.504 151.797 129.895 151.984V153.469C131.184 153.406 132.497 153.297 133.707 153.125L133.786 154.062C130.754 154.578 127.473 154.609 125.036 154.609L124.832 153.562ZM125.082 146.078V145.078H128.661V143.406H129.895V145.078H133.457V146.078H125.082ZM127.145 149.469C127.153 150.43 127.997 151.062 129.286 151.047C130.551 151.062 131.403 150.43 131.411 149.469C131.403 148.5 130.551 147.844 129.286 147.844C127.997 147.844 127.153 148.5 127.145 149.469ZM149.644 143.375V146.781H151.738V147.797H149.644V151.266H148.425V143.375H149.644ZM138.769 150.422C142.183 149.5 144.269 147.648 144.527 145.297H139.394V144.281H145.847C145.831 147.781 143.386 150.289 139.269 151.406L138.769 150.422ZM140.847 157.078V151.906H149.644V157.078H140.847ZM142.066 156.078H148.425V152.922H142.066V156.078ZM164.018 143.375V157.297H162.783V143.375H164.018ZM153.08 149.297C153.088 146.344 154.557 144.461 156.627 144.453C158.69 144.461 160.182 146.344 160.174 149.297C160.182 152.258 158.69 154.133 156.627 154.125C154.557 154.133 153.088 152.258 153.08 149.297ZM154.268 149.297C154.268 151.555 155.236 153.039 156.627 153.031C158.026 153.039 158.986 151.555 158.986 149.297C158.986 147.039 158.026 145.555 156.627 145.547C155.236 145.555 154.268 147.039 154.268 149.297ZM177.391 144.703V145.734H172.25V152.812C174.758 152.82 176.406 152.734 178.328 152.359L178.484 153.375C176.437 153.766 174.742 153.859 172.078 153.859H171.016V144.703H177.391ZM176.562 149.453V148.438H180.609V143.375H181.844V157.297H180.609V149.453H176.562ZM199.576 143.375V153.719H198.341V149.688H195.966V148.656H198.341V147.047H195.966V146.031H198.341V143.375H199.576ZM188.091 150.562C188.646 150.562 189.248 150.555 189.888 150.547V145.516H188.482V144.516H195.857V145.516H194.435V150.383C195.076 150.344 195.709 150.289 196.31 150.219L196.373 151.141C193.677 151.555 190.505 151.602 188.248 151.609L188.091 150.562ZM190.623 156.969V152.859H191.857V155.938H199.951V156.969H190.623ZM191.076 150.523C191.787 150.508 192.521 150.484 193.248 150.453V145.516H191.076V150.523ZM212.7 143.375V147.609H214.793V148.641H212.7V153.625H211.481V143.375H212.7ZM202.106 147.781C202.098 145.766 203.676 144.367 205.747 144.359C207.832 144.367 209.387 145.766 209.403 147.781C209.387 149.789 207.832 151.203 205.747 151.203C203.676 151.203 202.098 149.789 202.106 147.781ZM203.309 147.781C203.301 149.148 204.372 150.125 205.747 150.125C207.145 150.125 208.192 149.148 208.2 147.781C208.192 146.406 207.145 145.438 205.747 145.438C204.372 145.438 203.301 146.406 203.309 147.781ZM204.012 156.969V152.562H205.215V155.938H213.34V156.969H204.012ZM226.48 143.328V146.703H228.589V147.719H226.48V151.016H225.261V143.328H226.48ZM215.652 145.625V144.641H219.183V143.234H220.402V144.641H223.933V145.625H215.652ZM216.449 148.531C216.441 147.125 217.769 146.258 219.792 146.25C221.808 146.258 223.12 147.125 223.136 148.531C223.12 149.945 221.808 150.805 219.792 150.812C217.769 150.805 216.441 149.945 216.449 148.531ZM217.62 152.656V151.734H226.48V154.812H218.855V156.172H226.995V157.109H217.652V153.906H225.261V152.656H217.62ZM217.62 148.531C217.613 149.367 218.472 149.891 219.792 149.891C221.105 149.891 221.964 149.367 221.98 148.531C221.964 147.703 221.105 147.164 219.792 147.156C218.472 147.164 217.613 147.703 217.62 148.531ZM244.868 143.375V157.266H243.649V149.984H240.337V148.969H243.649V143.375H244.868ZM233.384 153.641C237.142 151.82 238.884 149.141 239.134 145.891H233.993V144.891H240.368C240.36 148.828 238.696 152.32 234.056 154.625L233.384 153.641ZM259.055 143.375V157.266H257.867V143.375H259.055ZM247.32 149.375C247.328 146.422 248.5 144.555 250.305 144.547C251.992 144.555 253.133 146.18 253.289 148.797H255.086V143.672H256.258V156.562H255.086V149.812H253.297C253.18 152.516 252.015 154.211 250.305 154.203C248.5 154.211 247.328 152.328 247.32 149.375ZM248.476 149.375C248.461 151.625 249.18 153.047 250.305 153.031C251.437 153.047 252.156 151.625 252.148 149.375C252.156 147.117 251.437 145.703 250.305 145.703C249.18 145.703 248.461 147.117 248.476 149.375ZM273.647 154.453V155.484H260.928V154.453H264.085V150.711C262.897 150.094 262.178 149.094 262.178 147.828C262.178 145.68 264.288 144.266 267.257 144.25C270.225 144.266 272.335 145.68 272.335 147.828C272.335 149.07 271.639 150.055 270.491 150.672V154.453H273.647ZM263.366 147.828C263.358 149.383 264.975 150.422 267.257 150.422C269.514 150.422 271.147 149.383 271.147 147.828C271.147 146.273 269.514 145.25 267.257 145.266C264.975 145.25 263.358 146.273 263.366 147.828ZM265.288 154.453H269.257V151.148C268.655 151.305 267.983 151.391 267.257 151.391C266.546 151.391 265.882 151.312 265.288 151.156V154.453ZM276.177 156.094C275.63 156.086 275.162 155.633 275.177 155.078C275.162 154.531 275.63 154.078 276.177 154.078C276.732 154.078 277.185 154.531 277.177 155.078C277.185 155.633 276.732 156.086 276.177 156.094Z" fill="#27272A"/>
</svg>
