<svg width="124" height="124" viewBox="0 0 124 124" fill="none" xmlns="http://www.w3.org/2000/svg">
<circle cx="62" cy="118" r="6" fill="#969696"/>
<circle cx="62" cy="6" r="6" fill="black"/>
<circle cx="90.0008" cy="110.497" r="6" transform="rotate(-30 90.0008 110.497)" fill="#B0B0B0"/>
<circle cx="34.0008" cy="13.5028" r="6" transform="rotate(-30 34.0008 13.5028)" fill="#1A1A1A"/>
<circle cx="110.499" cy="89.9992" r="6" transform="rotate(-60 110.499 89.9992)" fill="#C7C7C7"/>
<circle cx="13.5028" cy="33.9992" r="6" transform="rotate(-60 13.5028 33.9992)" fill="#333333"/>
<circle cx="118" cy="62" r="6" transform="rotate(-90 118 62)" fill="#D9D9D9"/>
<circle cx="6" cy="62" r="6" transform="rotate(-90 6 62)" fill="#4D4D4D"/>
<circle cx="110.497" cy="33.9992" r="6" transform="rotate(-120 110.497 33.9992)" fill="#EAEAEA"/>
<circle cx="13.5028" cy="89.9992" r="6" transform="rotate(-120 13.5028 89.9992)" fill="#666666"/>
<circle cx="90.0011" cy="13.5011" r="6" transform="rotate(-150 90.0011 13.5011)" fill="#EEEEEE"/>
<circle cx="34.0011" cy="110.497" r="6" transform="rotate(-150 34.0011 110.497)" fill="#808080"/>
</svg>
