<svg width="37" height="36" viewBox="0 0 37 36" fill="none" xmlns="http://www.w3.org/2000/svg">
<path d="M34.1328 13.6984C33.9924 13.2574 33.7223 12.869 33.3577 12.5838C32.9932 12.2987 32.5512 12.13 32.0894 12.0999L23.7376 11.5154L20.6394 3.71399C20.4718 3.28269 20.1777 2.9121 19.7958 2.65078C19.414 2.38946 18.962 2.24959 18.4993 2.24951H18.4971C18.0351 2.25034 17.5841 2.39056 17.203 2.65184C16.822 2.91312 16.5286 3.28331 16.3614 3.71399L13.2171 11.5604L4.9114 12.0999C4.44958 12.13 4.00757 12.2987 3.64304 12.5838C3.27852 12.869 3.00841 13.2574 2.86794 13.6984C2.71977 14.1456 2.70969 14.6271 2.83902 15.0801C2.96835 15.5332 3.23109 15.9368 3.59304 16.2384L9.98269 21.6393L8.08205 29.1155C7.95105 29.6191 7.97514 30.1505 8.15117 30.6402C8.3272 31.1298 8.64697 31.5549 9.06863 31.8599C9.47572 32.156 9.96254 32.3228 10.4657 32.3385C10.9689 32.3542 11.4652 32.218 11.8899 31.9478L18.4817 27.7719C18.4905 27.7653 18.4993 27.7609 18.5191 27.7719L25.6118 32.2653C25.9969 32.5113 26.4472 32.6353 26.904 32.6212C27.3607 32.6071 27.8025 32.4555 28.1717 32.1862C28.5537 31.91 28.8435 31.5249 29.0031 31.0813C29.1626 30.6377 29.1845 30.1562 29.0659 29.7L27.0467 21.5327L33.4077 16.2384C33.7697 15.9368 34.0324 15.5332 34.1618 15.0801C34.2911 14.6271 34.281 14.1456 34.1328 13.6984Z" fill="#FBBF24"/>
</svg>
