<svg width="46" height="46" viewBox="0 0 46 46" fill="none" xmlns="http://www.w3.org/2000/svg">
<rect width="46" height="46" rx="23" fill="black" fill-opacity="0.6"/>
<path d="M30.7778 13H15.2222C13.9949 13 13 13.9949 13 15.2222V30.7778C13 32.0051 13.9949 33 15.2222 33H30.7778C32.0051 33 33 32.0051 33 30.7778V15.2222C33 13.9949 32.0051 13 30.7778 13Z" stroke="white" stroke-width="2" stroke-linecap="round" stroke-linejoin="round"/>
<path d="M19.1091 20.7777C20.0296 20.7777 20.7758 20.0315 20.7758 19.111C20.7758 18.1905 20.0296 17.4443 19.1091 17.4443C18.1887 17.4443 17.4425 18.1905 17.4425 19.111C17.4425 20.0315 18.1887 20.7777 19.1091 20.7777Z" stroke="white" stroke-width="2" stroke-linecap="round" stroke-linejoin="round"/>
<path d="M32.999 26.3327L27.4434 20.7771L15.2212 32.9993" stroke="white" stroke-width="2" stroke-linecap="round" stroke-linejoin="round"/>
</svg>
