<svg width="164" height="236" viewBox="0 0 164 236" fill="none" xmlns="http://www.w3.org/2000/svg">
<path d="M32.9539 62.6596C29.659 65.6624 29 70.0034 29.8238 72.6145C30.2631 73.5937 31.636 76.0416 32.2949 76.0416H126.364V69.5138V52.7048C126.364 49.1145 125.54 41.4444 123.893 38.0173C122.246 34.5902 120.598 33.611 119.939 33.611C119.28 33.611 117.468 33.611 115.491 36.2221C113.514 38.8333 113.844 42.0971 113.514 43.0763C113.185 44.0555 113.349 44.0555 111.043 45.6874C108.736 47.3194 101.806 47.7337 99.0165 47.4826C97.2043 47.3194 96.3806 47.3194 95.7216 46.993C96.0511 46.0138 97.0725 42.7499 97.2043 41.4444C97.3691 39.8124 94.8979 37.0381 93.4152 35.5694C91.9325 34.1006 89.7908 32.9583 88.4729 32.9583C87.4185 32.9583 86.4959 33.8286 86.1664 34.2638L71.5042 43.0763H70.8452C59.5876 48.3529 36.2488 59.6569 32.9539 62.6596Z" fill="#D4D4D8"/>
<path d="M40.6968 58.0904C40.9714 58.5799 41.85 59.657 43.1679 60.0487C44.8154 60.5383 49.2635 60.7015 51.7347 60.0487C54.2058 59.3959 69.1976 53.5209 76.6111 50.257C82.5419 47.6459 88.0883 44.8172 90.1202 43.7292" stroke="#A1A1AA"/>
<path d="M36.5784 70.0036C36.5784 68.7524 36.5784 66.0216 36.5784 65.1077C36.5784 63.9654 37.0726 62.9862 38.2258 62.1702C39.1484 61.5174 41.4658 60.3751 42.5092 59.8855" stroke="#A1A1AA"/>
<mask id="mask0_7_3462" style="mask-type:alpha" maskUnits="userSpaceOnUse" x="29" y="31" width="100" height="47">
<path d="M88.4728 44.3819L89.9555 43.566C91.1636 44.4907 94.0082 46.4708 95.7216 46.9931C97.4349 47.5153 100.06 47.4282 101.158 47.3194L111.702 44.7083L112.196 33.7743L126.364 31V53.1944C126.144 53.1944 125.54 53.0965 124.881 52.7049C124.058 52.2153 124.222 51.7257 122.904 50.4201C121.586 49.1146 119.115 49.2778 117.797 49.9306C116.479 50.5833 113.679 51.7257 111.537 52.7049C109.395 53.684 107.583 53.8472 106.265 52.7049C105.211 51.791 102.421 49.7674 101.158 48.7882C99.7853 48.897 96.4135 48.7556 93.9094 47.9722C91.4053 47.1889 89.2416 45.2523 88.4728 44.3819Z" fill="white"/>
<path d="M129 69.8403H29V78H129V69.8403Z" fill="white"/>
</mask>
<g mask="url(#mask0_7_3462)">
<path d="M32.9539 62.6596C29.659 65.6624 29 70.0034 29.8238 72.6145C30.2631 73.5937 31.636 76.0416 32.2949 76.0416H126.364V69.5138V52.7048C126.364 49.1145 125.54 41.4444 123.893 38.0173C122.246 34.5902 120.598 33.611 119.939 33.611C119.28 33.611 117.468 33.611 115.491 36.2221C113.514 38.8333 113.844 42.0971 113.514 43.0763C113.185 44.0555 112.69 44.3819 110.878 45.5242C108.487 47.0316 103.3 47.4826 100.499 47.4826C98.2587 47.4826 96.8748 47.3194 95.7216 46.993C96.0511 46.0138 97.0725 42.7499 97.2043 41.4444C97.3691 39.8124 94.8979 37.0381 93.4152 35.5694C91.9325 34.1006 89.7908 32.9583 88.4729 32.9583C87.4185 32.9583 86.4959 33.8286 86.1664 34.2638L71.5042 43.0763H70.8452C59.5876 48.3529 36.2488 59.6569 32.9539 62.6596Z" fill="#F5F5F5"/>
</g>
<mask id="mask1_7_3462" style="mask-type:alpha" maskUnits="userSpaceOnUse" x="29" y="32" width="98" height="45">
<path d="M32.9539 62.6596C29.659 65.6624 29 70.0034 29.8238 72.6145C30.2631 73.5937 31.636 76.0416 32.2949 76.0416H126.364V69.5138V52.7048C126.364 49.1145 125.54 41.4444 123.893 38.0173C122.246 34.5902 120.598 33.611 119.939 33.611C119.28 33.611 117.468 33.611 115.491 36.2221C113.514 38.8333 113.844 42.0971 113.514 43.0763C113.185 44.0555 113.349 44.0555 111.043 45.6874C108.736 47.3194 101.817 47.1562 99.0165 47.1562C96.776 47.1562 96.106 46.3946 96.0511 46.0138C96.3806 45.0346 97.0725 42.7499 97.2043 41.4444C97.3691 39.8124 94.8979 37.0381 93.4152 35.5694C91.9325 34.1006 89.7908 32.9583 88.4729 32.9583C87.4185 32.9583 86.4959 33.8286 86.1664 34.2638L71.5042 43.0763H70.8452C59.5876 48.3529 36.2488 59.6569 32.9539 62.6596Z" fill="#9E4BFF"/>
</mask>
<g mask="url(#mask1_7_3462)">
<path d="M84.5189 38.1804L76.9407 42.4235L78.4234 44.2186C80.7298 42.8587 85.4744 40.0735 86.0016 39.8124C86.6606 39.486 87.3196 39.486 87.6491 39.8124L88.3081 40.4652C89.1318 41.4443 91.2735 43.7291 93.2504 45.0346C95.2273 46.3402 96.6002 46.1226 97.0395 45.8506L99.6754 40.7916L89.7908 31.1631L83.5305 35.4061C84.0796 35.7325 84.9695 36.3421 85.1779 36.5485C85.5074 36.8749 85.4214 37.2936 85.3426 37.5277C85.2639 37.7617 84.8484 38.0173 84.5189 38.1804Z" fill="#F5F5F5"/>
<path d="M47.7808 53.6838L43.9917 55.8054C45.6537 57.6455 48.3265 58.1766 50.5658 57.1119L50.911 56.9477L47.7808 53.6838Z" fill="#F5F5F5"/>
<path d="M52.0641 51.8887L48.6045 53.5206L51.5699 56.6213L55.0295 55.1526L52.0641 51.8887Z" fill="#F5F5F5"/>
<path d="M56.018 49.4409L52.5583 51.3993L55.6885 54.8263L59.3129 53.1944L56.018 49.4409Z" fill="#F5F5F5"/>
<path d="M60.1367 47.6458L56.8418 49.4409L59.9719 52.868L63.5963 51.236L60.1367 47.6458Z" fill="#F5F5F5"/>
<path d="M63.9258 45.3611L60.6309 47.1562L64.2552 50.9097L67.8796 49.2778L63.9258 45.3611Z" fill="#F5F5F5"/>
<path d="M68.2092 43.4026L64.9143 45.1977L68.5387 48.9512L72.1631 47.3193L68.2092 43.4026Z" fill="#F5F5F5"/>
<path d="M71.3393 42.2603L70.5156 42.7498L73.9753 46.5033L77.5996 44.545L75.9522 42.7498L73.481 44.2186L71.3393 42.2603Z" fill="#F5F5F5"/>
</g>
<path d="M126 61C126 72.0457 117.046 81 106 81C94.9543 81 86 72.0457 86 61C86 49.9543 94.9543 41 106 41C117.046 41 126 49.9543 126 61ZM90.9964 61C90.9964 69.2863 97.7137 76.0036 106 76.0036C114.286 76.0036 121.004 69.2863 121.004 61C121.004 52.7137 114.286 45.9964 106 45.9964C97.7137 45.9964 90.9964 52.7137 90.9964 61Z" fill="#A1A1AA"/>
<path d="M120.243 71L132.263 83.0208C133.435 84.1924 133.435 86.0919 132.263 87.2635C131.092 88.435 129.192 88.435 128.021 87.2635L116 75.2426L120.243 71Z" fill="#A1A1AA"/>
<path d="M41.1524 140.297C43.2774 140.297 44.8086 142.234 44.8242 145.281C44.8086 148.352 43.2774 150.281 41.1524 150.281C39.0039 150.281 37.4727 148.352 37.4805 145.281C37.4727 142.234 39.0039 140.297 41.1524 140.297ZM39.1524 145.281C39.1446 147.453 39.9649 148.711 41.1524 148.719C42.3477 148.711 43.1446 147.453 43.1524 145.281C43.1446 143.125 42.3477 141.859 41.1524 141.859C39.9649 141.859 39.1446 143.125 39.1524 145.281ZM46.6836 153.391V139.266H48.418V144.688H50.5899V146.156H48.418V153.391H46.6836ZM56.495 141.719C56.495 143.461 57.6981 145.203 59.9481 145.906L59.0575 147.25C57.4559 146.734 56.2919 145.672 55.6434 144.328C55.0106 145.789 53.8075 146.953 52.1356 147.516L51.245 146.172C53.5184 145.406 54.7294 143.57 54.745 141.719V141.547H51.6981V140.156H59.4637V141.547H56.495V141.719ZM53.2606 149.844V148.438H62.9012V153.391H61.1512V149.844H53.2606ZM61.1512 147.781V139.266H62.9012V147.781H61.1512ZM80.4303 139.281V149.594H78.6803V139.281H80.4303ZM68.6803 146.266C70.9693 145.461 72.1412 143.469 72.1334 141.438V140.062H73.9303V141.438C73.9224 143.406 75.0787 145.266 77.3209 146.016L76.4303 147.391C74.8209 146.828 73.6724 145.703 73.0474 144.258C72.4224 145.805 71.2506 147.039 69.5865 147.641L68.6803 146.266ZM71.0865 153.109V148.609H72.8365V151.703H80.8209V153.109H71.0865ZM84.6479 139.891V141.688H87.9447V139.891H89.6635V146.047H82.9291V139.891H84.6479ZM84.351 148.422V147.062H93.5854V150.766H86.0854V151.891H94.0229V153.266H84.3666V149.5H91.851V148.422H84.351ZM84.6479 144.672H87.9447V143H84.6479V144.672ZM91.851 146.5V139.266H93.5854V142.125H95.5541V143.531H93.5854V146.5H91.851ZM101.287 141.812C101.287 143.539 102.405 145.164 104.615 145.844L103.787 147.203C102.201 146.703 101.076 145.695 100.459 144.422C99.8342 145.906 98.6467 147.086 96.9436 147.656L96.0686 146.281C98.3421 145.539 99.5374 143.703 99.5374 141.828V141.656H96.553V140.25H104.225V141.656H101.287V141.812ZM97.9905 150.672C97.9905 148.984 99.8186 148 102.772 148C105.701 148 107.498 148.984 107.506 150.672C107.498 152.375 105.701 153.375 102.772 153.375C99.8186 153.375 97.9905 152.375 97.9905 150.672ZM99.7249 150.672C99.7249 151.547 100.834 152.008 102.772 152.016C104.701 152.008 105.787 151.547 105.787 150.672C105.787 149.812 104.701 149.359 102.772 149.359C100.834 149.359 99.7249 149.812 99.7249 150.672ZM105.631 147.688V139.266H107.365V142.656H109.334V144.078H107.365V147.688H105.631ZM122.192 139.266V153.391H120.521V139.266H122.192ZM110.146 145.375C110.146 142.266 111.349 140.336 113.192 140.344C114.903 140.336 116.067 141.938 116.271 144.578H117.63V139.516H119.286V152.703H117.63V145.984H116.286C116.122 148.742 114.942 150.43 113.192 150.422C111.349 150.43 110.146 148.492 110.146 145.375ZM111.755 145.375C111.747 147.586 112.294 148.773 113.192 148.766C114.13 148.773 114.685 147.586 114.692 145.375C114.685 143.172 114.13 141.977 113.192 141.984C112.294 141.977 111.747 143.172 111.755 145.375ZM20.5302 165.812V167.234H7.63956V165.812H20.5302ZM9.13956 170.781C9.13956 169.141 10.9911 168.211 14.0614 168.219C17.1083 168.211 18.9443 169.141 18.9521 170.781C18.9443 172.445 17.1083 173.375 14.0614 173.375C10.9911 173.375 9.13956 172.445 9.13956 170.781ZM9.21769 164.703V159.719H18.9677V161.125H10.9521V163.312H19.0458V164.703H9.21769ZM10.9052 170.781C10.8974 171.617 12.0068 172.031 14.0614 172.031C16.0849 172.031 17.2021 171.617 17.2177 170.781C17.2021 169.984 16.0849 169.547 14.0614 169.547C12.0068 169.547 10.8974 169.984 10.9052 170.781ZM34.3103 166.906V168.312H21.4041V166.906H26.9978V165.734H23.0447V161.984H30.9822V160.938H22.9978V159.578H32.7166V163.25H24.7634V164.375H32.9978V165.734H28.7166V166.906H34.3103ZM22.8416 170.578V169.203H32.7947V173.297H31.0447V170.578H22.8416ZM46.3404 159.281V163.719H48.3092V165.156H46.3404V169.828H44.6061V159.281H46.3404ZM35.2154 162.234V160.844H38.5436V159.266H40.2779V160.844H43.5904V162.234H35.2154ZM35.9342 165.516C35.9342 163.891 37.3483 162.812 39.4029 162.812C41.442 162.812 42.8483 163.891 42.8561 165.516C42.8483 167.133 41.442 168.188 39.4029 168.188C37.3483 168.188 35.9342 167.133 35.9342 165.516ZM37.2936 173.109V169H39.0279V171.703H46.9029V173.109H37.2936ZM37.6217 165.516C37.6139 166.367 38.3326 166.852 39.4029 166.844C40.4733 166.852 41.1998 166.367 41.1998 165.516C41.1998 164.656 40.4733 164.156 39.4029 164.156C38.3326 164.156 37.6139 164.656 37.6217 165.516ZM64.4944 159.281V169.594H62.7444V159.281H64.4944ZM52.7444 166.266C55.0335 165.461 56.2054 163.469 56.1976 161.438V160.062H57.9944V161.438C57.9866 163.406 59.1429 165.266 61.3851 166.016L60.4944 167.391C58.8851 166.828 57.7366 165.703 57.1116 164.258C56.4866 165.805 55.3148 167.039 53.6507 167.641L52.7444 166.266ZM55.1507 173.109V168.609H56.9007V171.703H64.8851V173.109H55.1507ZM68.7121 159.891V161.688H72.0089V159.891H73.7277V166.047H66.9933V159.891H68.7121ZM68.4152 168.422V167.062H77.6496V170.766H70.1496V171.891H78.0871V173.266H68.4308V169.5H75.9152V168.422H68.4152ZM68.7121 164.672H72.0089V163H68.7121V164.672ZM75.9152 166.5V159.266H77.6496V162.125H79.6183V163.531H77.6496V166.5H75.9152ZM92.0391 159.266V173.406H90.2891V159.266H92.0391ZM80.7422 165.281C80.7344 162.234 82.2891 160.297 84.4297 160.297C86.5469 160.297 88.1094 162.234 88.1172 165.281C88.1094 168.352 86.5469 170.281 84.4297 170.281C82.2891 170.281 80.7344 168.352 80.7422 165.281ZM82.4141 165.281C82.4141 167.453 83.2344 168.711 84.4297 168.719C85.6172 168.711 86.4297 167.453 86.4297 165.281C86.4297 163.125 85.6172 161.859 84.4297 161.859C83.2344 161.859 82.4141 163.125 82.4141 165.281ZM101.021 167.531V169.047H102.881V167.531H104.49V172.016C106.154 171.312 106.912 169.898 106.912 168.547V167.422H108.646V168.547C108.638 170.008 109.404 171.438 111.146 172.031L110.256 173.328C109.006 172.875 108.209 172.023 107.763 170.953C107.295 171.992 106.49 172.859 105.318 173.328L104.49 172.102V173.219H99.3962V167.531H101.021ZM98.0056 163.125C98.0056 161.195 99.5759 159.836 101.74 159.844C103.56 159.836 104.998 160.859 105.357 162.391H107.912V159.266H109.646V166.75H107.912V163.828H105.365C105.021 165.398 103.576 166.438 101.74 166.438C99.5759 166.438 98.0056 165.086 98.0056 163.125ZM99.6618 163.125C99.6618 164.266 100.521 165.016 101.74 165.016C102.927 165.016 103.779 164.266 103.787 163.125C103.779 162.008 102.927 161.273 101.74 161.281C100.521 161.273 99.6618 162.008 99.6618 163.125ZM101.021 171.891H102.881V170.344H101.021V171.891ZM114.864 167.734V169.078H121.083V167.734H122.817V173.219H113.145V167.734H114.864ZM111.598 166.938V165.516H124.473V166.938H111.598ZM112.254 163.406C115.208 163.039 117.137 161.523 117.145 159.953V159.422H118.926V159.953C118.926 161.477 120.864 163.062 123.786 163.406L123.176 164.781C120.809 164.461 118.942 163.406 118.036 161.977C117.122 163.414 115.247 164.461 112.895 164.781L112.254 163.406ZM114.864 171.844H121.083V170.406H114.864V171.844ZM137.16 159.266V173.391H135.441V159.266H137.16ZM126.191 169.844V160.641H127.91V168.359C129.886 168.328 131.995 168.156 134.175 167.719L134.394 169.172C131.91 169.688 129.605 169.852 127.41 169.844H126.191ZM150.221 159.266V164.625H152.393V166.047H150.221V173.406H148.487V159.266H150.221ZM139.737 169.953V160.609H146.346V162.016H141.471V168.5C143.666 168.492 145.408 168.383 147.346 168.047L147.549 169.516C145.354 169.891 143.455 169.953 140.908 169.953H139.737ZM154.657 172.125C153.985 172.125 153.431 171.578 153.439 170.906C153.431 170.25 153.985 169.711 154.657 169.703C155.306 169.711 155.86 170.25 155.86 170.906C155.86 171.578 155.306 172.125 154.657 172.125Z" fill="black"/>
<path d="M27.0108 196.967V205.881H25.9444V196.967H27.0108ZM17.0987 203.283C18.9375 202.565 20.1885 200.788 20.1885 198.867V197.65H21.2823V198.867C21.2686 200.72 22.5332 202.381 24.3448 203.037L23.7842 203.898C22.376 203.358 21.2823 202.265 20.7422 200.863C20.2159 202.354 19.1084 203.55 17.6866 204.117L17.0987 203.283ZM19.1631 208.848V205.061H20.2295V207.945H27.3936V208.848H19.1631ZM32.3008 197.896C33.9551 197.903 35.1514 199.325 35.3155 201.602H38.043V196.953H39.1094V209.135H38.043V202.49H35.3291C35.2129 204.876 33.9961 206.366 32.3008 206.359C30.503 206.366 29.2452 204.726 29.252 202.135C29.2452 199.551 30.503 197.903 32.3008 197.896ZM30.2774 202.135C30.2842 204.11 31.1045 205.409 32.3008 205.402C33.4903 205.409 34.3243 204.11 34.3243 202.135C34.3243 200.159 33.4903 198.86 32.3008 198.854C31.1045 198.86 30.2842 200.159 30.2774 202.135ZM43.6338 197.445V198.99H49.6494V197.445H50.7159V202.299H47.1612V203.598H52.1651V204.486H41.0909V203.598H46.0948V202.299H42.5674V197.445H43.6338ZM42.5264 208.848V205.457H43.6065V207.945H50.9346V208.848H42.5264ZM43.6338 201.438H49.6494V199.838H43.6338V201.438ZM66.6553 196.967V205.881H65.5889V196.967H66.6553ZM56.7432 203.283C58.582 202.565 59.833 200.788 59.833 198.867V197.65H60.9268V198.867C60.9131 200.72 62.1777 202.381 63.9893 203.037L63.4287 203.898C62.0205 203.358 60.9268 202.265 60.3867 200.863C59.8604 202.354 58.7529 203.55 57.3311 204.117L56.7432 203.283ZM58.8076 208.848V205.061H59.874V207.945H67.0381V208.848H58.8076ZM70.25 197.473V199.223H73.791V197.473H74.8574V202.764H69.1973V197.473H70.25ZM70.25 201.889H73.791V200.057H70.25V201.889ZM70.4277 204.678V203.816H78.1797V206.756H71.5078V208.096H78.6309V208.971H70.4551V205.936H77.1133V204.678H70.4277ZM77.1133 203.242V196.953H78.1797V199.592H80.0117V200.494H78.1797V203.242H77.1133ZM86.2725 197.172C88.9727 197.172 90.5586 197.917 90.5654 199.264C90.5586 200.645 88.9727 201.39 86.2725 201.396C83.5586 201.39 81.9658 200.645 81.9658 199.264C81.9658 197.917 83.5586 197.172 86.2725 197.172ZM80.7354 203.092V202.217H91.8096V203.092H80.7354ZM82.0752 204.965V204.145H90.3877V206.865H83.1689V208.123H90.7568V208.971H82.1025V206.072H89.335V204.965H82.0752ZM83.0869 199.264C83.0732 200.111 84.2559 200.576 86.2725 200.576C88.2891 200.576 89.4648 200.111 89.4717 199.264C89.4648 198.464 88.2891 197.985 86.2725 197.979C84.2559 197.985 83.0732 198.464 83.0869 199.264ZM107.353 202.736V203.639H96.2646V202.736H107.353ZM97.6045 206.893C97.5976 205.498 99.1767 204.705 101.802 204.705C104.406 204.705 105.972 205.498 105.985 206.893C105.972 208.301 104.406 209.08 101.802 209.08C99.1767 209.08 97.5976 208.301 97.6045 206.893ZM97.6728 201.574V197.445H105.972V198.348H98.7256V200.699H106.054V201.574H97.6728ZM98.6982 206.893C98.6846 207.747 99.8535 208.232 101.802 208.232C103.729 208.232 104.898 207.747 104.905 206.893C104.898 206.045 103.729 205.553 101.802 205.539C99.8535 205.553 98.6846 206.045 98.6982 206.893ZM119.437 203.652V204.541H108.309V203.652H113.34V202.367H109.758V199.4H116.922V198.143H109.717V197.268H118.002V200.207H110.824V201.506H118.262V202.367H114.393V203.652H119.437ZM109.553 206.346V205.471H118.07V208.998H116.99V206.346H109.553ZM129.786 196.953V201.971H131.823V202.859H129.786V209.107H128.72V196.953H129.786ZM120.311 199.797V198.908H123.442V197.104H124.509V198.908H127.544V199.797H120.311ZM121.009 203.598C121.002 201.957 122.26 200.809 123.989 200.809C125.705 200.809 126.956 201.957 126.97 203.598C126.956 205.245 125.705 206.387 123.989 206.387C122.26 206.387 121.002 205.245 121.009 203.598ZM122.034 203.598C122.027 204.705 122.854 205.484 123.989 205.471C125.11 205.484 125.931 204.705 125.944 203.598C125.931 202.497 125.11 201.704 123.989 201.711C122.854 201.704 122.027 202.497 122.034 203.598ZM142.186 198.184V199.4C142.172 200.891 142.172 202.559 141.734 205.006L140.641 204.883C141.099 202.559 141.099 200.856 141.105 199.4V199.072H133.613V198.184H142.186ZM132.437 207.385V206.496H136.785V202.148H137.838V206.496H143.512V207.385H132.437ZM9.35504 220.115V221.018H4.85699V227.211C7.05133 227.218 8.49371 227.143 10.1754 226.814L10.3121 227.703C8.52106 228.045 7.03766 228.127 4.7066 228.127H3.77692V220.115H9.35504ZM8.63043 224.271V223.383H12.1714V218.953H13.2515V231.135H12.1714V224.271H8.63043ZM22.8062 222.686C22.7925 224.634 24.2007 226.78 25.9644 227.621L25.3492 228.469C23.982 227.799 22.8267 226.363 22.2798 224.716C21.7193 226.5 20.5025 228.072 19.1421 228.77L18.4859 227.922C20.2359 227.067 21.7398 224.757 21.7535 222.686V221.1H18.9234V220.211H25.5406V221.1H22.8062V222.686ZM27.0308 231.107V218.953H28.0972V223.875H30.1343V224.791H28.0972V231.107H27.0308ZM34.3579 222.412C34.3579 224.347 35.3013 226.432 36.9146 227.389L36.2994 228.223C35.1236 227.512 34.2828 226.213 33.8589 224.729C33.4146 226.35 32.5122 227.744 31.2954 228.482L30.6119 227.676C32.2935 226.691 33.3189 224.538 33.3189 222.453V220.102H34.3579V222.412ZM35.5747 224.23V223.314H37.6392V219.213H38.6509V230.492H37.6392V224.23H35.5747ZM40.1275 231.107V218.953H41.1665V231.107H40.1275ZM52.3081 218.967V222.973H54.1402V223.875H52.3081V228.072H51.2417V218.967H52.3081ZM42.8335 221.332V220.457H45.9234V218.967H46.9898V220.457H50.0796V221.332H42.8335ZM43.5308 224.271C43.524 222.891 44.6997 222.002 46.4566 222.002C48.1929 222.002 49.3687 222.891 49.3824 224.271C49.3687 225.639 48.1929 226.521 46.4566 226.514C44.6997 226.521 43.524 225.639 43.5308 224.271ZM44.5562 224.271C44.5493 225.126 45.3081 225.68 46.4566 225.666C47.5913 225.68 48.357 225.126 48.3706 224.271C48.357 223.403 47.5913 222.843 46.4566 222.85C45.3081 222.843 44.5493 223.403 44.5562 224.271ZM44.7066 230.848V227.348H45.7593V229.945H52.8687V230.848H44.7066ZM69.4097 226.309V227.211H64.3921V231.135H63.3394V227.211H58.3355V226.309H69.4097ZM59.0327 224.504C61.1997 224.21 63.3325 222.884 63.3394 221.359V221.346H59.4155V220.471H63.3394V218.953H64.3921V220.471H68.3433V221.346H64.4058V221.359C64.4058 222.877 66.5249 224.21 68.6987 224.504L68.3023 225.365C66.4224 225.078 64.6519 224.135 63.8794 222.815C63.1069 224.148 61.3091 225.078 59.4292 225.365L59.0327 224.504ZM74.5357 221.865C74.5425 223.485 75.8208 224.894 77.6255 225.461L77.0923 226.322C75.6909 225.864 74.5767 224.9 74.0298 223.649C73.5034 224.989 72.396 226.028 70.9673 226.527L70.4341 225.693C72.2319 225.092 73.4761 223.581 73.4829 221.865V221.469H70.7349V220.594H73.4829V219.035H74.563V220.594H77.2837V221.469H74.5357V221.865ZM72.6626 230.848V227.225H73.7427V229.945H80.811V230.848H72.6626ZM76.8599 223.602V222.713H79.3892V218.967H80.4692V228.045H79.3892V223.602H76.8599ZM87.9878 219.172C90.688 219.172 92.2739 219.917 92.2808 221.264C92.2739 222.645 90.688 223.39 87.9878 223.396C85.2739 223.39 83.6812 222.645 83.6812 221.264C83.6812 219.917 85.2739 219.172 87.9878 219.172ZM82.4507 225.092V224.217H93.5249V225.092H82.4507ZM83.7905 226.965V226.145H92.103V228.865H84.8843V230.123H92.4722V230.971H83.8179V228.072H91.0503V226.965H83.7905ZM84.8022 221.264C84.7886 222.111 85.9712 222.576 87.9878 222.576C90.0044 222.576 91.1802 222.111 91.187 221.264C91.1802 220.464 90.0044 219.985 87.9878 219.979C85.9712 219.985 84.7886 220.464 84.8022 221.264ZM107.482 218.953V221.893H109.314V222.795H107.482V226.062H106.416V218.953H107.482ZM98.4995 225.297V219.65H99.5522V221.51H103.093V219.65H104.16V225.297H98.4995ZM99.5522 224.436H103.093V222.371H99.5522V224.436ZM99.853 230.943V226.746H107.578V227.607H100.919V230.068H107.81V230.943H99.853ZM113.291 219.896C115.082 219.903 116.354 221.551 116.368 224.135C116.354 226.726 115.082 228.366 113.291 228.359C111.487 228.366 110.222 226.726 110.229 224.135C110.222 221.551 111.487 219.903 113.291 219.896ZM111.241 224.135C111.248 226.11 112.088 227.409 113.291 227.402C114.508 227.409 115.329 226.11 115.329 224.135C115.329 222.159 114.508 220.86 113.291 220.854C112.088 220.86 111.248 222.159 111.241 224.135ZM118.377 231.107V218.953H119.444V223.807H121.481V224.736H119.444V231.107H118.377ZM133.224 228.66V229.549H122.095V228.66H127.099V226.035H123.408V219.814H124.488V222.016H130.804V219.814H131.857V226.035H128.152V228.66H133.224ZM124.488 225.16H130.804V222.891H124.488V225.16ZM137.762 222.412C137.762 224.347 138.706 226.432 140.319 227.389L139.704 228.223C138.528 227.512 137.687 226.213 137.263 224.729C136.819 226.35 135.916 227.744 134.7 228.482L134.016 227.676C135.698 226.691 136.723 224.538 136.723 222.453V220.102H137.762V222.412ZM138.979 224.23V223.314H141.043V219.213H142.055V230.492H141.043V224.23H138.979ZM143.532 231.107V218.953H144.571V231.107H143.532ZM157.339 228.646V229.549H146.21V228.646H148.972V225.372C147.933 224.832 147.304 223.957 147.304 222.85C147.304 220.97 149.15 219.732 151.748 219.719C154.345 219.732 156.191 220.97 156.191 222.85C156.191 223.937 155.582 224.798 154.578 225.338V228.646H157.339ZM148.343 222.85C148.336 224.21 149.751 225.119 151.748 225.119C153.723 225.119 155.152 224.21 155.152 222.85C155.152 221.489 153.723 220.594 151.748 220.607C149.751 220.594 148.336 221.489 148.343 222.85ZM150.025 228.646H153.498V225.755C152.971 225.892 152.383 225.967 151.748 225.967C151.125 225.967 150.544 225.898 150.025 225.762V228.646ZM159.553 230.082C159.075 230.075 158.664 229.679 158.678 229.193C158.664 228.715 159.075 228.318 159.553 228.318C160.039 228.318 160.435 228.715 160.428 229.193C160.435 229.679 160.039 230.075 159.553 230.082Z" fill="#808080"/>
</svg>
