<svg width="343" height="104" viewBox="0 0 343 104" fill="none" xmlns="http://www.w3.org/2000/svg">
<mask id="path-1-inside-1_225_2250" fill="white">
<path d="M0 0H343V104H0V0Z"/>
</mask>
<path d="M0 0H343V104H0V0Z" fill="white"/>
<path d="M0 0V-1H-1V0H0ZM343 0H344V-1H343V0ZM0 1H343V-1H0V1ZM342 0V104H344V0H342ZM1 104V0H-1V104H1Z" fill="#E4E4E7" mask="url(#path-1-inside-1_225_2250)"/>
<rect width="64" height="64" transform="translate(16 20)" fill="white"/>
<path d="M44.1828 50.1008C43.0046 48.9317 43.0047 46.5934 43.0047 45.4242C43.0047 45.4242 38.4462 46.6066 35.4656 47.0242C32.5705 47.4298 27.9989 47.5575 27.9989 47.5575C28.3093 49.4472 28.8669 51.8618 28.8669 52.4392C28.8669 54.7775 28.8667 55.9466 27.6886 57.1158C26.5104 58.285 25.3323 60.3473 25.3323 62.9616C25.3323 66.4691 27.6886 68.8074 31.2232 68.8074C35.9358 68.8074 38.2921 66.4691 43.0046 66.4691C47.7172 66.4691 52.4295 68.8074 55.964 68.8074H66.5672C70.3373 68.8074 70.1012 66.4691 70.1014 65.2999C70.1017 64.1308 68.4523 61.7924 66.5672 61.7924H61.8547C59.4984 61.7924 45.3609 51.27 44.1828 50.1008Z" fill="#F5F5F5"/>
<path d="M67.0931 62.042H62.3317C56.9343 62.3771 49.1398 61.8329 43.2866 61.1024C39.4405 60.6218 34.5928 61.1027 34.0519 61.1024C23.112 59.5555 25.6109 62.1432 25.4313 63.1832C25.4313 66.6066 27.8119 68.8889 31.3832 68.8889C36.1446 68.8889 38.5252 66.6066 43.2866 66.6066C48.0479 66.6066 52.809 68.8889 56.38 68.8889H67.0931C70.9022 68.8889 70.6636 66.6066 70.6638 65.4655C70.6641 64.3243 68.9976 62.042 67.0931 62.042Z" fill="#93C5FD"/>
<path d="M42.7451 32.6246H27.8227C27.0981 32.6246 26.5093 33.2112 26.5333 33.9354C26.7746 41.223 28.8669 50.7376 28.8669 52.5004C28.8669 54.8387 28.8667 56.0079 27.6886 57.177C26.5104 58.3462 25.3323 60.4085 25.3323 63.0228C25.3323 66.5303 27.6886 68.8686 31.2232 68.8686C35.9358 68.8686 38.2921 66.5303 43.0046 66.5303C47.7172 66.5303 52.4295 68.8686 55.964 68.8686H66.5672C70.3373 68.8686 70.1012 66.5303 70.1014 65.3611C70.1017 64.192 68.4523 61.8537 66.5672 61.8537H61.8547C59.4984 61.8537 45.3609 51.3312 44.1828 50.1621C43.0046 48.9929 43.0047 46.6546 43.0047 45.4854L44.0516 34.0563C44.122 33.2877 43.517 32.6246 42.7451 32.6246Z" stroke="black" stroke-width="0.888889"/>
<path d="M26.9353 36.3588H44.002" stroke="black" stroke-width="0.888889" stroke-linecap="round" stroke-linejoin="round"/>
<path d="M53.2404 49.8115L52.8507 45.3029" stroke="black" stroke-width="1.06667"/>
<path d="M58.1371 53.9296L62.6458 53.5398" stroke="black" stroke-width="1.06667"/>
<path d="M56.2359 50.9369L59.6683 46.8549" stroke="black" stroke-width="1.06667"/>
<path d="M108.078 21.375V29.6562H106.844V26.0156H104.047V25H106.844V21.375H108.078ZM96.625 28.5469C98.6875 27.8047 100.156 25.9219 100.156 23.9375V23.4219H97.0156V22.3906H104.5V23.4219H101.391V23.9219C101.391 25.7344 102.781 27.4609 104.812 28.1562L104.172 29.1406C102.617 28.5781 101.406 27.4062 100.805 25.9766C100.211 27.6016 98.9219 28.8984 97.2656 29.5312L96.625 28.5469ZM98.8125 32.6719C98.8047 31.0391 100.578 30.0859 103.469 30.0938C106.352 30.0859 108.125 31.0391 108.125 32.6719C108.125 34.3125 106.352 35.25 103.469 35.2656C100.578 35.25 98.8047 34.3125 98.8125 32.6719ZM100.031 32.6719C100.023 33.6797 101.336 34.2891 103.469 34.2812C105.594 34.2891 106.906 33.6797 106.906 32.6719C106.906 31.6562 105.594 31.0469 103.469 31.0469C101.336 31.0469 100.023 31.6562 100.031 32.6719ZM121.186 21.3906V25.5938H123.264V26.625H121.186V30.7031H119.952V21.3906H121.186ZM110.28 29.2812C111.389 29.2812 112.686 29.2812 114.046 29.2422V28.2188C112.429 28.0703 111.382 27.3281 111.389 26.1719C111.382 24.9062 112.686 24.125 114.639 24.125C116.608 24.125 117.889 24.9062 117.905 26.1719C117.889 27.3203 116.874 28.0625 115.264 28.2188V29.1953C116.561 29.1328 117.874 29.0234 119.093 28.8438L119.202 29.7344C116.186 30.2656 112.866 30.2891 110.421 30.2812L110.28 29.2812ZM110.624 23.5938V22.6562H114.046V21.2656H115.264V22.6562H118.671V23.5938H110.624ZM111.983 32.375V31.3906H121.186V35.2656H119.952V32.375H111.983ZM112.561 26.1719C112.554 26.8984 113.358 27.3906 114.639 27.375C115.921 27.3906 116.733 26.8984 116.733 26.1719C116.733 25.4375 115.921 24.9844 114.639 25C113.358 24.9844 112.554 25.4375 112.561 26.1719ZM134.982 21.3906V25.9688H137.076V27H134.982V31.7969H133.763V21.3906H134.982ZM124.154 24.0938V23.0938H127.685V21.3906H128.904V23.0938H132.435V24.0938H124.154ZM124.951 27.4531C124.943 25.875 126.287 24.8594 128.295 24.8594C130.279 24.8594 131.623 25.875 131.638 27.4531C131.623 29.0156 130.279 30.0234 128.295 30.0156C126.287 30.0234 124.943 29.0156 124.951 27.4531ZM126.123 27.4531C126.115 28.4297 126.982 29.0625 128.295 29.0469C129.591 29.0625 130.466 28.4297 130.482 27.4531C130.466 26.4609 129.591 25.8203 128.295 25.8281C126.982 25.8203 126.115 26.4609 126.123 27.4531ZM126.295 34.9688V30.9688H127.498V33.9375H135.623V34.9688H126.295ZM150.011 22.5938V23.6094H148.605V27.75C149.324 27.6953 150.027 27.6328 150.699 27.5469L150.792 28.4531C147.941 28.9297 144.613 28.9609 142.261 28.9688L142.105 27.9219C142.652 27.9219 143.253 27.9297 143.886 27.9219V23.6094H142.495V22.5938H150.011ZM143.48 34.25C145.949 33.8125 148.183 32.3281 148.183 30.3125V30.0312H149.464V30.3125C149.449 32.3281 151.683 33.8125 154.136 34.25L153.652 35.2031C151.566 34.8125 149.636 33.7188 148.824 32.0781C147.995 33.7188 146.058 34.8125 143.995 35.2031L143.48 34.25ZM145.074 27.9062C145.839 27.8906 146.628 27.8594 147.417 27.8203V23.6094H145.074V27.9062ZM152.12 30.7344V21.375H153.339V30.7344H152.12ZM161.979 21.625C165.065 21.625 166.877 22.4766 166.885 24.0156C166.877 25.5938 165.065 26.4453 161.979 26.4531C158.877 26.4453 157.057 25.5938 157.057 24.0156C157.057 22.4766 158.877 21.625 161.979 21.625ZM155.651 28.3906V27.3906H168.307V28.3906H155.651ZM157.182 30.5312V29.5938H166.682V32.7031H158.432V34.1406H167.104V35.1094H157.213V31.7969H165.479V30.5312H157.182ZM158.338 24.0156C158.322 24.9844 159.674 25.5156 161.979 25.5156C164.283 25.5156 165.627 24.9844 165.635 24.0156C165.627 23.1016 164.283 22.5547 161.979 22.5469C159.674 22.5547 158.322 23.1016 158.338 24.0156ZM177.977 22.0625C180.055 22.0469 181.547 23.1953 181.539 24.8906C181.547 26.5859 180.055 27.7422 177.977 27.7344C175.898 27.7422 174.414 26.5859 174.414 24.8906C174.414 23.1953 175.898 22.0469 177.977 22.0625ZM173.367 28.9219C175.977 28.9297 179.547 28.875 182.633 28.4219L182.711 29.3438C181.383 29.5859 180.008 29.7344 178.664 29.8203V34.8438H177.445V29.8906C176.031 29.9531 174.695 29.9609 173.539 29.9688L173.367 28.9219ZM175.617 24.8906C175.602 25.9766 176.594 26.7266 177.977 26.7188C179.375 26.7266 180.375 25.9766 180.367 24.8906C180.375 23.8125 179.375 23.0469 177.977 23.0625C176.594 23.0469 175.602 23.8125 175.617 24.8906ZM183.648 35.2812V21.3906H184.852V35.2812H183.648ZM194.116 23.7812V24.7812H187.147V23.7812H190.038V21.7969H191.257V23.7812H194.116ZM187.647 28.875C187.647 27.0312 188.905 25.7266 190.632 25.7188C192.382 25.7266 193.632 27.0312 193.647 28.875C193.632 30.7422 192.382 32.0547 190.632 32.0625C188.905 32.0547 187.647 30.7422 187.647 28.875ZM188.741 28.875C188.741 30.1094 189.53 30.9922 190.632 30.9844C191.741 30.9922 192.553 30.1094 192.553 28.875C192.553 27.6562 191.741 26.7656 190.632 26.75C189.53 26.7656 188.741 27.6562 188.741 28.875ZM194.835 34.5781V21.7188H195.991V27.2344H197.835V21.375H199.007V35.2656H197.835V28.25H195.991V34.5781H194.835ZM217.848 23.1094V24.125H215.786V25.7031H217.848V26.7188H215.786V28.7031H214.567V21.375H215.786V23.1094H217.848ZM205.192 25.1562C205.184 23.2734 206.715 22 208.801 22C210.895 22 212.411 23.2734 212.411 25.1562C212.411 27.0078 210.895 28.2656 208.801 28.2656C206.715 28.2656 205.184 27.0078 205.192 25.1562ZM206.129 30.4219V29.4844H210.504V32.625H207.364V34.125C208.817 34.1328 209.7 34.1094 210.817 33.875L210.942 34.8125C209.637 35.0703 208.661 35.0859 206.879 35.0781H206.161V31.7188H209.332V30.4219H206.129ZM206.395 25.1562C206.387 26.3906 207.426 27.2812 208.801 27.2812C210.184 27.2812 211.215 26.3906 211.207 25.1562C211.215 23.8906 210.184 23.0156 208.801 23.0156C207.426 23.0156 206.387 23.8906 206.395 25.1562ZM211.364 35.0781V29.3438H212.489V31.125H214.676V29.3438H215.786V35.0781H211.364ZM212.489 34.1094H214.676V32.0781H212.489V34.1094ZM231.363 28.7031V29.7031H218.706V28.7031H231.363ZM220.113 24.625C220.113 22.8828 222.019 21.8594 225.035 21.875C228.019 21.8594 229.933 22.8828 229.941 24.625C229.933 26.3516 228.019 27.3906 225.035 27.3906C222.019 27.3906 220.113 26.3516 220.113 24.625ZM220.347 34.9688V30.9219H221.581V33.9375H229.956V34.9688H220.347ZM221.378 24.625C221.37 25.7266 222.792 26.3906 225.035 26.3906C227.261 26.3906 228.683 25.7266 228.691 24.625C228.683 23.5391 227.261 22.8594 225.035 22.8594C222.792 22.8594 221.37 23.5391 221.378 24.625ZM248.345 21.375V35.2656H247.157V28.0312H245.22V34.5781H244.064V21.7188H245.22V27.0156H247.157V21.375H248.345ZM236.548 31.5156C238.728 30.3359 240.017 28.8594 240.712 27.1953L236.735 27.6094L236.548 26.5312L241.048 26.2344C241.243 25.5391 241.353 24.8203 241.399 24.0781H237.235V23.0625H242.626C242.61 26.6484 241.517 30.0781 237.282 32.3906L236.548 31.5156ZM257.25 23.3438C257.242 25.2031 259.719 26.7812 262.141 27.1406L261.687 28.1094C259.523 27.7422 257.406 26.5859 256.562 24.9141C255.719 26.5859 253.601 27.7422 251.469 28.1094L250.984 27.1406C253.398 26.7812 255.867 25.2031 255.875 23.3438V23.25H251.422V22.25H261.687V23.25H257.25V23.3438ZM250.234 30.3125V29.2969H262.891V30.3125H257.141V35.2656H255.937V30.3125H250.234ZM275.514 21.375V28.4531H274.296V25.5H271.397C271.139 27.1016 269.717 28.1797 267.842 28.1719C265.749 28.1797 264.225 26.875 264.233 25C264.225 23.1484 265.749 21.8672 267.842 21.875C269.702 21.8672 271.116 22.9062 271.389 24.4688H274.296V21.375H275.514ZM265.405 25C265.405 26.2656 266.421 27.1641 267.842 27.1562C269.217 27.1641 270.249 26.2656 270.249 25C270.249 23.7656 269.217 22.875 267.842 22.8906C266.421 22.875 265.405 23.7656 265.405 25ZM266.514 30.2031V29.2188H275.514V32.5469H267.764V34.0938H276.046V35.0781H266.546V31.6094H274.296V30.2031H266.514ZM294.684 23.4844V24.5H292.622V26.4375H294.684V27.4688H292.622V29.625H291.403V21.375H292.622V23.4844H294.684ZM282.028 25.4844C282.02 23.5469 283.567 22.2109 285.668 22.2188C287.786 22.2109 289.309 23.5469 289.325 25.4844C289.309 27.4141 287.786 28.7422 285.668 28.75C283.567 28.7422 282.02 27.4141 282.028 25.4844ZM283.231 25.4844C283.223 26.7969 284.262 27.7031 285.668 27.7188C287.09 27.7031 288.114 26.7969 288.122 25.4844C288.114 24.1797 287.09 23.25 285.668 23.2656C284.262 23.25 283.223 24.1797 283.231 25.4844ZM283.559 32.6562C283.567 31.0078 285.332 30.0547 288.168 30.0469C291.004 30.0547 292.747 31.0078 292.747 32.6562C292.747 34.2734 291.004 35.2344 288.168 35.2344C285.332 35.2344 283.567 34.2734 283.559 32.6562ZM284.793 32.6562C284.778 33.6562 286.075 34.2422 288.168 34.25C290.27 34.2422 291.551 33.6562 291.559 32.6562C291.551 31.6484 290.27 31.0469 288.168 31.0469C286.075 31.0469 284.778 31.6484 284.793 32.6562ZM306.402 21.375V24.3906H308.495V25.4219H306.402V28.4531H305.183V21.375H306.402ZM296.136 27.7188V22.1719H302.558V27.7188H296.136ZM297.339 26.7344H301.37V23.1719H297.339V26.7344ZM297.542 30.0938V29.1094H306.402V32.5H298.777V34.0938H306.917V35.0781H297.574V31.5625H305.183V30.0938H297.542ZM311.604 32.9531L310.385 37.2031H309.229L310.088 32.9531H311.604ZM107.641 50.5781V51.5625H98.3125V46.2031H107.453V47.2188H99.5625V50.5781H107.641ZM96.5469 54.4062V53.4062H109.266V54.4062H103.469V59.2188H102.266V54.4062H96.5469ZM122.999 52.5156V53.5H117.28V54.9219H121.452V59.0781H111.889V54.9219H116.061V53.5H110.327V52.5156H122.999ZM112.014 51.2969V45.7188H121.421V46.7031H113.249V47.9844H121.046V48.9219H113.249V50.3125H121.499V51.2969H112.014ZM113.108 58.0938H120.249V55.9062H113.108V58.0938ZM134.982 45.3906V49.9688H137.076V51H134.982V55.7969H133.763V45.3906H134.982ZM124.154 48.0938V47.0938H127.685V45.3906H128.904V47.0938H132.435V48.0938H124.154ZM124.951 51.4531C124.943 49.875 126.287 48.8594 128.295 48.8594C130.279 48.8594 131.623 49.875 131.638 51.4531C131.623 53.0156 130.279 54.0234 128.295 54.0156C126.287 54.0234 124.943 53.0156 124.951 51.4531ZM126.123 51.4531C126.115 52.4297 126.982 53.0625 128.295 53.0469C129.591 53.0625 130.466 52.4297 130.482 51.4531C130.466 50.4609 129.591 49.8203 128.295 49.8281C126.982 49.8203 126.115 50.4609 126.123 51.4531ZM126.295 58.9688V54.9688H127.498V57.9375H135.623V58.9688H126.295ZM148.792 47.4219C148.8 49.8047 151.519 51.9219 153.933 52.375L153.37 53.4062C151.269 52.9219 149.066 51.4297 148.167 49.3906C147.261 51.4297 145.066 52.9141 142.964 53.4062L142.402 52.375C144.808 51.9141 147.503 49.8125 147.511 47.4219V46.3594H148.792V47.4219ZM141.87 57.375V56.3594H154.589V57.375H141.87ZM168.369 56.5V57.5469H155.651V56.5H161.354V53.2969H156.807V52.3125H158.979V47.75H156.776V46.7344H167.151V47.75H164.947V52.3125H167.119V53.2969H162.557V56.5H168.369ZM160.197 52.3125H163.744V47.75H160.197V52.3125ZM182.149 56.4531V57.4844H169.431V56.4531H182.149ZM170.212 53.125C172.837 52.6484 175.142 50.9297 175.149 48.625H170.618V47.625H175.165V45.7188H176.368V47.625H180.931V48.625H176.399C176.392 50.9297 178.689 52.6484 181.337 53.125L180.837 54.125C178.642 53.6719 176.642 52.4766 175.767 50.6641C174.899 52.4766 172.892 53.6719 170.696 54.125L170.212 53.125ZM199.85 51.9844V53.0156H187.178V51.9844H199.85ZM188.71 56.7344C188.702 55.1406 190.507 54.2344 193.507 54.2344C196.483 54.2344 198.272 55.1406 198.288 56.7344C198.272 58.3438 196.483 59.2344 193.507 59.2344C190.507 59.2344 188.702 58.3438 188.71 56.7344ZM188.788 50.6562V45.9375H198.272V46.9688H189.991V49.6562H198.366V50.6562H188.788ZM189.96 56.7344C189.944 57.7109 191.28 58.2656 193.507 58.2656C195.71 58.2656 197.046 57.7109 197.053 56.7344C197.046 55.7656 195.71 55.2031 193.507 55.1875C191.28 55.2031 189.944 55.7656 189.96 56.7344ZM217.911 46.9844V48.6094H216.067V50.0781H217.911V51.7188H216.067V53.5312H214.067V45.2188H216.067V46.9844H217.911ZM204.879 49.4375C204.872 47.4141 206.559 45.9922 208.786 46C210.989 45.9922 212.661 47.4141 212.661 49.4375C212.661 51.4453 210.989 52.8828 208.786 52.875C206.559 52.8828 204.872 51.4453 204.879 49.4375ZM206.536 56.6406C206.528 54.8672 208.434 53.8203 211.411 53.8125C214.332 53.8203 216.2 54.8672 216.207 56.6406C216.2 58.3906 214.332 59.4453 211.411 59.4375C208.434 59.4453 206.528 58.3906 206.536 56.6406ZM206.848 49.4375C206.832 50.5469 207.668 51.1953 208.786 51.2031C209.879 51.1953 210.715 50.5469 210.723 49.4375C210.715 48.3438 209.879 47.6641 208.786 47.6719C207.668 47.6641 206.832 48.3438 206.848 49.4375ZM208.536 56.6406C208.52 57.4766 209.543 57.8594 211.411 57.8594C213.254 57.8594 214.239 57.4766 214.239 56.6406C214.239 55.8125 213.254 55.3984 211.411 55.3906C209.543 55.3984 208.52 55.8125 208.536 56.6406ZM229.847 45.2188V47.9688H231.769V49.6094H229.847V52.3281H227.847V45.2188H229.847ZM218.988 51.7969V45.8906H225.816V51.7969H218.988ZM220.41 54.4219V52.8906H229.847V56.7656H222.394V57.7188H230.253V59.2812H220.441V55.3281H227.863V54.4219H220.41ZM220.956 50.2188H223.847V47.4531H220.956V50.2188ZM236.955 46.1719C239.213 46.1641 240.885 47.6172 240.893 49.6562C240.885 51.7031 239.213 53.1484 236.955 53.1562C234.713 53.1484 232.994 51.7031 233.002 49.6562C232.994 47.6172 234.713 46.1641 236.955 46.1719ZM232.408 54.9375C234.947 54.9453 238.463 54.9141 241.502 54.4844L241.658 55.9219C238.502 56.5391 235.127 56.5625 232.643 56.5625L232.408 54.9375ZM234.986 49.6562C234.979 50.7812 235.83 51.4297 236.955 51.4219C238.088 51.4297 238.947 50.7812 238.955 49.6562C238.947 48.5469 238.088 47.8906 236.955 47.8906C235.83 47.8906 234.979 48.5469 234.986 49.6562ZM242.315 59.4688V45.2188H244.299V59.4688H242.315ZM261.234 50.2812V51.8438H251.406V45.9688H261.094V47.5625H253.453V50.2812H261.234ZM249.75 54.8594V53.2812H262.766V54.8594H257.203V59.4219H255.234V54.8594H249.75ZM267.046 46.8438C267.03 50.3984 266.686 53.5781 264.874 56.3906L263.327 55.5781C264.788 53.3672 265.225 51.2031 265.319 48.4531H263.796V46.8438H267.046ZM266.546 56.2656C268.139 53.8438 268.46 51.3359 268.53 48.4531H267.452V46.8438H270.233C270.233 48.0938 270.202 49.3359 270.092 50.5469H271.311V45.5312H273.186V58.8125H271.311V52.1562H269.889C269.592 53.8984 269.053 55.5703 268.061 57.1094L266.546 56.2656ZM274.077 59.4375V45.2188H275.983V59.4375H274.077ZM290.326 51.5938V53.0781H277.31V51.5938H290.326ZM278.794 55.1562V53.7812H288.763V57.1406H280.794V57.9531H289.185V59.3125H278.81V55.875H286.794V55.1562H278.794ZM278.904 46.8281V45.4688H288.748V48.8125H280.919V49.5781H288.998V50.9219H278.935V47.5469H286.748V46.8281H278.904ZM306.12 45.2344V49.2969H307.933V50.9375H306.12V54.8906H304.12V45.2344H306.12ZM294.589 53.0625C295.628 53.0625 296.808 53.0625 298.042 53.0312V52.2344C296.495 52.0156 295.534 51.2578 295.542 50.1719C295.534 48.8516 296.917 48.0391 299.027 48.0469C301.12 48.0391 302.503 48.8516 302.511 50.1719C302.503 51.2578 301.55 52.0078 300.027 52.2266V52.9609C301.199 52.8984 302.37 52.8125 303.464 52.6719L303.605 54.0469C300.597 54.5781 297.3 54.6094 294.792 54.6094L294.589 53.0625ZM294.964 47.7188V46.2656H298.042V45.1094H300.027V46.2656H303.105V47.7188H294.964ZM296.402 57V55.4688H306.12V59.4375H304.12V57H296.402ZM297.449 50.1719C297.441 50.6875 298.011 50.9922 299.027 50.9844C300.027 50.9922 300.597 50.6875 300.605 50.1719C300.597 49.6172 300.027 49.375 299.027 49.375C298.011 49.375 297.441 49.6172 297.449 50.1719ZM320.432 45.2344V55.4531H318.432V45.2344H320.432ZM308.744 49.7188C308.744 47.6328 310.447 46.1328 312.635 46.1406C314.815 46.1328 316.518 47.6328 316.525 49.7188C316.518 51.8359 314.815 53.3281 312.635 53.3281C310.447 53.3281 308.744 51.8359 308.744 49.7188ZM310.697 49.7188C310.682 50.9062 311.518 51.5938 312.635 51.5938C313.713 51.5938 314.549 50.9062 314.557 49.7188C314.549 48.5625 313.713 47.8672 312.635 47.875C311.518 47.8672 310.682 48.5625 310.697 49.7188ZM310.9 59.1875V54.4219H312.916V57.5938H320.807V59.1875H310.9ZM107.312 69.375V75.1094H109.641V76.125H107.312V83.2656H106.094V69.375H107.312ZM96.4844 72.625V71.6094H100.062V69.5469H101.281V71.6094H104.75V72.625H96.4844ZM97.2812 76.9688C97.2734 75.0938 98.7109 73.7812 100.688 73.7812C102.648 73.7812 104.078 75.0938 104.094 76.9688C104.078 78.8516 102.648 80.1562 100.688 80.1562C98.7109 80.1562 97.2734 78.8516 97.2812 76.9688ZM98.4531 76.9688C98.4453 78.2344 99.3906 79.125 100.688 79.1094C101.969 79.125 102.906 78.2344 102.922 76.9688C102.906 75.7109 101.969 74.8047 100.688 74.8125C99.3906 74.8047 98.4453 75.7109 98.4531 76.9688ZM114.468 73.3281C114.468 75.5391 115.546 77.9219 117.389 79.0156L116.686 79.9688C115.343 79.1562 114.382 77.6719 113.897 75.9766C113.389 77.8281 112.358 79.4219 110.968 80.2656L110.186 79.3438C112.108 78.2188 113.28 75.7578 113.28 73.375V70.6875H114.468V73.3281ZM115.858 75.4062V74.3594H118.218V69.6719H119.374V82.5625H118.218V75.4062H115.858ZM121.061 83.2656V69.375H122.249V83.2656H121.061ZM136.841 80.4531V81.4844H124.123V80.4531H127.279V76.7109C126.091 76.0938 125.373 75.0938 125.373 73.8281C125.373 71.6797 127.482 70.2656 130.451 70.25C133.42 70.2656 135.529 71.6797 135.529 73.8281C135.529 75.0703 134.834 76.0547 133.685 76.6719V80.4531H136.841ZM126.56 73.8281C126.552 75.3828 128.17 76.4219 130.451 76.4219C132.709 76.4219 134.341 75.3828 134.341 73.8281C134.341 72.2734 132.709 71.25 130.451 71.2656C128.17 71.25 126.552 72.2734 126.56 73.8281ZM128.482 80.4531H132.451V77.1484C131.849 77.3047 131.177 77.3906 130.451 77.3906C129.74 77.3906 129.076 77.3125 128.482 77.1562V80.4531ZM139.372 82.0938C138.825 82.0859 138.356 81.6328 138.372 81.0781C138.356 80.5312 138.825 80.0781 139.372 80.0781C139.926 80.0781 140.379 80.5312 140.372 81.0781C140.379 81.6328 139.926 82.0859 139.372 82.0938Z" fill="#27272A"/>
</svg>
