<svg width="343" height="104" viewBox="0 0 343 104" fill="none" xmlns="http://www.w3.org/2000/svg">
<mask id="path-1-inside-1_225_2267" fill="white">
<path d="M0 0H343V104H0V0Z"/>
</mask>
<path d="M0 0H343V104H0V0Z" fill="white"/>
<path d="M0 0V-1H-1V0H0ZM343 0H344V-1H343V0ZM0 1H343V-1H0V1ZM342 0V104H344V0H342ZM1 104V0H-1V104H1Z" fill="#E4E4E7" mask="url(#path-1-inside-1_225_2267)"/>
<rect width="64" height="64" transform="translate(16 20)" fill="white"/>
<path d="M63.5555 73.7777L26.6666 44.8888L32.4444 33.3333L68.8889 61.3333L63.5555 73.7777Z" fill="white" stroke="black" stroke-width="0.888889" stroke-linecap="round" stroke-linejoin="round"/>
<path d="M53.7778 50.2223L52 52.889" stroke="black" stroke-width="0.888889" stroke-linecap="round" stroke-linejoin="round"/>
<path d="M56.8889 52.3057L55.5538 54.5281" stroke="black" stroke-width="0.888889" stroke-linecap="round" stroke-linejoin="round"/>
<path d="M62.669 57.3595L61.7785 58.6667" stroke="black" stroke-width="0.888889" stroke-linecap="round" stroke-linejoin="round"/>
<path d="M51.1111 48.4445L50.2222 49.7778" stroke="black" stroke-width="0.888889" stroke-linecap="round" stroke-linejoin="round"/>
<path d="M59.6226 54.7077L58.2217 56.8879" stroke="black" stroke-width="0.888889" stroke-linecap="round" stroke-linejoin="round"/>
<path d="M32.197 33.2075C32.2887 33.013 32.4845 32.8889 32.6995 32.8889H52.645C53.0524 32.8889 53.3213 33.3129 53.1475 33.6814L47.8029 45.0148C47.7112 45.2092 47.5155 45.3333 47.3004 45.3333H27.3549C26.9475 45.3333 26.6787 44.9093 26.8525 44.5408L32.197 33.2075Z" fill="white" stroke="black" stroke-width="0.888889"/>
<path d="M25.9748 61.652C26.0665 61.4575 26.2622 61.3334 26.4773 61.3334H46.4228C46.8302 61.3334 47.099 61.7574 46.9253 62.1259L41.5807 73.4592C41.489 73.6537 41.2933 73.7778 41.0782 73.7778H21.1327C20.7253 73.7778 20.4565 73.3538 20.6302 72.9853L25.9748 61.652Z" fill="#93C5FD" stroke="black" stroke-width="0.888889"/>
<path d="M53.7214 33.2015C53.8143 33.0103 54.0083 32.8889 54.221 32.8889H74.8461C75.2564 32.8889 75.5252 33.3184 75.3457 33.6874L69.8342 45.0208C69.7412 45.212 69.5472 45.3333 69.3345 45.3333H48.7094C48.2991 45.3333 48.0303 44.9038 48.2098 44.5348L53.7214 33.2015Z" fill="#93C5FD" stroke="black" stroke-width="0.888889"/>
<path d="M47.4991 61.6459C47.5921 61.4547 47.7861 61.3334 47.9987 61.3334H68.6239C69.0342 61.3334 69.3029 61.7629 69.1235 62.1319L63.6119 73.4652C63.5189 73.6564 63.3249 73.7778 63.1123 73.7778H42.4872C42.0768 73.7778 41.8081 73.3483 41.9875 72.9793L47.4991 61.6459Z" fill="white" stroke="black" stroke-width="0.888889"/>
<path d="M35.0903 42.2222V37.1944H38.4653V38.0555H36.1319V39.2777H38.2916V40.1388H36.1319V41.3611H38.4722V42.2222H35.0903ZM42.3675 37.1944H43.4161V40.4583C43.4161 41.559 42.5793 42.2951 41.3328 42.2916C40.0828 42.2951 39.2564 41.559 39.2564 40.4583V37.1944H40.2981V40.3749C40.3016 40.9548 40.7113 41.3715 41.3328 41.3749C41.9613 41.3715 42.371 40.9548 42.3675 40.3749V37.1944Z" fill="black"/>
<path d="M31.9791 65.6388H33.0277V68.9027C33.0277 70.0034 32.1909 70.7395 30.9444 70.7361C29.6944 70.7395 28.868 70.0034 28.868 68.9027V65.6388H29.9097V68.8194C29.9132 69.3993 30.3229 69.8159 30.9444 69.8194C31.5729 69.8159 31.9826 69.3993 31.9791 68.8194V65.6388ZM33.8536 70.6666V65.6388H34.8953V67.868H34.9647L36.7911 65.6388H38.0481L36.1731 67.8888L38.0689 70.6666H36.8189L35.4231 68.5902L34.8953 69.2291V70.6666H33.8536Z" fill="black"/>
<path d="M53.5625 67.3888C53.4791 66.8333 53.0521 66.4965 52.4653 66.493C51.684 66.4965 51.1666 67.0937 51.1666 68.1527C51.1666 69.2361 51.691 69.809 52.4583 69.8125C53.0312 69.809 53.4618 69.4965 53.5625 68.9513L54.618 68.9583C54.5035 69.8888 53.7222 70.7361 52.4444 70.7361C51.1007 70.7361 50.1041 69.7882 50.1041 68.1527C50.1041 66.5104 51.118 65.5694 52.4444 65.5694C53.6041 65.5694 54.4791 66.2326 54.618 67.3888H53.5625ZM55.3259 65.6388H56.6175L58.0134 69.0486H58.0689L59.4648 65.6388H60.7564V70.6666H59.7425V67.375H59.7009L58.3884 70.6458H57.6939L56.3814 67.3611H56.3398V70.6666H55.3259V65.6388Z" fill="black"/>
<path d="M60.4236 37.1944H61.4722V40.4583C61.4722 41.559 60.6354 42.2951 59.3889 42.2916C58.1389 42.2951 57.3125 41.559 57.3125 40.4583V37.1944H58.3541V40.3749C58.3576 40.9548 58.7673 41.3715 59.3889 41.3749C60.0173 41.3715 60.427 40.9548 60.4236 40.3749V37.1944ZM65.0272 38.6319C64.9856 38.2326 64.6696 37.9999 64.1592 37.9999C63.6314 37.9999 63.3363 38.243 63.3328 38.5763C63.3293 38.9409 63.7043 39.1041 64.1384 39.2013L64.5897 39.3124C65.4509 39.5104 66.0932 39.9479 66.0967 40.7847C66.0932 41.7048 65.3779 42.2951 64.1522 42.2916C62.937 42.2951 62.1627 41.7326 62.1314 40.6527H63.1453C63.18 41.1597 63.5828 41.4166 64.1384 41.4166C64.687 41.4166 65.0411 41.1597 65.0411 40.7847C65.0411 40.4409 64.7286 40.2812 64.18 40.1458L63.6314 40.0138C62.7842 39.8055 62.2634 39.3819 62.2634 38.6458C62.2599 37.7326 63.0654 37.1249 64.1661 37.1249C65.2807 37.1249 66.0134 37.743 66.0272 38.6319H65.0272Z" fill="black"/>
<path d="M108.438 21.375V35.2656H107.266V21.375H108.438ZM96.3906 31.5625C98.3281 30.4062 99.4609 27.8672 99.4531 25.3438V24.0312H96.7812V23.0156H103.188V24.0312H100.641V25.3438C100.641 27.7422 101.727 30.1406 103.641 31.25L102.891 32.1562C101.523 31.3359 100.555 29.8359 100.07 28.0703C99.5703 29.9844 98.5625 31.6172 97.1719 32.4844L96.3906 31.5625ZM102.125 27.3906V26.3906H104.469V21.7188H105.625V34.5469H104.469V27.3906H102.125ZM123.061 32.4531V33.4844H110.343V32.4531H116.077V29.0781H117.311V32.4531H123.061ZM110.968 28.5781C113.319 28.1797 116.046 26.2344 116.046 24.0156V23.6719H111.389V22.6406H121.968V23.6719H117.311V24.0156C117.319 26.2344 120.054 28.1406 122.452 28.5312L121.952 29.5C119.827 29.0781 117.585 27.7266 116.694 25.8047C115.804 27.75 113.569 29.1328 111.483 29.5625L110.968 28.5781ZM128.779 25.1094C128.779 27.5547 130.396 30.0781 132.373 31.0469L131.623 32.0312C130.091 31.2344 128.81 29.5859 128.193 27.6562C127.576 29.7031 126.263 31.4609 124.701 32.2969L123.92 31.3125C125.951 30.3125 127.56 27.6484 127.576 25.1094V22.5781H128.779V25.1094ZM133.654 35.2656V21.375H134.873V27.0156H137.201V28.0781H134.873V35.2656H133.654ZM144.887 22.7812V31.7344H138.481V22.7812H144.887ZM139.668 30.7344H143.668V23.7656H139.668V30.7344ZM147.434 35.2656V21.375H148.653V26.9219H150.981V27.9844H148.653V35.2656H147.434ZM162.433 21.375V26.875H164.761V27.9062H162.433V35.2969H161.214V21.375H162.433ZM152.292 31.8125V22.7344H158.777V23.75H153.511V30.7812C156.027 30.7734 157.8 30.6641 159.87 30.2812L160.027 31.3438C157.847 31.7344 156.027 31.8125 153.386 31.8125H152.292ZM174.087 25.1094C174.087 27.5547 175.704 30.0781 177.681 31.0469L176.931 32.0312C175.399 31.2344 174.118 29.5859 173.501 27.6562C172.884 29.7031 171.571 31.4609 170.009 32.2969L169.228 31.3125C171.259 30.3125 172.868 27.6484 172.884 25.1094V22.5781H174.087V25.1094ZM178.962 35.2656V21.375H180.181V27.0156H182.509V28.0781H180.181V35.2656H178.962ZM194.664 21.375V35.2969H193.43V21.375H194.664ZM183.727 27.2969C183.734 24.3438 185.203 22.4609 187.273 22.4531C189.336 22.4609 190.828 24.3438 190.82 27.2969C190.828 30.2578 189.336 32.1328 187.273 32.125C185.203 32.1328 183.734 30.2578 183.727 27.2969ZM184.914 27.2969C184.914 29.5547 185.883 31.0391 187.273 31.0312C188.672 31.0391 189.633 29.5547 189.633 27.2969C189.633 25.0391 188.672 23.5547 187.273 23.5469C185.883 23.5547 184.914 25.0391 184.914 27.2969ZM209.71 32.3906V33.4219H196.991V32.3906H209.71ZM197.616 28.9844C199.968 28.5859 202.694 26.6484 202.694 24.4375V23.7969H198.038V22.7812H208.616V23.7969H203.96V24.4375C203.968 26.6484 206.702 28.5391 209.1 28.9375L208.6 29.9062C206.475 29.5 204.233 28.1406 203.343 26.2188C202.452 28.1484 200.218 29.5391 198.132 29.9688L197.616 28.9844ZM221.521 21.375V27.0312H223.771V28.0625H221.521V35.2656H220.302V21.375H221.521ZM210.865 31.6562C214.451 29.875 216.404 27.1953 216.685 23.9062H211.506V22.875H217.927C217.92 26.8047 216.076 30.3906 211.552 32.625L210.865 31.6562ZM239.269 21.375V26.875H241.597V27.9062H239.269V35.2969H238.05V21.375H239.269ZM229.128 31.8125V22.7344H235.613V23.75H230.347V30.7812C232.863 30.7734 234.636 30.6641 236.706 30.2812L236.863 31.3438C234.683 31.7344 232.863 31.8125 230.222 31.8125H229.128ZM255.002 27.8281V28.7969H242.283V27.8281H255.002ZM243.815 30.8281V29.9062H253.408V32.8594H245.065V34.1875H253.861V35.0781H243.83V32.0156H252.19V30.8281H243.815ZM243.893 22.6875V21.7969H253.361V24.6719H245.158V25.8906H253.611V26.7812H243.94V23.8281H252.127V22.6875H243.893ZM267.016 22.6719C267.023 24.6328 269.57 26.3203 272.078 26.6719L271.578 27.6719C269.422 27.3125 267.281 26.1172 266.391 24.4141C265.5 26.1328 263.367 27.3125 261.203 27.6719L260.703 26.6719C263.211 26.3203 265.75 24.6641 265.75 22.6719V21.875H267.016V22.6719ZM260.047 30.2344V29.2031H272.703V30.2344H266.953V35.2656H265.75V30.2344H260.047ZM282.498 30.7031C282.49 31.9297 283.154 33.2344 284.474 33.9844C285.802 33.1641 286.505 31.7734 286.498 30.7031V29.9375H287.701V30.7031C287.693 32.1328 288.748 33.5547 290.529 34.1719L289.919 35.0781C288.529 34.5859 287.56 33.6172 287.076 32.4531C286.646 33.5781 285.794 34.6484 284.513 35.1875C283.162 34.6719 282.302 33.6562 281.888 32.4922C281.388 33.6094 280.435 34.5781 279.107 35.0781L278.482 34.1719C280.24 33.5156 281.294 32.0312 281.31 30.7031V29.9375H282.498V30.7031ZM278.123 25.4531C278.115 23.5156 279.654 22.1953 281.763 22.2031C283.873 22.1953 285.396 23.5156 285.404 25.4531C285.396 27.3594 283.873 28.6719 281.763 28.6719C279.654 28.6719 278.115 27.3594 278.123 25.4531ZM279.326 25.4531C279.31 26.7422 280.334 27.6484 281.763 27.6562C283.177 27.6484 284.201 26.7422 284.201 25.4531C284.201 24.1562 283.177 23.2344 281.763 23.25C280.334 23.2344 279.31 24.1562 279.326 25.4531ZM288.044 29.3281V21.3906H289.263V29.3281H288.044ZM294.403 29.7188V31.3438H301.34V29.7188H302.575V35.0781H293.184V29.7188H294.403ZM291.575 28.7344V27.7188H304.231V28.7344H291.575ZM292.293 25.75C294.77 25.4141 297.278 23.9531 297.278 22.1875V21.5312H298.543V22.1875C298.536 23.8984 301.067 25.4375 303.512 25.75L303.059 26.7344C300.911 26.4141 298.793 25.3203 297.911 23.7656C297.028 25.3281 294.903 26.4141 292.762 26.7344L292.293 25.75ZM294.403 34.0938H301.34V32.3125H294.403V34.0938ZM316.808 21.375V35.2656H315.589V21.375H316.808ZM306.261 31.6875V22.75H307.464V30.625C309.589 30.6094 311.777 30.4453 314.105 29.9531L314.277 31C311.808 31.5156 309.613 31.6875 307.386 31.6875H306.261ZM107.312 45.375V50.875H109.641V51.9062H107.312V59.2969H106.094V45.375H107.312ZM97.1719 55.8125V46.7344H103.656V47.75H98.3906V54.7812C100.906 54.7734 102.68 54.6641 104.75 54.2812L104.906 55.3438C102.727 55.7344 100.906 55.8125 98.2656 55.8125H97.1719ZM111.811 58.0938C111.264 58.0859 110.796 57.6328 110.811 57.0781C110.796 56.5312 111.264 56.0781 111.811 56.0781C112.366 56.0781 112.819 56.5312 112.811 57.0781C112.819 57.6328 112.366 58.0859 111.811 58.0938ZM123.387 48.4375C123.379 50.9844 124.465 53.5547 126.747 54.6562L125.544 56.25C124.02 55.4922 122.989 54.0859 122.403 52.375C121.778 54.2109 120.684 55.7188 119.075 56.5156L117.84 54.9062C120.254 53.7969 121.387 51.0781 121.387 48.4375V46.3125H123.387V48.4375ZM127.372 59.4375V45.2188H129.372V50.7031H131.465V52.3906H129.372V59.4375H127.372ZM143.839 45.2188V59.4688H141.824V45.2188H143.839ZM132.355 51.2812C132.347 48.1797 133.933 46.2188 136.12 46.2188C138.261 46.2188 139.855 48.1797 139.855 51.2812C139.855 54.4062 138.261 56.3594 136.12 56.3594C133.933 56.3594 132.347 54.4062 132.355 51.2812ZM134.277 51.2812C134.269 53.3984 135.011 54.5547 136.12 54.5469C137.199 54.5547 137.925 53.3984 137.933 51.2812C137.925 49.1719 137.199 48.0156 136.12 48.0156C135.011 48.0156 134.269 49.1719 134.277 51.2812ZM158.729 56.0938V57.7188H145.713V56.0938H158.729ZM146.244 52.4375C149.354 51.9609 151.143 50.0156 151.151 48.0312V48.0156H146.791V46.4219H157.588V48.0156H153.244V48.0312C153.237 50.0156 155.033 51.8906 158.244 52.375L157.463 53.9531C154.971 53.5156 153.127 52.2891 152.205 50.6172C151.307 52.3281 149.487 53.5938 147.026 54.0312L146.244 52.4375ZM172.509 56.1562V57.7812H159.493V56.1562H164.978V53.5312H160.868V46.125H162.868V48.3281H169.071V46.125H171.056V53.5312H166.962V56.1562H172.509ZM162.868 51.9375H169.071V49.9219H162.868V51.9375ZM184.492 45.2188V50.5H186.586V52.125H184.492V59.4688H182.492V45.2188H184.492ZM173.836 56.0156V46.5312H180.508V48.1406H175.82V54.375C177.883 54.3594 179.586 54.25 181.477 53.9219L181.695 55.5938C179.484 55.9688 177.547 56.0234 175.039 56.0156H173.836ZM198.6 49.0938V50.6562H188.663V45.7188H190.647V49.0938H198.6ZM187.038 53.75V52.1875H200.053V53.75H187.038ZM188.538 59.125V54.9062H190.538V57.5312H198.694V59.125H188.538ZM216.379 45.2344V55.6094H214.379V45.2344H216.379ZM204.426 52.0938C206.809 51.2969 207.848 49.3203 207.848 47.3906V46.0156H209.926V47.3906C209.911 49.2734 210.918 51.1094 213.254 51.8594L212.239 53.4219C210.629 52.8906 209.528 51.8281 208.895 50.4766C208.254 51.9297 207.122 53.1016 205.457 53.6719L204.426 52.0938ZM206.848 59.1875V54.6094H208.864V57.5938H216.754V59.1875H206.848ZM220.66 45.8594V47.5469H223.566V45.8594H225.566V52.0625H218.675V45.8594H220.66ZM220.097 54.5312V52.9844H229.535V56.8438H222.081V57.7656H229.941V59.3438H220.128V55.4219H227.55V54.5312H220.097ZM220.66 50.5H223.566V49.0469H220.66V50.5ZM227.535 52.4531V45.2188H229.535V47.9844H231.456V49.5938H229.535V52.4531H227.535ZM243.94 45.2188V59.4688H241.924V45.2188H243.94ZM232.455 51.2812C232.447 48.1797 234.033 46.2188 236.221 46.2188C238.361 46.2188 239.955 48.1797 239.955 51.2812C239.955 54.4062 238.361 56.3594 236.221 56.3594C234.033 56.3594 232.447 54.4062 232.455 51.2812ZM234.377 51.2812C234.369 53.3984 235.111 54.5547 236.221 54.5469C237.299 54.5547 238.026 53.3984 238.033 51.2812C238.026 49.1719 237.299 48.0156 236.221 48.0156C235.111 48.0156 234.369 49.1719 234.377 51.2812ZM251.859 45.8594V47.5469H254.766V45.8594H256.766V52.0625H249.875V45.8594H251.859ZM251.297 54.5312V52.9844H260.734V56.8438H253.281V57.7656H261.141V59.3438H251.328V55.4219H258.75V54.5312H251.297ZM251.859 50.5H254.766V49.0469H251.859V50.5ZM258.734 52.4531V45.2188H260.734V47.9844H262.656V49.5938H260.734V52.4531H258.734ZM275.561 45.2188V59.4375H273.655V45.2188H275.561ZM263.358 51.375C263.358 48.1953 264.569 46.2266 266.452 46.2344C268.163 46.2266 269.335 47.8281 269.553 50.4844H270.717V45.4219H272.592V58.7812H270.717V52.0625H269.569C269.397 54.8516 268.202 56.5469 266.452 56.5469C264.569 56.5469 263.358 54.5703 263.358 51.375ZM265.202 51.375C265.186 53.5625 265.655 54.6406 266.452 54.625C267.272 54.6406 267.757 53.5625 267.749 51.375C267.757 49.1953 267.272 48.1094 266.452 48.1094C265.655 48.1094 265.186 49.1953 265.202 51.375ZM288.7 45.8906V47.4531H285.887C286.004 48.8594 287.043 50.2344 289.215 50.8438L288.278 52.375C286.668 51.9453 285.543 51.0078 284.895 49.8281C284.262 51.1641 283.098 52.2109 281.372 52.6875L280.403 51.1406C282.637 50.5 283.715 48.9844 283.84 47.4531H280.95V45.8906H288.7ZM282.497 54.5625V53.0625H291.934V56.8125H284.481V57.7812H292.34V59.2969H282.528V55.4062H289.95V54.5625H282.497ZM289.934 52.5156V45.2188H291.934V48.0312H293.856V49.625H291.934V52.5156H289.934ZM305.322 46.1406V52.375H298.494V46.1406H305.322ZM299.338 57.8594C301.893 57.5469 303.283 56.5312 303.604 55.4375H299.947V53.8594H309.525V55.4375H305.885C306.213 56.5 307.627 57.5547 310.15 57.8906L309.447 59.4062C307.166 59.1016 305.557 58.1953 304.736 56.9766C303.924 58.1953 302.33 59.0859 300.057 59.375L299.338 57.8594ZM300.463 50.7969H303.354V47.7188H300.463V50.7969ZM307.354 53.1875V45.2188H309.354V48.3125H311.275V49.9375H309.354V53.1875H307.354ZM323.399 49.0938V50.6562H313.462V45.7188H315.446V49.0938H323.399ZM311.837 53.75V52.1875H324.852V53.75H311.837ZM313.337 59.125V54.9062H315.337V57.5312H323.493V59.125H313.337ZM101.938 73.0938C101.93 75.3906 103.117 77.8516 105.5 78.8438L104.422 80.4062C102.75 79.6953 101.594 78.2812 100.953 76.5625C100.312 78.4297 99.1328 79.9922 97.4531 80.7656L96.3125 79.1875C98.6719 78.1328 99.8906 75.5 99.8906 73.0938V72.2188H96.875V70.5938H104.906V72.2188H101.938V73.0938ZM106.312 83.4375V69.2188H108.328V83.4375H106.312ZM125.216 69.2344V73.2969H127.029V74.9375H125.216V78.8906H123.216V69.2344H125.216ZM113.685 77.0625C114.724 77.0625 115.904 77.0625 117.138 77.0312V76.2344C115.591 76.0156 114.631 75.2578 114.638 74.1719C114.631 72.8516 116.013 72.0391 118.123 72.0469C120.216 72.0391 121.599 72.8516 121.607 74.1719C121.599 75.2578 120.646 76.0078 119.123 76.2266V76.9609C120.295 76.8984 121.466 76.8125 122.56 76.6719L122.701 78.0469C119.693 78.5781 116.396 78.6094 113.888 78.6094L113.685 77.0625ZM114.06 71.7188V70.2656H117.138V69.1094H119.123V70.2656H122.201V71.7188H114.06ZM115.498 81V79.4688H125.216V83.4375H123.216V81H115.498ZM116.545 74.1719C116.537 74.6875 117.107 74.9922 118.123 74.9844C119.123 74.9922 119.693 74.6875 119.701 74.1719C119.693 73.6172 119.123 73.375 118.123 73.375C117.107 73.375 116.537 73.6172 116.545 74.1719ZM139.528 69.2344V79.4531H137.528V69.2344H139.528ZM127.84 73.7188C127.84 71.6328 129.544 70.1328 131.731 70.1406C133.911 70.1328 135.614 71.6328 135.622 73.7188C135.614 75.8359 133.911 77.3281 131.731 77.3281C129.544 77.3281 127.84 75.8359 127.84 73.7188ZM129.794 73.7188C129.778 74.9062 130.614 75.5938 131.731 75.5938C132.809 75.5938 133.645 74.9062 133.653 73.7188C133.645 72.5625 132.809 71.8672 131.731 71.875C130.614 71.8672 129.778 72.5625 129.794 73.7188ZM129.997 83.1875V78.4219H132.012V81.5938H139.903V83.1875H129.997ZM152.292 69.375V75.1094H154.62V76.125H152.292V83.2656H151.074V69.375H152.292ZM141.464 72.625V71.6094H145.042V69.5469H146.261V71.6094H149.73V72.625H141.464ZM142.261 76.9688C142.253 75.0938 143.691 73.7812 145.667 73.7812C147.628 73.7812 149.058 75.0938 149.074 76.9688C149.058 78.8516 147.628 80.1562 145.667 80.1562C143.691 80.1562 142.253 78.8516 142.261 76.9688ZM143.433 76.9688C143.425 78.2344 144.37 79.125 145.667 79.1094C146.949 79.125 147.886 78.2344 147.902 76.9688C147.886 75.7109 146.949 74.8047 145.667 74.8125C144.37 74.8047 143.425 75.7109 143.433 76.9688ZM159.447 73.3281C159.447 75.5391 160.526 77.9219 162.369 79.0156L161.666 79.9688C160.322 79.1562 159.362 77.6719 158.877 75.9766C158.369 77.8281 157.338 79.4219 155.947 80.2656L155.166 79.3438C157.088 78.2188 158.26 75.7578 158.26 73.375V70.6875H159.447V73.3281ZM160.838 75.4062V74.3594H163.197V69.6719H164.354V82.5625H163.197V75.4062H160.838ZM166.041 83.2656V69.375H167.229V83.2656H166.041ZM181.821 80.4531V81.4844H169.103V80.4531H172.259V76.7109C171.071 76.0938 170.353 75.0938 170.353 73.8281C170.353 71.6797 172.462 70.2656 175.431 70.25C178.399 70.2656 180.509 71.6797 180.509 73.8281C180.509 75.0703 179.814 76.0547 178.665 76.6719V80.4531H181.821ZM171.54 73.8281C171.532 75.3828 173.149 76.4219 175.431 76.4219C177.689 76.4219 179.321 75.3828 179.321 73.8281C179.321 72.2734 177.689 71.25 175.431 71.2656C173.149 71.25 171.532 72.2734 171.54 73.8281ZM173.462 80.4531H177.431V77.1484C176.829 77.3047 176.157 77.3906 175.431 77.3906C174.72 77.3906 174.056 77.3125 173.462 77.1562V80.4531ZM184.352 82.0938C183.805 82.0859 183.336 81.6328 183.352 81.0781C183.336 80.5312 183.805 80.0781 184.352 80.0781C184.906 80.0781 185.359 80.5312 185.352 81.0781C185.359 81.6328 184.906 82.0859 184.352 82.0938Z" fill="#27272A"/>
</svg>
