<svg width="343" height="104" viewBox="0 0 343 104" fill="none" xmlns="http://www.w3.org/2000/svg">
<mask id="path-1-inside-1_225_2288" fill="white">
<path d="M0 0H343V104H0V0Z"/>
</mask>
<path d="M0 0H343V104H0V0Z" fill="white"/>
<path d="M0 0V-1H-1V0H0ZM343 0H344V-1H343V0ZM0 1H343V-1H0V1ZM342 0V104H344V0H342ZM1 104V0H-1V104H1Z" fill="#E4E4E7" mask="url(#path-1-inside-1_225_2288)"/>
<g clip-path="url(#clip0_225_2288)">
<rect width="64" height="64" transform="translate(16 20)" fill="white"/>
<path d="M37.2001 42.2059C40.8948 38.5698 46.7467 34.301 52.5685 32.7766C58.3903 31.2521 61.357 34.0771 63.3018 36.3771C65.1407 38.552 66.0215 42.1622 64.953 43.7342C63.3221 46.1338 58.2601 45.9493 55.2706 46.9617C50.2894 48.6485 47.5138 49.5892 42.3262 53.2205C36.3158 57.4278 33.197 64.2315 28.2733 63.5686C25.7695 63.2315 25.6083 60.2603 26.1842 57.3908C27.0863 52.8954 33.9206 45.4334 37.2001 42.2059Z" fill="#93C5FD"/>
<path d="M23.4176 58.4906C23.3788 58.8123 23.6081 59.1045 23.9298 59.1433C24.2514 59.1821 24.5436 58.9527 24.5824 58.6311L23.4176 58.4906ZM67.9881 42.5956C68.0696 42.9092 68.39 43.0973 68.7035 43.0157C69.0171 42.9341 69.2052 42.6138 69.1236 42.3002L67.9881 42.5956ZM24.5824 58.6311C24.6258 58.2714 24.6863 57.9022 24.7635 57.5243L23.614 57.2895C23.5308 57.6963 23.465 58.097 23.4176 58.4906L24.5824 58.6311ZM25.3695 55.317C25.6059 54.6201 25.8878 53.9051 26.2121 53.1769L25.1402 52.6996C24.8028 53.4574 24.5074 54.206 24.2584 54.9402L25.3695 55.317ZM27.2344 51.0958C27.5919 50.4282 27.9803 49.7548 28.3968 49.0791L27.398 48.4634C26.9697 49.1582 26.5695 49.8522 26.2001 50.5418L27.2344 51.0958ZM29.6734 47.128C30.1101 46.4971 30.5689 45.8676 31.0477 45.2423L30.1161 44.529C29.6262 45.1688 29.1563 45.8135 28.7087 46.4603L29.6734 47.128ZM32.5083 43.4222C33.0058 42.8301 33.5197 42.2447 34.0482 41.6688L33.1838 40.8755C32.6437 41.464 32.1184 42.0622 31.6099 42.6676L32.5083 43.4222ZM35.6636 39.9838C36.2146 39.4337 36.7778 38.8956 37.3514 38.372L36.5603 37.5054C35.9736 38.041 35.3977 38.5912 34.8345 39.1535L35.6636 39.9838ZM39.1104 36.8397C39.7126 36.3398 40.3233 35.8577 40.9405 35.396L40.2377 34.4565C39.6041 34.9304 38.9778 35.4248 38.3609 35.937L39.1104 36.8397ZM42.8425 34.0531C43.4971 33.6183 44.1562 33.2088 44.8175 32.8277L44.2315 31.8112C43.5476 32.2054 42.8675 32.628 42.1933 33.0757L42.8425 34.0531ZM46.8658 31.7427C47.5742 31.4011 48.2817 31.0955 48.9856 30.8293L48.5705 29.7318C47.8322 30.0111 47.0931 30.3305 46.3562 30.6858L46.8658 31.7427ZM51.1697 30.1292C51.9249 29.9324 52.6715 29.7867 53.406 29.6959L53.2622 28.5315C52.4721 28.6291 51.6747 28.7852 50.8738 28.9939L51.1697 30.1292ZM55.6692 29.5961C56.4282 29.6269 57.1693 29.726 57.8888 29.8982L58.1619 28.7571C57.3638 28.5661 56.5469 28.4574 55.7167 28.4238L55.6692 29.5961ZM59.9885 30.6434C60.6409 30.9575 61.2727 31.3463 61.8801 31.8157L62.5976 30.8874C61.9262 30.3685 61.2247 29.9363 60.4975 29.5862L59.9885 30.6434ZM63.5194 33.3522C63.9983 33.889 64.4575 34.4905 64.8942 35.1608L65.8773 34.5204C65.4104 33.8037 64.9156 33.1548 64.395 32.5711L63.5194 33.3522ZM66.0213 37.1516C66.343 37.8046 66.6477 38.506 66.9336 39.2581L68.0303 38.841C67.7321 38.0569 67.4129 37.3214 67.0738 36.6331L66.0213 37.1516ZM67.6677 41.4422C67.7785 41.8164 67.8854 42.2008 67.9881 42.5956L69.1236 42.3002C69.0177 41.8932 68.9074 41.4962 68.7928 41.1091L67.6677 41.4422Z" fill="black"/>
<path d="M52.0025 44.5709C52.4787 43.3803 52.7169 40.999 56.2887 40.999C59.8606 40.999 61.2894 45.2853 61.2894 45.2853C61.2894 45.2853 61.9539 49.2226 62.3797 52.2032L62.7181 54.5723C62.7181 54.5723 63.4325 56.2868 63.4325 60.2873C63.4325 64.2878 62.48 78.6231 62.0037 85.2906C61.5275 89.3388 60.575 98.0066 60.575 100.293C60.4514 106.867 57.0439 120.016 49.1912 120.016C40.8107 120.016 34.286 118.036 34.8575 100.293C34.8247 96.0711 34.1431 91.7201 33.4287 88.1482C33.1334 86.6714 32 80.29 32.1432 76.0037C32.3578 69.5778 32 60.0016 32 58.8585C32 57.4298 32 56.001 33.4287 56.001C34.8575 56.001 35.5719 56.001 35.5719 59.5729L35.5719 53.1435C35.5719 52.191 36.1434 50.286 38.4294 50.286C40.3344 50.286 40.5527 52.2704 40.5725 53.3453L40.5725 49.5716C40.5725 48.6191 41.144 46.7141 43.43 46.7141C46.2875 46.7141 46.2875 50.286 46.2875 51.0004L46.2875 46.7141C46.2875 45.7616 47.0019 43.8565 48.4306 43.8565C49.6361 43.8565 52.0025 43.1422 52.0025 48.8572L52.0025 44.5709Z" fill="white"/>
<path d="M52.0025 55.2866L52.0025 48.8572M46.2875 56.001L46.2875 51.0004M52.0025 48.8572L52.0025 44.5709C52.4787 43.3803 52.7169 40.999 56.2887 40.999C59.8606 40.999 61.2894 45.2853 61.2894 45.2853C61.2894 45.2853 61.9539 49.2226 62.3797 52.2032L62.7181 54.5723C62.7181 54.5723 63.4325 56.2868 63.4325 60.2873C63.4325 64.2878 62.48 78.6231 62.0037 85.2906C61.5275 89.3388 60.575 98.0066 60.575 100.293C60.4514 106.867 57.0439 120.016 49.1912 120.016C40.8107 120.016 34.286 118.036 34.8575 100.293C34.8247 96.0711 34.1431 91.7201 33.4287 88.1482C33.1334 86.6714 32 80.29 32.1432 76.0037C32.3578 69.5778 32 60.0016 32 58.8585C32 57.4298 32 56.001 33.4287 56.001C34.8575 56.001 35.5719 56.001 35.5719 59.5729M52.0025 48.8572C52.0025 43.1422 49.6361 43.8565 48.4306 43.8565C47.0019 43.8565 46.2875 45.7616 46.2875 46.7141L46.2875 51.0004M40.5725 58.1442L40.5725 53.8579M46.2875 51.0004C46.2875 50.286 46.2875 46.7141 43.43 46.7141C41.144 46.7141 40.5725 48.6191 40.5725 49.5716L40.5725 53.8579M35.5719 61.7161L35.5719 59.5729M40.5725 53.8579C40.5725 53.1435 40.7154 50.286 38.4294 50.286C36.1434 50.286 35.5719 52.191 35.5719 53.1435L35.5719 59.5729" stroke="black" stroke-linecap="round" stroke-linejoin="bevel"/>
</g>
<path d="M98.3594 21.9688V23.9688H102.406V21.9688H103.625V28.0156H97.1562V21.9688H98.3594ZM98.3594 27.0156H102.406V24.9219H98.3594V27.0156ZM98.5625 30.2031V29.2188H107.422V32.5781H99.7969V34.1094H107.938V35.1094H98.5938V31.6406H106.203V30.2031H98.5625ZM106.203 28.5625V21.375H107.422V24.3906H109.516V25.4219H107.422V28.5625H106.203ZM121.093 21.375V27.0312H123.343V28.0625H121.093V35.2656H119.874V21.375H121.093ZM110.436 31.6562C114.022 29.875 115.975 27.1953 116.257 23.9062H111.077V22.875H117.499C117.491 26.8047 115.647 30.3906 111.124 32.625L110.436 31.6562ZM131.013 22.2188V26.0469H125.951V28.0625C128.42 28.0547 130.209 27.9688 132.373 27.6094L132.498 28.625C130.271 28.9922 128.412 29.0859 125.826 29.0781H124.748V25.0781H129.81V23.2188H124.716V22.2188H131.013ZM125.888 31.5625V30.5625H134.982V35.2656H133.763V31.5625H125.888ZM133.763 29.8281V21.3906H134.982V24.9531H137.091V25.9844H134.982V29.8281H133.763ZM154.574 26.75V27.75H141.87V26.75H145.8C146.238 25.0469 146.339 23.7812 146.37 22.9375H143.058V21.9375H147.589V22.2969C147.574 23.0234 147.574 24.5859 147.042 26.75H151.292C151.706 25.0469 151.777 23.7969 151.785 22.9375H148.527V21.9375H152.98V22.5C152.98 23.3438 152.98 24.7812 152.527 26.75H154.574ZM143.449 35.0781V29.2344H153.011V30.1875H144.683V31.6562H152.652V32.5781H144.683V34.1094H153.105V35.0781H143.449ZM163.354 22.9219V23.6406C163.346 24.7422 163.346 26.5781 162.947 29.1562L161.713 29.0469C162.096 26.7188 162.127 25.0312 162.119 23.9219H156.291V22.9219H163.354ZM155.51 31.1875C156.424 31.1797 157.44 31.1719 158.51 31.1484V26.8906H159.713V31.1094C161.252 31.0547 162.83 30.9531 164.276 30.7812L164.338 31.7031C161.416 32.1562 158.151 32.2188 155.666 32.2031L155.51 31.1875ZM165.151 35.2656V21.375H166.369V27.1875H168.619V28.25H166.369V35.2656H165.151ZM184.867 21.3906V31.5781H183.648V21.3906H184.867ZM173.539 28.6094C175.641 27.7891 177.07 25.7578 177.07 23.5625V22.1719H178.32V23.5625C178.305 25.6797 179.75 27.5781 181.82 28.3281L181.18 29.3125C179.57 28.6953 178.32 27.4453 177.703 25.8438C177.102 27.5469 175.836 28.9141 174.211 29.5625L173.539 28.6094ZM175.898 34.9688V30.6406H177.117V33.9375H185.305V34.9688H175.898ZM188.975 21.9688V23.9688H193.022V21.9688H194.241V28.0156H187.772V21.9688H188.975ZM188.975 27.0156H193.022V24.9219H188.975V27.0156ZM189.178 30.2031V29.2188H198.038V32.5781H190.413V34.1094H198.553V35.1094H189.21V31.6406H196.819V30.2031H189.178ZM196.819 28.5625V21.375H198.038V24.3906H200.132V25.4219H198.038V28.5625H196.819ZM215.786 21.3906V24.7969H217.879V25.7969H215.786V29.2656H214.567V21.3906H215.786ZM205.192 25.4531C205.184 23.5156 206.731 22.1875 208.832 22.1875C210.95 22.1875 212.473 23.5156 212.489 25.4531C212.473 27.3672 210.95 28.6875 208.832 28.6875C206.731 28.6875 205.184 27.3672 205.192 25.4531ZM206.395 25.4531C206.387 26.75 207.426 27.6562 208.832 27.6719C210.254 27.6562 211.278 26.75 211.286 25.4531C211.278 24.1328 210.254 23.2188 208.832 23.2188C207.426 23.2188 206.387 24.1328 206.395 25.4531ZM206.754 35.0469V34.0469H208.848V31H206.879V30H216.161V31H214.207V34.0469H216.332V35.0469H206.754ZM210.036 34.0469H213.02V31H210.036V34.0469ZM222.941 23.1562C222.941 23.9141 223.714 25.0234 225.035 25.6094C226.339 25.0469 227.105 23.9688 227.113 23.1562V22.9062H225.3V21.8906H230.535V22.9062H228.331V23.2188C228.331 24.2734 229.285 25.4922 230.956 25.9688L230.394 26.875C229.019 26.4531 228.097 25.5547 227.667 24.5391C227.214 25.4453 226.331 26.2891 225.035 26.6875C223.714 26.2656 222.824 25.3984 222.378 24.5C221.949 25.4922 221.027 26.4297 219.66 26.875L219.113 25.9688C220.738 25.4453 221.722 24.1406 221.722 23.2188V22.9062H219.519V21.8906H224.753V22.9062H222.941V23.1562ZM218.706 29.2656V28.2656H224.425V26.8438H225.628V28.2656H231.41V29.2656H218.706ZM220.081 31.75V30.75H229.769V35.2656H228.535V31.75H220.081ZM241.11 25.1094C241.11 27.5547 242.728 30.0781 244.704 31.0469L243.954 32.0312C242.423 31.2344 241.142 29.5859 240.524 27.6562C239.907 29.7031 238.595 31.4609 237.032 32.2969L236.251 31.3125C238.282 30.3125 239.892 27.6484 239.907 25.1094V22.5781H241.11V25.1094ZM245.985 35.2656V21.375H247.204V27.0156H249.532V28.0781H247.204V35.2656H245.985ZM261.687 21.375V35.2969H260.453V21.375H261.687ZM250.75 27.2969C250.758 24.3438 252.226 22.4609 254.297 22.4531C256.359 22.4609 257.851 24.3438 257.844 27.2969C257.851 30.2578 256.359 32.1328 254.297 32.125C252.226 32.1328 250.758 30.2578 250.75 27.2969ZM251.937 27.2969C251.937 29.5547 252.906 31.0391 254.297 31.0312C255.695 31.0391 256.656 29.5547 256.656 27.2969C256.656 25.0391 255.695 23.5547 254.297 23.5469C252.906 23.5547 251.937 25.0391 251.937 27.2969ZM275.921 21.375V35.2656H274.733V21.375H275.921ZM264.186 27.375C264.194 24.4219 265.366 22.5547 267.171 22.5469C268.858 22.5547 269.999 24.1797 270.155 26.7969H271.952V21.6719H273.124V34.5625H271.952V27.8125H270.163C270.046 30.5156 268.882 32.2109 267.171 32.2031C265.366 32.2109 264.194 30.3281 264.186 27.375ZM265.342 27.375C265.327 29.625 266.046 31.0469 267.171 31.0312C268.303 31.0469 269.022 29.625 269.014 27.375C269.022 25.1172 268.303 23.7031 267.171 23.7031C266.046 23.7031 265.327 25.1172 265.342 27.375ZM285.59 22.1875C287.45 22.1797 288.872 23.2734 289.137 24.9062H292.043V21.375H293.278V29.3594H292.043V25.9219H289.153C288.918 27.6172 287.481 28.7266 285.59 28.7344C283.497 28.7266 281.973 27.4062 281.981 25.4531C281.973 23.5234 283.497 22.1797 285.59 22.1875ZM283.153 25.4531C283.153 26.7812 284.168 27.6875 285.59 27.7031C286.965 27.6875 287.997 26.7812 287.997 25.4531C287.997 24.1406 286.965 23.2188 285.59 23.2188C284.168 23.2188 283.153 24.1406 283.153 25.4531ZM284.2 35.0781V30.0781H293.278V35.0781H284.2ZM285.418 34.0781H292.075V31.0781H285.418V34.0781ZM300.511 25.6406C300.519 28 302.23 30.3984 304.277 31.2812L303.589 32.25C301.964 31.5156 300.566 29.9141 299.917 27.9922C299.269 30.0312 297.863 31.7969 296.277 32.5938L295.542 31.625C297.534 30.6719 299.269 28.0469 299.277 25.6406V23.8281H295.995V22.8125H303.824V23.8281H300.511V25.6406ZM305.761 35.2656V21.375H306.995V35.2656H305.761ZM324.54 33.9375V34.9688H314.931V30.9688H316.165V33.9375H324.54ZM313.29 29.8594V28.8281H319.009V26.4688H320.212V28.8281H325.993V29.8594H313.29ZM314.118 26.4062C316.548 26 318.993 24.3281 318.993 22.375V21.75H320.227V22.375C320.227 24.3438 322.673 26.0234 325.102 26.4062L324.618 27.375C322.524 26.9766 320.477 25.7969 319.618 24.1094C318.759 25.7969 316.712 26.9844 314.618 27.375L314.118 26.4062ZM107.312 45.375V51.0312H109.562V52.0625H107.312V59.2656H106.094V45.375H107.312ZM96.6562 55.6562C100.242 53.875 102.195 51.1953 102.477 47.9062H97.2969V46.875H103.719C103.711 50.8047 101.867 54.3906 97.3438 56.625L96.6562 55.6562ZM117.233 46.2188V50.0469H112.171V52.0625C114.639 52.0547 116.429 51.9688 118.593 51.6094L118.718 52.625C116.491 52.9922 114.632 53.0859 112.046 53.0781H110.968V49.0781H116.03V47.2188H110.936V46.2188H117.233ZM112.108 55.5625V54.5625H121.202V59.2656H119.983V55.5625H112.108ZM119.983 53.8281V45.3906H121.202V48.9531H123.311V49.9844H121.202V53.8281H119.983ZM139.622 45.375V59.2969H138.387V50.9844H134.059V49.9688H138.387V45.375H139.622ZM128.856 55.9219V46.9375H130.09V54.8906C132.215 54.8672 134.098 54.7578 136.184 54.3281L136.34 55.3438C134.122 55.8047 132.169 55.9219 129.919 55.9219H128.856ZM153.324 45.375V59.2969H152.089V45.375H153.324ZM142.683 55.9375V46.5625H143.902V50.2344H148.042V46.5625H149.245V55.9375H142.683ZM143.902 54.9062H148.042V51.2188H143.902V54.9062ZM171.134 45.375V53.6562H169.9V50.0156H167.103V49H169.9V45.375H171.134ZM159.681 52.5469C161.743 51.8047 163.212 49.9219 163.212 47.9375V47.4219H160.071V46.3906H167.556V47.4219H164.446V47.9219C164.446 49.7344 165.837 51.4609 167.868 52.1562L167.228 53.1406C165.673 52.5781 164.462 51.4062 163.86 49.9766C163.267 51.6016 161.978 52.8984 160.321 53.5312L159.681 52.5469ZM161.868 56.6719C161.86 55.0391 163.634 54.0859 166.525 54.0938C169.407 54.0859 171.181 55.0391 171.181 56.6719C171.181 58.3125 169.407 59.25 166.525 59.2656C163.634 59.25 161.86 58.3125 161.868 56.6719ZM163.087 56.6719C163.079 57.6797 164.392 58.2891 166.525 58.2812C168.65 58.2891 169.962 57.6797 169.962 56.6719C169.962 55.6562 168.65 55.0469 166.525 55.0469C164.392 55.0469 163.079 55.6562 163.087 56.6719ZM184.617 51.8906V52.8906H180.32V56.4844H186.117V57.5156H173.398V56.4844H179.117V52.8906H175.023V46.5156H184.477V47.5156H176.258V51.8906H184.617ZM191.725 46.3906C193.905 46.3984 195.452 47.7266 195.46 49.6562C195.452 51.5938 193.905 52.9141 191.725 52.9219C189.53 52.9141 187.968 51.5938 187.975 49.6562C187.968 47.7266 189.53 46.3984 191.725 46.3906ZM187.257 55.1875C189.819 55.1953 193.358 55.1719 196.428 54.7188L196.522 55.625C193.343 56.2188 189.928 56.2344 187.428 56.2344L187.257 55.1875ZM189.178 49.6562C189.171 50.9531 190.241 51.8438 191.725 51.8438C193.194 51.8438 194.264 50.9531 194.257 49.6562C194.264 48.3672 193.194 47.4688 191.725 47.4688C190.241 47.4688 189.171 48.3672 189.178 49.6562ZM197.35 59.2969V45.375H198.569V59.2969H197.35ZM211.192 54.0781C214.301 54.0781 216.254 55.0625 216.27 56.7656C216.254 58.4453 214.301 59.4453 211.192 59.4375C208.106 59.4453 206.122 58.4453 206.129 56.7656C206.122 55.0625 208.106 54.0781 211.192 54.0781ZM204.817 53.1719V51.5625H209.661V49.0781H211.629V51.5625H217.723V53.1719H204.817ZM206.27 47.4219V45.8594H216.192V47.0156C216.2 48.1484 216.2 49.3672 215.786 50.8281L213.832 50.6406C214.153 49.3516 214.192 48.3906 214.207 47.4219H206.27ZM208.114 56.7656C208.106 57.5312 209.231 57.9219 211.192 57.9219C213.153 57.9219 214.286 57.5312 214.286 56.7656C214.286 55.9766 213.153 55.5547 211.192 55.5625C209.231 55.5547 208.106 55.9766 208.114 56.7656ZM229.847 45.2188V49.2031H231.769V50.8438H229.847V55.4062H227.831V45.2188H229.847ZM218.472 52.4375C221.66 51.5547 223.464 49.9062 223.777 47.9062H219.097V46.2812H225.972C225.964 50.125 223.566 52.8125 219.3 54.0156L218.472 52.4375ZM220.597 59.1875V54.3594H222.613V57.5938H230.331V59.1875H220.597ZM244.252 45.2188V59.4688H242.236V45.2188H244.252ZM232.768 51.2812C232.76 48.1797 234.346 46.2188 236.533 46.2188C238.674 46.2188 240.268 48.1797 240.268 51.2812C240.268 54.4062 238.674 56.3594 236.533 56.3594C234.346 56.3594 232.76 54.4062 232.768 51.2812ZM234.69 51.2812C234.682 53.3984 235.424 54.5547 236.533 54.5469C237.611 54.5547 238.338 53.3984 238.346 51.2812C238.338 49.1719 237.611 48.0156 236.533 48.0156C235.424 48.0156 234.682 49.1719 234.69 51.2812ZM254.937 54.3438C254.937 55.4844 255.422 56.6719 256.57 57.4531C257.75 56.6172 258.266 55.3984 258.266 54.3438V53.8594H260.234V54.3438C260.219 55.8281 261.008 57.1953 262.906 57.7812L261.937 59.2344C260.578 58.7734 259.687 57.9062 259.195 56.8047C258.726 57.9062 257.898 58.8594 256.625 59.3594C255.289 58.875 254.453 57.9531 253.992 56.8594C253.484 57.9141 252.609 58.7734 251.312 59.2344L250.328 57.7812C252.195 57.1406 252.992 55.7266 253 54.3438V53.8594H254.937V54.3438ZM249.984 49.375C249.984 47.3594 251.656 45.9531 253.875 45.9531C256.086 45.9531 257.758 47.3594 257.766 49.375C257.758 51.3516 256.086 52.7734 253.875 52.7656C251.656 52.7734 249.984 51.3516 249.984 49.375ZM251.937 49.375C251.922 50.4453 252.734 51.1172 253.875 51.1094C254.984 51.1172 255.789 50.4453 255.797 49.375C255.789 48.2734 254.984 47.625 253.875 47.625C252.734 47.625 251.922 48.2734 251.937 49.375ZM259.672 53.2656V45.2344H261.672V53.2656H259.672ZM275.092 49.0938V50.6562H265.155V45.7188H267.139V49.0938H275.092ZM263.53 53.75V52.1875H276.546V53.75H263.53ZM265.03 59.125V54.9062H267.03V57.5312H275.186V59.125H265.03ZM282.841 49.0938C282.834 51.3906 284.021 53.8516 286.404 54.8438L285.326 56.4062C283.654 55.6953 282.498 54.2812 281.857 52.5625C281.216 54.4297 280.037 55.9922 278.357 56.7656L277.216 55.1875C279.576 54.1328 280.794 51.5 280.794 49.0938V48.2188H277.779V46.5938H285.81V48.2188H282.841V49.0938ZM287.216 59.4375V45.2188H289.232V59.4375H287.216ZM306.12 45.2344V49.2969H307.933V50.9375H306.12V54.8906H304.12V45.2344H306.12ZM294.589 53.0625C295.628 53.0625 296.808 53.0625 298.042 53.0312V52.2344C296.495 52.0156 295.534 51.2578 295.542 50.1719C295.534 48.8516 296.917 48.0391 299.027 48.0469C301.12 48.0391 302.503 48.8516 302.511 50.1719C302.503 51.2578 301.55 52.0078 300.027 52.2266V52.9609C301.199 52.8984 302.37 52.8125 303.464 52.6719L303.605 54.0469C300.597 54.5781 297.3 54.6094 294.792 54.6094L294.589 53.0625ZM294.964 47.7188V46.2656H298.042V45.1094H300.027V46.2656H303.105V47.7188H294.964ZM296.402 57V55.4688H306.12V59.4375H304.12V57H296.402ZM297.449 50.1719C297.441 50.6875 298.011 50.9922 299.027 50.9844C300.027 50.9922 300.597 50.6875 300.605 50.1719C300.597 49.6172 300.027 49.375 299.027 49.375C298.011 49.375 297.441 49.6172 297.449 50.1719ZM320.432 45.2344V55.4531H318.432V45.2344H320.432ZM308.744 49.7188C308.744 47.6328 310.447 46.1328 312.635 46.1406C314.815 46.1328 316.518 47.6328 316.525 49.7188C316.518 51.8359 314.815 53.3281 312.635 53.3281C310.447 53.3281 308.744 51.8359 308.744 49.7188ZM310.697 49.7188C310.682 50.9062 311.518 51.5938 312.635 51.5938C313.713 51.5938 314.549 50.9062 314.557 49.7188C314.549 48.5625 313.713 47.8672 312.635 47.875C311.518 47.8672 310.682 48.5625 310.697 49.7188ZM310.9 59.1875V54.4219H312.916V57.5938H320.807V59.1875H310.9ZM107.312 69.375V75.1094H109.641V76.125H107.312V83.2656H106.094V69.375H107.312ZM96.4844 72.625V71.6094H100.062V69.5469H101.281V71.6094H104.75V72.625H96.4844ZM97.2812 76.9688C97.2734 75.0938 98.7109 73.7812 100.688 73.7812C102.648 73.7812 104.078 75.0938 104.094 76.9688C104.078 78.8516 102.648 80.1562 100.688 80.1562C98.7109 80.1562 97.2734 78.8516 97.2812 76.9688ZM98.4531 76.9688C98.4453 78.2344 99.3906 79.125 100.688 79.1094C101.969 79.125 102.906 78.2344 102.922 76.9688C102.906 75.7109 101.969 74.8047 100.688 74.8125C99.3906 74.8047 98.4453 75.7109 98.4531 76.9688ZM114.468 73.3281C114.468 75.5391 115.546 77.9219 117.389 79.0156L116.686 79.9688C115.343 79.1562 114.382 77.6719 113.897 75.9766C113.389 77.8281 112.358 79.4219 110.968 80.2656L110.186 79.3438C112.108 78.2188 113.28 75.7578 113.28 73.375V70.6875H114.468V73.3281ZM115.858 75.4062V74.3594H118.218V69.6719H119.374V82.5625H118.218V75.4062H115.858ZM121.061 83.2656V69.375H122.249V83.2656H121.061ZM136.841 80.4531V81.4844H124.123V80.4531H127.279V76.7109C126.091 76.0938 125.373 75.0938 125.373 73.8281C125.373 71.6797 127.482 70.2656 130.451 70.25C133.42 70.2656 135.529 71.6797 135.529 73.8281C135.529 75.0703 134.834 76.0547 133.685 76.6719V80.4531H136.841ZM126.56 73.8281C126.552 75.3828 128.17 76.4219 130.451 76.4219C132.709 76.4219 134.341 75.3828 134.341 73.8281C134.341 72.2734 132.709 71.25 130.451 71.2656C128.17 71.25 126.552 72.2734 126.56 73.8281ZM128.482 80.4531H132.451V77.1484C131.849 77.3047 131.177 77.3906 130.451 77.3906C129.74 77.3906 129.076 77.3125 128.482 77.1562V80.4531ZM139.372 82.0938C138.825 82.0859 138.356 81.6328 138.372 81.0781C138.356 80.5312 138.825 80.0781 139.372 80.0781C139.926 80.0781 140.379 80.5312 140.372 81.0781C140.379 81.6328 139.926 82.0859 139.372 82.0938Z" fill="#27272A"/>
<defs>
<clipPath id="clip0_225_2288">
<rect width="64" height="64" fill="white" transform="translate(16 20)"/>
</clipPath>
</defs>
</svg>
