<svg width="343" height="96" viewBox="0 0 343 96" fill="none" xmlns="http://www.w3.org/2000/svg">
<mask id="path-1-inside-1_225_2313" fill="white">
<path d="M0 0H343V96H0V0Z"/>
</mask>
<path d="M0 0H343V96H0V0Z" fill="white"/>
<path d="M0 0V-1H-1V0H0ZM343 0H344V-1H343V0ZM0 1H343V-1H0V1ZM342 0V96H344V0H342ZM1 96V0H-1V96H1Z" fill="#E4E4E7" mask="url(#path-1-inside-1_225_2313)"/>
<rect width="64" height="64" transform="translate(16 16)" fill="white"/>
<rect x="28.9774" y="20.4463" width="32.7111" height="55.1111" rx="5.15556" stroke="black" stroke-width="0.888889"/>
<rect x="28.9774" y="26.0444" width="32.7111" height="42.0444" fill="white" stroke="black" stroke-width="0.888889"/>
<path d="M41.6037 32.7212C43.1973 31.055 44.7631 30.9751 46.1801 31.2065C47.5972 31.4378 48.9906 32.3071 50.0692 33.588C51.4737 35.2558 53.6693 39.1168 53.29 42.6047C53.0359 44.941 51.8558 49.9523 51.5092 51.6042C51.2232 52.9674 51.6838 55.868 50.7566 59.7589C49.9664 63.0748 47.3949 64.0001 45.6081 64.0001C44.6177 64.0001 42.7477 63.4843 41.5628 61.5765C40.2634 59.4843 40.1474 54.0499 40.2634 52.6527C40.4268 50.6836 40.3778 48.5879 39.9284 46.543C39.5487 44.8158 39.1111 43.311 39.1111 40.0297C39.1111 36.3565 40.0101 34.3874 41.6037 32.7212Z" fill="#93C5FD" stroke="#93C5FD" stroke-width="0.933333"/>
<path d="M44.4257 37.1383C44.2641 36.7342 44.1833 35.9261 42.9712 35.9261C41.759 35.9261 41.2742 37.3807 41.2742 37.3807C41.2742 37.3807 41.0487 38.7168 40.9042 39.7283L40.7893 40.5322C40.7893 40.5322 40.5469 41.114 40.5469 42.4716C40.5469 43.8292 40.8701 48.6938 41.0318 50.9564C41.1934 52.3302 41.5166 55.2716 41.5166 56.0474C41.5585 58.2783 42.7149 62.7403 45.3797 62.7403C48.2236 62.7403 50.4378 62.0687 50.2439 56.0474C50.255 54.6148 50.4863 53.1383 50.7287 51.9261C50.829 51.425 51.2136 49.2595 51.165 47.8049C51.0922 45.6243 51.2136 42.3746 51.2136 41.9868C51.2136 41.5019 51.2136 41.0171 50.7287 41.0171C50.2439 41.0171 50.0015 41.0171 50.0015 42.2292V40.0474C50.0015 39.7241 49.8075 39.0777 49.0318 39.0777C48.3853 39.0777 48.3112 39.7511 48.3045 40.1158V38.8352C48.3045 38.512 48.1105 37.8655 47.3348 37.8655C46.3651 37.8655 46.3651 39.0777 46.3651 39.3201V37.8655C46.3651 37.5423 46.1227 36.8958 45.6378 36.8958C45.2287 36.8958 44.4257 36.6534 44.4257 38.5928V37.1383Z" fill="white"/>
<path d="M44.4257 40.7746V38.5928M46.3651 41.0171V39.3201M44.4257 38.5928V37.1383C44.2641 36.7342 44.1833 35.9261 42.9712 35.9261C41.759 35.9261 41.2742 37.3807 41.2742 37.3807C41.2742 37.3807 41.0487 38.7168 40.9042 39.7283L40.7893 40.5322C40.7893 40.5322 40.5469 41.114 40.5469 42.4716C40.5469 43.8292 40.8701 48.6938 41.0318 50.9564C41.1934 52.3302 41.5166 55.2716 41.5166 56.0474C41.5585 58.2783 42.7149 62.7403 45.3797 62.7403C48.2236 62.7403 50.4378 62.0687 50.2439 56.0474C50.255 54.6148 50.4863 53.1383 50.7287 51.9261C50.829 51.425 51.2136 49.2595 51.165 47.8049C51.0922 45.6243 51.2136 42.3746 51.2136 41.9868C51.2136 41.5019 51.2136 41.0171 50.7287 41.0171C50.2439 41.0171 50.0015 41.0171 50.0015 42.2292M44.4257 38.5928C44.4257 36.6534 45.2287 36.8958 45.6378 36.8958C46.1227 36.8958 46.3651 37.5423 46.3651 37.8655V39.3201M48.3045 41.7443V40.2898M46.3651 39.3201C46.3651 39.0777 46.3651 37.8655 47.3348 37.8655C48.1105 37.8655 48.3045 38.512 48.3045 38.8352V40.2898M50.0015 42.9565V42.2292M48.3045 40.2898C48.3045 40.0474 48.256 39.0777 49.0318 39.0777C49.8075 39.0777 50.0015 39.7241 50.0015 40.0474V42.2292" stroke="black" stroke-width="0.484848" stroke-linecap="round" stroke-linejoin="bevel"/>
<rect x="56.0295" y="65.2362" width="12.2" height="12.2" rx="6.1" fill="black"/>
<rect x="56.0295" y="65.2362" width="12.2" height="12.2" rx="6.1" stroke="white"/>
<path d="M65.0877 69.3624L61.4127 73.0373L59.5752 71.1999" stroke="white" stroke-linecap="round" stroke-linejoin="round"/>
<path d="M40.6656 29.4237H38.799C37.768 29.4237 36.9323 30.2594 36.9323 31.2903C36.9323 31.898 36.9323 32.5244 36.9323 33.157" stroke="black" stroke-width="0.933333" stroke-linecap="round"/>
<path d="M51.3322 29.4236H53.1989C54.2298 29.4236 55.0656 30.2593 55.0656 31.2902C55.0656 31.8979 55.0656 32.5242 55.0656 33.1569" stroke="black" stroke-width="0.933333" stroke-linecap="round"/>
<path d="M40.6656 64.7562H38.799C37.768 64.7562 36.9323 63.9205 36.9323 62.8896C36.9323 62.2819 36.9323 61.6556 36.9323 61.0229" stroke="black" stroke-width="0.933333" stroke-linecap="round"/>
<path d="M51.3322 64.7563H53.1989C54.2298 64.7563 55.0656 63.9207 55.0656 62.8897C55.0656 62.282 55.0656 61.6557 55.0656 61.023" stroke="black" stroke-width="0.933333" stroke-linecap="round"/>
<path d="M98.3594 29.9688V31.9688H102.406V29.9688H103.625V36.0156H97.1562V29.9688H98.3594ZM98.3594 35.0156H102.406V32.9219H98.3594V35.0156ZM98.5625 38.2031V37.2188H107.422V40.5781H99.7969V42.1094H107.938V43.1094H98.5938V39.6406H106.203V38.2031H98.5625ZM106.203 36.5625V29.375H107.422V32.3906H109.516V33.4219H107.422V36.5625H106.203ZM118.966 33.1094C118.966 35.5547 120.584 38.0781 122.56 39.0469L121.81 40.0312C120.279 39.2344 118.998 37.5859 118.381 35.6562C117.763 37.7031 116.451 39.4609 114.888 40.2969L114.107 39.3125C116.138 38.3125 117.748 35.6484 117.763 33.1094V30.5781H118.966V33.1094ZM123.841 43.2656V29.375H125.06V35.0156H127.388V36.0781H125.06V43.2656H123.841ZM139.544 29.375V43.2969H138.309V29.375H139.544ZM128.606 35.2969C128.614 32.3438 130.083 30.4609 132.153 30.4531C134.215 30.4609 135.708 32.3438 135.7 35.2969C135.708 38.2578 134.215 40.1328 132.153 40.125C130.083 40.1328 128.614 38.2578 128.606 35.2969ZM129.794 35.2969C129.794 37.5547 130.762 39.0391 132.153 39.0312C133.551 39.0391 134.512 37.5547 134.512 35.2969C134.512 33.0391 133.551 31.5547 132.153 31.5469C130.762 31.5547 129.794 33.0391 129.794 35.2969ZM154.589 40.3906V41.4219H141.87V40.3906H154.589ZM142.495 36.9844C144.847 36.5859 147.574 34.6484 147.574 32.4375V31.7969H142.917V30.7812H153.495V31.7969H148.839V32.4375C148.847 34.6484 151.581 36.5391 153.98 36.9375L153.48 37.9062C151.355 37.5 149.113 36.1406 148.222 34.2188C147.331 36.1484 145.097 37.5391 143.011 37.9688L142.495 36.9844ZM159.838 30.2812C161.971 30.2969 163.533 31.6094 163.541 33.5469C163.533 35.2891 162.268 36.5234 160.463 36.7578V39.1172C161.76 39.0625 163.065 38.9688 164.276 38.8125L164.354 39.7344C161.408 40.2344 158.127 40.2656 155.682 40.25L155.479 39.2188C156.596 39.2109 157.885 39.2031 159.229 39.1641V36.7578C157.385 36.5391 156.127 35.2969 156.135 33.5469C156.127 31.6094 157.666 30.2969 159.838 30.2812ZM157.338 33.5469C157.322 34.8516 158.377 35.7578 159.838 35.75C161.276 35.7578 162.322 34.8516 162.338 33.5469C162.322 32.2422 161.276 31.3516 159.838 31.3438C158.377 31.3516 157.322 32.2422 157.338 33.5469ZM165.166 43.2656V29.375H166.385V35.1094H168.651V36.1719H166.385V43.2656H165.166ZM186.117 40.4531V41.4844H173.398V40.4531H179.117V37.0625H174.898V30.5469H184.539V37.0625H180.32V40.4531H186.117ZM176.102 36.0781H183.352V31.5312H176.102V36.0781ZM200.1 31.4844V32.5H198.038V34.4375H200.1V35.4688H198.038V37.625H196.819V29.375H198.038V31.4844H200.1ZM187.444 33.4844C187.436 31.5469 188.983 30.2109 191.085 30.2188C193.202 30.2109 194.725 31.5469 194.741 33.4844C194.725 35.4141 193.202 36.7422 191.085 36.75C188.983 36.7422 187.436 35.4141 187.444 33.4844ZM188.647 33.4844C188.639 34.7969 189.678 35.7031 191.085 35.7188C192.507 35.7031 193.53 34.7969 193.538 33.4844C193.53 32.1797 192.507 31.25 191.085 31.2656C189.678 31.25 188.639 32.1797 188.647 33.4844ZM188.975 40.6562C188.983 39.0078 190.749 38.0547 193.585 38.0469C196.421 38.0547 198.163 39.0078 198.163 40.6562C198.163 42.2734 196.421 43.2344 193.585 43.2344C190.749 43.2344 188.983 42.2734 188.975 40.6562ZM190.21 40.6562C190.194 41.6562 191.491 42.2422 193.585 42.25C195.686 42.2422 196.968 41.6562 196.975 40.6562C196.968 39.6484 195.686 39.0469 193.585 39.0469C191.491 39.0469 190.194 39.6484 190.21 40.6562ZM213.615 36.7031V37.7031H200.959V36.7031H213.615ZM202.365 32.625C202.365 30.8828 204.271 29.8594 207.287 29.875C210.271 29.8594 212.185 30.8828 212.193 32.625C212.185 34.3516 210.271 35.3906 207.287 35.3906C204.271 35.3906 202.365 34.3516 202.365 32.625ZM202.599 42.9688V38.9219H203.834V41.9375H212.209V42.9688H202.599ZM203.631 32.625C203.623 33.7266 205.045 34.3906 207.287 34.3906C209.513 34.3906 210.935 33.7266 210.943 32.625C210.935 31.5391 209.513 30.8594 207.287 30.8594C205.045 30.8594 203.623 31.5391 203.631 32.625ZM230.222 29.3906V39.6719H228.988V35.9375H225.706V37.2969H219.41V30.3125H220.628V32.7812H224.503V30.3125H225.706V31.9375H228.988V29.3906H230.222ZM220.628 36.2812H224.503V33.75H220.628V36.2812ZM221.238 42.9688V38.6562H222.472V41.9375H230.535V42.9688H221.238ZM225.706 34.9219H228.988V32.9688H225.706V34.9219ZM243.346 29.3281V32.7031H245.455V33.7188H243.346V37.0156H242.127V29.3281H243.346ZM232.518 31.625V30.6406H236.049V29.2344H237.268V30.6406H240.799V31.625H232.518ZM233.315 34.5312C233.307 33.125 234.635 32.2578 236.658 32.25C238.674 32.2578 239.986 33.125 240.002 34.5312C239.986 35.9453 238.674 36.8047 236.658 36.8125C234.635 36.8047 233.307 35.9453 233.315 34.5312ZM234.486 38.6562V37.7344H243.346V40.8125H235.721V42.1719H243.861V43.1094H234.518V39.9062H242.127V38.6562H234.486ZM234.486 34.5312C234.479 35.3672 235.338 35.8906 236.658 35.8906C237.971 35.8906 238.83 35.3672 238.846 34.5312C238.83 33.7031 237.971 33.1641 236.658 33.1562C235.338 33.1641 234.479 33.7031 234.486 34.5312ZM257.203 30.6719C257.211 32.6328 259.758 34.3203 262.266 34.6719L261.766 35.6719C259.609 35.3125 257.469 34.1172 256.578 32.4141C255.687 34.1328 253.555 35.3125 251.391 35.6719L250.891 34.6719C253.398 34.3203 255.937 32.6641 255.937 30.6719V29.875H257.203V30.6719ZM250.234 38.2344V37.2031H262.891V38.2344H257.141V43.2656H255.937V38.2344H250.234ZM272.685 38.7031C272.677 39.9297 273.341 41.2344 274.662 41.9844C275.99 41.1641 276.693 39.7734 276.685 38.7031V37.9375H277.888V38.7031C277.88 40.1328 278.935 41.5547 280.716 42.1719L280.107 43.0781C278.716 42.5859 277.748 41.6172 277.263 40.4531C276.834 41.5781 275.982 42.6484 274.701 43.1875C273.349 42.6719 272.49 41.6562 272.076 40.4922C271.576 41.6094 270.623 42.5781 269.294 43.0781L268.669 42.1719C270.427 41.5156 271.482 40.0312 271.498 38.7031V37.9375H272.685V38.7031ZM268.31 33.4531C268.302 31.5156 269.841 30.1953 271.951 30.2031C274.06 30.1953 275.584 31.5156 275.591 33.4531C275.584 35.3594 274.06 36.6719 271.951 36.6719C269.841 36.6719 268.302 35.3594 268.31 33.4531ZM269.513 33.4531C269.498 34.7422 270.521 35.6484 271.951 35.6562C273.365 35.6484 274.388 34.7422 274.388 33.4531C274.388 32.1562 273.365 31.2344 271.951 31.25C270.521 31.2344 269.498 32.1562 269.513 33.4531ZM278.232 37.3281V29.3906H279.451V37.3281H278.232ZM288.09 30.2812C290.989 30.2891 293.168 31.8047 293.168 34.0938C293.168 36.4062 290.989 37.9219 288.09 37.9062C285.192 37.9219 283.012 36.4062 283.012 34.0938C283.012 31.8047 285.192 30.2891 288.09 30.2812ZM281.762 41.4219V40.3906H294.481V41.4219H281.762ZM284.184 34.0938C284.168 35.7812 285.848 36.9062 288.09 36.9062C290.317 36.9062 291.981 35.7812 291.981 34.0938C291.981 32.4297 290.317 31.2734 288.09 31.2812C285.848 31.2734 284.168 32.4297 284.184 34.0938ZM306.995 29.375V43.2656H305.777V29.375H306.995ZM296.449 39.6875V30.75H297.652V38.625C299.777 38.6094 301.964 38.4453 304.292 37.9531L304.464 39C301.995 39.5156 299.8 39.6875 297.574 39.6875H296.449ZM311.604 40.9531L310.385 45.2031H309.229L310.088 40.9531H311.604ZM321.836 30.6875V42H320.414V32.1562H320.351L317.601 33.9844V32.5625L320.414 30.6875H321.836ZM108.078 53.3906V63.6719H106.844V58.8594H102.844V57.875H106.844V56.2031H102.844V55.2188H106.844V53.3906H108.078ZM97.3906 61.6094V54.3906H98.625V60.5625C100.539 60.5547 102.383 60.4453 104.5 60.0625L104.625 61.0781C102.367 61.5 100.477 61.5938 98.4375 61.6094H97.3906ZM99.125 66.9688V62.7969H100.359V65.9375H108.453V66.9688H99.125ZM117.327 54.7812V63.7344H110.921V54.7812H117.327ZM112.108 62.7344H116.108V55.7656H112.108V62.7344ZM119.874 67.2656V53.375H121.093V58.9219H123.421V59.9844H121.093V67.2656H119.874ZM134.873 53.375V58.875H137.201V59.9062H134.873V67.2969H133.654V53.375H134.873ZM124.732 63.8125V54.7344H131.216V55.75H125.951V62.7812C128.466 62.7734 130.24 62.6641 132.31 62.2812L132.466 63.3438C130.287 63.7344 128.466 63.8125 125.826 63.8125H124.732ZM153.714 53.2188V61.6562H151.73V58.2969H149.511V56.6875H151.73V53.2188H153.714ZM141.636 60.0938C143.964 59.3125 145.027 57.4531 145.074 55.6719H142.214V54.0781H149.933V55.6719H147.105C147.144 57.3281 148.16 59 150.37 59.7344L149.386 61.2969C147.824 60.7891 146.738 59.7578 146.12 58.4844C145.495 59.9297 144.355 61.0938 142.667 61.6719L141.636 60.0938ZM143.964 64.7188C143.964 62.9922 145.824 61.9766 148.855 61.9688C151.894 61.9766 153.753 62.9922 153.761 64.7188C153.753 66.4453 151.894 67.4531 148.855 67.4531C145.824 67.4531 143.964 66.4453 143.964 64.7188ZM145.949 64.7188C145.949 65.5312 146.972 65.9375 148.855 65.9375C150.745 65.9375 151.769 65.5312 151.777 64.7188C151.769 63.8984 150.745 63.4922 148.855 63.5C146.972 63.4922 145.949 63.8984 145.949 64.7188ZM167.463 53.2188V67.4375H165.447V53.2188H167.463ZM155.557 63.4062C159.229 61.6719 160.846 59.4219 161.166 56.2656H156.322V54.7031H163.197C163.19 59.0156 161.682 62.6016 156.604 65L155.557 63.4062ZM177.493 54.0156V55.5938H174.665C174.673 57.2656 175.689 58.9922 177.931 59.7344L176.946 61.2656C175.376 60.7734 174.29 59.7422 173.673 58.4688C173.04 59.8828 171.907 61.0234 170.228 61.5625L169.212 59.9844C171.556 59.2422 172.618 57.3594 172.634 55.5938H169.774V54.0156H177.493ZM171.509 63.9062V62.3125H181.274V67.4375H179.29V63.9062H171.509ZM177.087 58.2656V56.6406H179.29V53.2188H181.274V61.6875H179.29V58.2656H177.087ZM189.555 53.9375C192.555 53.9453 194.906 55.5703 194.914 58.0312C194.906 60.5156 192.555 62.1328 189.555 62.125C186.547 62.1328 184.211 60.5156 184.211 58.0312C184.211 55.5703 186.547 53.9453 189.555 53.9375ZM183.07 65.7031V64.0938H196.086V65.7031H183.07ZM186.148 58.0312C186.141 59.5781 187.578 60.5 189.555 60.5C191.516 60.5 192.937 59.5781 192.945 58.0312C192.937 56.5078 191.516 55.5469 189.555 55.5625C187.578 55.5469 186.141 56.5078 186.148 58.0312ZM209.866 64.2188V65.8594H196.85V64.2188H202.335V62.0781H198.35V57.2969H206.397V55.7344H198.335V54.1406H208.366V58.8594H200.35V60.4531H208.694V62.0781H204.319V64.2188H209.866ZM227.239 60.2656V61.8594H214.27V60.2656H227.239ZM214.817 58.2344C217.903 58.0391 219.348 57.1172 219.59 56.0938H215.52V54.5469H219.754V53.2656H221.723V54.5469H225.989V56.0938H221.879C222.114 57.1172 223.551 58.0391 226.661 58.2344L226.051 59.75C223.434 59.5547 221.629 58.7969 220.731 57.6484C219.84 58.7969 218.028 59.5547 215.426 59.75L214.817 58.2344ZM215.707 64.5V62.9375H225.661V67.4375H223.676V64.5H215.707ZM240.035 53.2188V61.6562H238.05V58.2969H235.831V56.6875H238.05V53.2188H240.035ZM227.956 60.0938C230.285 59.3125 231.347 57.4531 231.394 55.6719H228.535V54.0781H236.253V55.6719H233.425C233.464 57.3281 234.48 59 236.691 59.7344L235.706 61.2969C234.144 60.7891 233.058 59.7578 232.441 58.4844C231.816 59.9297 230.675 61.0938 228.988 61.6719L227.956 60.0938ZM230.285 64.7188C230.285 62.9922 232.144 61.9766 235.175 61.9688C238.214 61.9766 240.074 62.9922 240.081 64.7188C240.074 66.4453 238.214 67.4531 235.175 67.4531C232.144 67.4531 230.285 66.4453 230.285 64.7188ZM232.269 64.7188C232.269 65.5312 233.292 65.9375 235.175 65.9375C237.066 65.9375 238.089 65.5312 238.097 64.7188C238.089 63.8984 237.066 63.4922 235.175 63.5C233.292 63.4922 232.269 63.8984 232.269 64.7188ZM252.721 53.375V59.1094H255.049V60.125H252.721V67.2656H251.502V53.375H252.721ZM241.893 56.625V55.6094H245.471V53.5469H246.69V55.6094H250.158V56.625H241.893ZM242.69 60.9688C242.682 59.0938 244.119 57.7812 246.096 57.7812C248.057 57.7812 249.486 59.0938 249.502 60.9688C249.486 62.8516 248.057 64.1562 246.096 64.1562C244.119 64.1562 242.682 62.8516 242.69 60.9688ZM243.861 60.9688C243.854 62.2344 244.799 63.125 246.096 63.1094C247.377 63.125 248.315 62.2344 248.33 60.9688C248.315 59.7109 247.377 58.8047 246.096 58.8125C244.799 58.8047 243.854 59.7109 243.861 60.9688ZM259.876 57.3281C259.876 59.5391 260.954 61.9219 262.798 63.0156L262.095 63.9688C260.751 63.1562 259.79 61.6719 259.306 59.9766C258.798 61.8281 257.767 63.4219 256.376 64.2656L255.595 63.3438C257.517 62.2188 258.689 59.7578 258.689 57.375V54.6875H259.876V57.3281ZM261.267 59.4062V58.3594H263.626V53.6719H264.782V66.5625H263.626V59.4062H261.267ZM266.47 67.2656V53.375H267.657V67.2656H266.47ZM282.25 64.4531V65.4844H269.531V64.4531H272.687V60.7109C271.5 60.0938 270.781 59.0938 270.781 57.8281C270.781 55.6797 272.891 54.2656 275.859 54.25C278.828 54.2656 280.937 55.6797 280.937 57.8281C280.937 59.0703 280.242 60.0547 279.094 60.6719V64.4531H282.25ZM271.969 57.8281C271.961 59.3828 273.578 60.4219 275.859 60.4219C278.117 60.4219 279.75 59.3828 279.75 57.8281C279.75 56.2734 278.117 55.25 275.859 55.2656C273.578 55.25 271.961 56.2734 271.969 57.8281ZM273.891 64.4531H277.859V61.1484C277.258 61.3047 276.586 61.3906 275.859 61.3906C275.148 61.3906 274.484 61.3125 273.891 61.1562V64.4531ZM284.78 66.0938C284.233 66.0859 283.764 65.6328 283.78 65.0781C283.764 64.5312 284.233 64.0781 284.78 64.0781C285.335 64.0781 285.788 64.5312 285.78 65.0781C285.788 65.6328 285.335 66.0859 284.78 66.0938Z" fill="#27272A"/>
</svg>
