<svg width="343" height="154" viewBox="0 0 343 154" fill="none" xmlns="http://www.w3.org/2000/svg">
<mask id="path-1-inside-1_225_1909" fill="white">
<path d="M0 0H343V154H0V0Z"/>
</mask>
<path d="M0 1H343V-1H0V1Z" fill="#E4E4E7" mask="url(#path-1-inside-1_225_1909)"/>
<mask id="mask0_225_1909" style="mask-type:alpha" maskUnits="userSpaceOnUse" x="27" y="20" width="65" height="64">
<rect x="27.5" y="20" width="64" height="64" rx="32" fill="#F5F5F5"/>
</mask>
<g mask="url(#mask0_225_1909)">
<rect x="27.5" y="20" width="64" height="64" rx="32" fill="#F5F5F5"/>
<path d="M76.873 45.7532C76.8294 45.5264 76.7858 45.2953 76.7553 45.0599C76.6594 44.5849 76.5896 44.1013 76.5678 43.6134C76.5591 43.4037 76.5635 43.194 76.5765 42.9886C76.5635 42.6419 76.5765 42.2953 76.6245 41.9486C76.6943 41.4522 76.8164 40.9643 76.921 40.4722C76.9559 40.2411 76.9864 40.0057 77.0126 39.7703C77.0169 39.6847 77.0257 39.5948 77.0387 39.5092C77.0475 39.4108 77.0518 39.3167 77.0518 39.2182C77.0518 39.0738 77.0888 38.932 77.1682 38.8114C78.5649 36.691 78.9229 33.9469 78.1942 31.4978C77.7931 30.154 77.0475 28.8445 75.8527 28.0399C74.5533 27.1626 72.8092 27.0085 71.3615 27.6076C70.52 27.9586 69.77 28.5834 69.3339 29.3794C69.0886 29.8249 68.9621 30.293 68.9114 30.773C68.9087 30.7982 68.8714 30.805 68.8587 30.7831C68.6188 30.3552 68.2002 30.0855 67.7642 29.8673C66.9009 29.435 65.9764 29.328 65.0957 29.7688C64.3326 30.1497 63.7483 30.8259 63.4125 31.592C63.246 31.9733 62.4594 32.2269 62.1061 32.0069C61.4481 31.5972 60.6481 31.4097 59.8981 31.6048C58.7295 31.9087 57.9795 32.9871 57.5609 34.0313C57.3506 34.5504 56.0395 34.9053 55.5297 34.6736C55.4373 34.6316 55.3411 34.5929 55.2412 34.5577C53.6148 33.98 51.8881 35.1783 51.125 36.5392C51.0278 36.7125 50.9416 36.889 50.8658 37.0679C50.6469 37.5847 49.2194 38.012 48.6614 37.9515C46.8954 37.7632 45.4608 39.5306 44.9681 41.0028C44.4013 42.6933 44.6498 44.5378 44.9899 46.2496C45.2079 47.3538 45.4957 48.4451 45.6483 49.562C45.7399 50.2511 45.7879 50.9615 45.7138 51.6548C45.667 52.082 45.5668 52.5064 45.5209 52.935C45.5016 53.1157 45.4652 53.2939 45.4042 53.4651C44.8373 55.0999 44.7196 56.7903 44.7414 58.5064C44.7718 60.6957 45.0884 62.851 45.4448 65.0061C45.4467 65.0179 45.4535 65.0283 45.4559 65.04C45.4566 65.0434 45.4568 65.0474 45.4575 65.0508C45.732 66.5085 46.0717 67.9575 46.3722 69.4109C47.0698 72.7618 47.5582 76.1941 47.9855 79.6049C47.9899 79.6392 47.9942 79.6734 47.9986 79.7076C48.2471 81.7019 48.439 83.7091 48.5 85.7205C48.6003 89.0629 48.4782 92.4138 48.4608 95.7562C48.4477 98.2897 48.439 100.857 49.5029 103.194C49.3765 102.984 49.2631 102.775 49.1541 102.556C49.3111 102.92 49.4855 103.271 49.6817 103.618C50.048 104.268 50.4796 104.885 50.9637 105.458C51.2994 105.856 51.6613 106.233 52.0407 106.588C52.1061 106.635 52.1758 106.686 52.2412 106.733C52.3808 106.857 52.5247 106.977 52.6642 107.093C53.3226 107.632 54.077 108.094 54.8924 108.347C55.949 108.777 57.036 109.021 58.1226 109.089C58.7963 109.13 59.4814 109.181 60.151 109.096C61.01 108.984 61.8733 108.886 62.7236 108.706C64.2279 108.385 65.6712 107.803 66.8878 106.866C69.0069 105.231 70.1755 102.83 70.6595 100.267C70.8252 99.381 70.9255 98.4652 70.9298 97.5622C71.1261 95.2041 70.7641 92.799 70.3368 90.458C69.9749 88.4637 69.7264 86.478 69.6915 84.4494C69.6566 82.4808 69.8049 80.525 70.0142 78.5693C70.2322 76.5108 70.411 74.4309 70.9473 72.4237C71.4051 70.7119 72.0243 68.8931 72.94 67.3481C73.3717 66.7918 73.8251 66.2525 74.2176 65.6662C75.3077 64.0443 76.267 62.3281 76.8818 60.4793C78.0765 56.893 78.1594 52.9643 77.5576 49.2625C77.3701 48.0813 77.1085 46.9215 76.873 45.7532ZM51.9753 46.3695C51.9741 46.3867 51.9726 46.4038 51.9708 46.4207C51.9475 46.6329 51.786 46.7945 51.606 46.9091C51.4236 47.0252 51.1965 47.1085 51.0202 46.9834C50.7759 46.8101 50.6262 46.4662 50.5625 46.2068C50.3706 45.4536 50.3663 44.602 50.4884 43.8402C50.5799 43.271 50.7762 42.7275 50.859 42.1583C50.8682 42.0921 50.9636 42.0806 50.9857 42.1437C51.3318 43.1313 51.6845 44.0876 51.8401 45.1369C51.8968 45.5392 52.0058 45.9543 51.9753 46.3695ZM57.9291 43.9419C57.9148 43.9811 57.8829 44.0121 57.8531 44.0414C57.8445 44.0512 57.8358 44.0601 57.8272 44.0683C57.7978 44.0962 57.7798 44.1513 57.7397 44.1569C57.6176 44.174 57.4955 44.1655 57.3909 44.1055C57.2949 44.0456 57.2252 43.9515 57.1772 43.853C57.0638 43.6091 57.0507 43.3267 57.0507 43.0613C57.0507 43.0176 57.0525 42.9756 57.0538 42.9331C57.0553 42.8846 57.0507 42.836 57.0507 42.7874C57.0352 42.4186 57.0715 42.0485 57.131 41.6783C57.1956 41.2768 57.7586 41.2711 57.8356 41.6704C57.9585 42.3398 58.1842 43.2434 57.9291 43.9419ZM64.1625 42.0342C64.1102 42.2568 64.0579 42.5306 63.9314 42.7275C63.831 42.8802 63.6555 42.757 63.5758 42.5925C63.2943 42.0113 63.2065 41.374 63.2182 40.7208C63.2307 40.0269 64.2689 39.9426 64.3195 40.6348C64.3587 41.0884 64.2628 41.5934 64.1625 42.0342ZM69.5825 40.9258C69.6233 41.4867 69.1091 41.6423 68.9332 41.1081C68.7348 40.5058 68.8138 39.7506 68.8717 39.1369C68.8855 38.9939 69.1153 38.9879 69.1494 39.1276C69.1714 39.2175 69.1951 39.3077 69.2206 39.398C69.3601 39.8987 69.5214 40.408 69.5825 40.9258Z" fill="#D79874"/>
<path d="M63.5092 33.5269C63.5179 32.9577 63.5877 32.3842 63.7883 31.8493C63.9932 31.31 64.3333 30.8179 64.7868 30.4498C65.2272 30.0903 65.7897 29.8336 66.3696 29.8464C66.9583 29.8592 67.4685 30.1845 67.8827 30.5739C69.1727 31.8066 68.9942 33.8753 68.7848 35.6472C68.7791 35.6956 68.7735 35.7435 68.7679 35.7908C68.5934 37.2202 68.3318 38.6325 68.3493 40.0747C68.3599 40.873 67.655 42.1112 66.8708 42.2614C66.737 42.287 66.6047 42.313 66.4743 42.3386C66.2815 42.3775 66.0887 42.4188 65.8961 42.4625C65.3629 42.5833 64.6565 41.8276 64.7301 41.2858C64.7882 40.83 64.6983 40.3717 64.5582 39.934C64.256 38.9895 63.874 38.0652 63.736 37.079C63.6924 36.7794 63.688 36.4798 63.6706 36.176C63.6531 35.8849 63.627 35.5939 63.6008 35.3029C63.5572 34.7123 63.5005 34.1217 63.5092 33.5269Z" fill="#F2D2C2"/>
<path d="M76.7124 59.6745C76.1848 61.5489 75.3127 63.2437 74.2706 64.8913C73.6732 65.8371 72.9494 66.6716 72.2866 67.5704C72.1647 67.7354 72.0468 67.9005 71.9291 68.0694C71.9204 68.0819 71.9128 68.0951 71.9064 68.109C71.6769 68.6085 71.4529 69.1108 71.2253 69.6113C71.2027 69.661 71.2678 69.6999 71.3013 69.6567C71.3362 69.6116 71.4256 69.6649 71.4031 69.7173C71.1898 70.2158 70.9987 70.7247 70.8172 71.2337C70.2416 72.8557 69.9277 74.5504 69.7184 76.2537C69.2649 79.8999 68.9204 83.5718 69.2823 87.2437C69.5091 89.5162 70.0497 91.763 70.3114 94.0226C70.3942 94.656 70.464 95.2937 70.5076 95.9271C70.5643 96.7616 70.5774 97.6004 70.5163 98.4349C70.4553 99.2609 70.3245 100.083 70.1064 100.887C69.9931 101.302 69.8535 101.709 69.6966 102.103C69.5527 102.458 69.3913 102.804 69.2256 103.151C69.0687 103.485 68.8942 103.827 68.6719 104.127C67.5382 105.976 65.794 107.315 63.6356 107.996C63.4743 108.047 63.313 108.094 63.1473 108.137C62.8464 108.222 62.5412 108.295 62.2359 108.368C61.7999 108.471 61.3595 108.569 60.9147 108.633C60.5485 108.685 60.1778 108.71 59.8116 108.723C59.5848 108.727 59.3537 108.727 59.1226 108.719C58.8087 108.719 58.4947 108.702 58.1808 108.667C57.3392 108.573 56.5108 108.385 55.7084 108.128C54.9585 107.889 54.2259 107.58 53.5413 107.191C52.8698 106.806 52.2463 106.339 51.7231 105.774C51.4222 105.453 51.1606 105.098 50.9382 104.722C50.7158 104.418 50.5109 104.105 50.3277 103.789C48.8801 101.272 48.867 98.4734 48.8801 95.666C48.8932 92.4178 49.0065 89.161 48.9193 85.9128C48.8365 82.7844 48.4571 79.6688 47.9775 76.5746C47.7071 74.8243 47.4368 73.0782 47.1185 71.3364C46.5298 68.0839 45.7319 64.8614 45.3787 61.5703C45.0255 58.2579 45.0212 54.7829 46.4862 51.7144C46.6694 51.3335 46.8743 50.9655 47.0793 50.5974C47.2493 50.2936 47.3801 49.8656 47.5807 49.596C47.2864 49.9894 47.002 50.3906 46.7353 50.802C46.5953 51.018 46.0936 50.8548 46.0894 50.5974C46.072 49.6345 45.8932 48.6801 45.6927 47.7386C45.3395 46.0653 44.9209 44.362 45.0255 42.6416C45.0778 41.7729 45.2784 40.9041 45.7145 40.1423C46.1985 39.295 47.0531 38.4262 48.0865 38.3235C49.1548 38.2208 49.7609 39.158 50.0966 40.0182C50.4585 40.9426 50.5458 42.0296 50.3452 43.0011C50.1577 43.9169 50.0138 44.7857 50.1228 45.7229C50.1947 46.3358 50.306 46.8714 50.7761 47.1784C50.8755 47.2433 50.8953 47.3938 50.8029 47.4683C50.5951 47.6359 50.3984 47.8128 50.2159 48C50.1629 48.0544 50.2272 48.1214 50.2885 48.0767C51.0428 47.5204 51.867 47.0453 52.6867 46.5874C52.6964 46.582 52.7061 46.5766 52.7158 46.5711C52.9404 46.4452 52.8358 46.2331 52.6044 46.3462C52.4996 46.3975 52.3953 46.4504 52.2916 46.5049C52.2869 46.5074 52.2807 46.5039 52.2838 46.4996C52.2846 46.4984 52.2857 46.4968 52.286 46.4953C52.3638 46.0681 52.2942 45.6281 52.2289 45.2051C52.0588 44.101 51.7536 43.0953 51.3742 42.0382C50.9818 40.9554 50.694 39.877 50.803 38.7215C50.8989 37.7286 51.2347 36.7186 51.9018 35.9526C52.6387 35.0967 53.8553 34.489 54.9803 34.9512C57.6619 36.0467 57.1038 39.2008 56.7244 41.4305C56.5718 42.3292 56.4584 43.1894 56.8596 44.041C57.1605 44.6744 57.7099 44.7643 58.1415 44.1823C58.1888 44.1185 58.2026 44.0291 58.2395 43.9589C58.3283 43.7897 58.3826 43.6025 58.412 43.4071C58.4265 43.3111 58.4246 43.2135 58.4146 43.1169C58.3833 42.8154 58.3474 42.5167 58.2985 42.2179C58.1939 41.5589 58.0325 40.9212 57.8363 40.2835C57.6445 39.6758 57.4918 39.0596 57.4134 38.4262C57.3218 37.6858 57.3262 36.9283 57.4526 36.1922C57.5049 35.6444 57.6183 35.0967 57.784 34.5745C58.1067 33.5774 58.7346 32.332 59.8595 32.0325C61.1894 31.6772 62.5106 32.8113 62.9423 33.9626C63.4438 35.3021 63.2606 36.8171 63.0295 38.1951C62.7548 39.8085 62.3493 41.6188 63.4438 43.0396C63.4582 43.0574 63.4757 43.0692 63.4936 43.0752C63.5007 43.0775 63.5075 43.0816 63.5126 43.0871C63.531 43.1071 63.5268 43.1433 63.5012 43.1525C62.9435 43.3521 62.3941 43.5757 61.8609 43.8271C61.8076 43.8504 61.8563 43.9083 61.9119 43.8912C62.4812 43.7153 63.0541 43.5369 63.6269 43.3734C64.2766 43.1851 64.9307 43.0097 65.5891 42.8642C66.2519 42.7186 66.9146 42.6074 67.5861 42.5218C67.9262 42.479 68.2707 42.4405 68.6108 42.4148C68.9509 42.3891 69.291 42.3806 69.6311 42.3634C69.8695 42.3507 70.1036 42.3337 70.3419 42.3209C70.3448 42.3207 70.3479 42.3201 70.3506 42.3192C70.3778 42.3103 70.3797 42.2747 70.3538 42.2626C70.2125 42.1964 70.0652 42.143 69.9146 42.1024C69.8884 42.0981 69.871 42.0681 69.8797 42.0425C70.0497 41.5846 69.9843 41.0753 69.8797 40.6131C69.7881 40.198 69.653 39.7957 69.5527 39.3848C69.3868 38.7165 69.1836 38.0459 69.1576 37.3577C69.156 37.316 69.1554 37.2742 69.1559 37.2322C69.1559 37.0225 69.1864 36.8085 69.2038 36.5988C69.2082 36.5389 69.2169 36.4747 69.2213 36.4148C69.23 36.0981 69.2518 35.7814 69.291 35.4647C69.2957 35.3633 69.3042 35.262 69.3179 35.1613C69.3412 34.9888 69.3738 34.8169 69.3826 34.643C69.4088 34.2022 69.4219 33.7614 69.4001 33.3249C69.387 33.1066 69.3739 32.8841 69.3346 32.6701C69.2998 32.469 69.2562 32.2678 69.2256 32.0624C69.2013 31.8915 69.1883 31.717 69.1866 31.5456C69.1863 31.5194 69.1861 31.4923 69.1777 31.4675C69.0512 30.8984 69.1864 30.3078 69.448 29.7942C69.7184 29.2593 70.1195 28.7842 70.5904 28.4162C71.0701 28.0353 71.6413 27.7914 72.2474 27.6673C72.8796 27.5389 73.5424 27.5389 74.1703 27.6801C74.772 27.817 75.3302 28.1081 75.8185 28.4804C76.2807 28.8313 76.6819 29.2635 77.0002 29.7471C77.3229 30.2307 77.567 30.7614 77.7371 31.3135C77.9159 31.8955 78.0031 32.4947 78.038 33.0981C78.0598 33.4918 78.0641 33.8855 78.038 34.275C78.0336 34.5232 78.0162 34.7714 77.99 35.0196C77.9856 35.0539 77.9813 35.0881 77.9769 35.1181C77.9682 35.2079 77.9551 35.3021 77.9464 35.392C77.9464 35.3896 77.943 35.3894 77.9426 35.3917C77.846 36.0334 77.6773 36.6625 77.4406 37.2707C77.1362 38.0519 76.7363 38.7989 76.2626 39.495C76.2602 39.4986 76.2581 39.5024 76.2563 39.5063C76.2238 39.5796 76.3186 39.6521 76.3795 39.6001C76.4242 39.562 76.4696 39.5244 76.5162 39.4875C76.5467 39.4619 76.6034 39.4747 76.599 39.5218C76.5772 39.954 76.5118 40.382 76.4377 40.8057C76.3679 41.1951 76.2938 41.5803 76.2415 41.9697C76.2066 42.2393 76.1892 42.5132 76.1761 42.7871C76.1892 44.0025 76.3549 45.2179 76.5947 46.4205C77.4755 50.7172 77.929 55.3692 76.7124 59.6745Z" fill="#F2D2C2"/>
<path d="M68.762 68.2633C68.4873 68.3874 68.2126 68.5029 67.9379 68.6142C67.9204 68.6227 67.903 68.6313 67.8855 68.6399C67.6457 68.7597 67.4059 68.8752 67.1617 68.9822C66.9219 69.0892 66.6777 69.1834 66.4292 69.2647C65.9258 69.435 65.4139 69.58 64.8976 69.7037C64.8925 69.7049 64.8875 69.7056 64.8825 69.7072C64.8761 69.7093 64.8692 69.7108 64.8628 69.7128C64.2947 69.8914 63.7181 70.0529 63.1371 70.1934C62.7078 70.2951 62.2754 70.3813 61.8399 70.4496C61.8123 70.4539 61.8142 70.4972 61.8421 70.4972C62.3697 70.5186 62.8973 70.4673 63.4162 70.3817C64.515 70.2062 65.5789 69.8895 66.6123 69.4958C68.1472 68.9095 69.7474 68.122 71.0337 67.0479C70.3186 67.5186 69.5469 67.9123 68.762 68.2633Z" fill="#D79874"/>
<path opacity="0.58" d="M76.873 45.7532C76.8294 45.5264 76.7858 45.2953 76.7553 45.0599C76.6594 44.5849 76.5896 44.1013 76.5678 43.6134C76.5591 43.4037 76.5635 43.194 76.5765 42.9886C76.5635 42.6419 76.5765 42.2953 76.6245 41.9486C76.6943 41.4522 76.8164 40.9643 76.921 40.4722C76.9559 40.2411 76.9864 40.0057 77.0126 39.7703C77.0169 39.6847 77.0257 39.5948 77.0387 39.5092C77.0475 39.4108 77.0518 39.3167 77.0518 39.2182C77.0518 39.0738 77.0888 38.932 77.1682 38.8114C78.5649 36.691 78.9229 33.9469 78.1942 31.4978C77.7931 30.154 77.0475 28.8445 75.8527 28.0399C74.5533 27.1626 72.8092 27.0085 71.3615 27.6076C70.52 27.9586 69.77 28.5834 69.3339 29.3794C69.0886 29.8249 68.9621 30.293 68.9114 30.773C68.9087 30.7982 68.8714 30.805 68.8587 30.7831C68.6188 30.3552 68.2002 30.0855 67.7642 29.8673C66.9009 29.435 65.9764 29.328 65.0957 29.7688C64.3326 30.1497 63.7483 30.8259 63.4125 31.592C63.246 31.9733 62.4594 32.2269 62.1061 32.0069C61.4481 31.5972 60.6481 31.4097 59.8981 31.6048C58.7295 31.9087 57.9795 32.9871 57.5609 34.0313C57.3506 34.5504 56.0395 34.9053 55.5297 34.6736C55.4373 34.6316 55.3411 34.5929 55.2412 34.5577C53.6148 33.98 51.8881 35.1783 51.125 36.5392C51.0278 36.7125 50.9416 36.889 50.8658 37.0679C50.6469 37.5847 49.2194 38.012 48.6614 37.9515C46.8954 37.7632 45.4608 39.5306 44.9681 41.0028C44.4013 42.6933 44.6498 44.5378 44.9899 46.2496C45.2079 47.3538 45.4957 48.4451 45.6483 49.562C45.7399 50.2511 45.7879 50.9615 45.7138 51.6548C45.667 52.082 45.5668 52.5064 45.5209 52.935C45.5016 53.1157 45.4652 53.2939 45.4042 53.4651C44.8373 55.0999 44.7196 56.7903 44.7414 58.5064C44.7718 60.6957 45.0884 62.851 45.4448 65.0061C45.4467 65.0179 45.4535 65.0283 45.4559 65.04C45.4566 65.0434 45.4568 65.0474 45.4575 65.0508C45.732 66.5085 46.0717 67.9575 46.3722 69.4109C47.0698 72.7618 47.5582 76.1941 47.9855 79.6049C47.9899 79.6392 47.9942 79.6734 47.9986 79.7076C48.2471 81.7019 48.439 83.7091 48.5 85.7205C48.6003 89.0629 48.4782 92.4138 48.4608 95.7562C48.4477 98.2897 48.439 100.857 49.5029 103.194C49.3765 102.984 49.2631 102.775 49.1541 102.556C49.3111 102.92 49.4855 103.271 49.6817 103.618C50.048 104.268 50.4796 104.885 50.9637 105.458C51.2994 105.856 51.6613 106.233 52.0407 106.588C52.1061 106.635 52.1758 106.686 52.2412 106.733C52.3808 106.857 52.5247 106.977 52.6642 107.093C53.3226 107.632 54.077 108.094 54.8924 108.347C55.949 108.777 57.036 109.021 58.1226 109.089C58.7963 109.13 59.4814 109.181 60.151 109.096C61.01 108.984 61.8733 108.886 62.7236 108.706C64.2279 108.385 65.6712 107.803 66.8878 106.866C69.0069 105.231 70.1755 102.83 70.6595 100.267C70.8252 99.381 70.9255 98.4652 70.9298 97.5622C71.1261 95.2041 70.7641 92.799 70.3368 90.458C69.9749 88.4637 69.7264 86.478 69.6915 84.4494C69.6566 82.4808 69.8049 80.525 70.0142 78.5693C70.2322 76.5108 70.411 74.4309 70.9473 72.4237C71.4051 70.7119 72.0243 68.8931 72.94 67.3481C73.3717 66.7918 73.8251 66.2525 74.2176 65.6662C75.3077 64.0443 76.267 62.3281 76.8818 60.4793C78.0765 56.893 78.1594 52.9643 77.5576 49.2625C77.3701 48.0813 77.1085 46.9215 76.873 45.7532ZM68.8717 39.1369C68.8855 38.9939 69.1153 38.9879 69.1494 39.1276C69.1714 39.2175 69.1951 39.3077 69.2206 39.398C69.3601 39.8987 69.5214 40.408 69.5825 40.9258C69.6589 41.4884 69.1114 41.6484 68.9338 41.1091C68.735 40.5058 68.8139 39.7499 68.8717 39.1369ZM63.7614 32.8373C63.8835 32.2467 64.0797 31.6476 64.4198 31.1469C64.4545 31.0957 64.4921 31.0445 64.5302 30.9955C64.5482 30.9724 64.5515 30.9363 64.5724 30.9158C64.6945 30.7788 64.8297 30.6504 64.9779 30.5392C65.5055 30.1412 66.1988 29.97 66.8485 30.1583C67.5287 30.3552 68.0302 30.8901 68.3136 31.5149C68.597 32.1483 68.6581 32.863 68.5709 33.5435C68.4793 34.2539 68.2351 34.9515 67.834 35.5506C67.4328 36.1455 66.8485 36.6719 66.1334 36.8559C65.8151 36.9415 65.475 36.9415 65.1567 36.8473C64.8602 36.7532 64.5942 36.582 64.3805 36.3594C63.8922 35.8502 63.6872 35.1654 63.6349 34.4807C63.6 33.9329 63.6524 33.3723 63.7614 32.8373ZM63.2187 40.7202C63.2316 40.0233 64.273 39.9396 64.3239 40.6348C64.3587 41.0884 64.2628 41.5934 64.1625 42.0342C64.1102 42.2568 64.0579 42.5306 63.9314 42.7275C63.831 42.8802 63.6555 42.757 63.5758 42.5925C63.2942 42.0111 63.2065 41.3736 63.2187 40.7202ZM57.5827 36.2097C57.5958 35.8844 57.6394 35.5592 57.7048 35.2425C57.7702 34.9215 57.8661 34.6048 57.9839 34.2967C58.0972 34.0014 58.228 33.7146 58.3937 33.445C58.5376 33.2011 58.7077 32.97 58.9083 32.7689C59.0783 32.5977 59.2745 32.4479 59.4969 32.3537C59.51 32.3495 59.5231 32.3452 59.5405 32.3366C59.8239 32.1868 60.1335 32.0798 60.4606 32.0713C60.7571 32.0627 61.0536 32.144 61.3108 32.2938C61.5768 32.4479 61.7948 32.6704 61.9693 32.9186C62.1655 33.1968 62.3094 33.5092 62.414 33.8302C62.5274 34.1811 62.5884 34.5449 62.6059 34.9129C62.6277 35.2895 62.5972 35.6704 62.5187 36.0428C62.4402 36.4108 62.305 36.7703 62.1175 37.0955C61.9257 37.4251 61.6728 37.7204 61.3675 37.9557C61.0318 38.2125 60.6481 38.388 60.2469 38.5121C59.9112 38.6148 59.5536 38.6833 59.2004 38.6576C58.9301 38.6405 58.6597 38.5677 58.433 38.4179C58.2193 38.281 58.0493 38.0927 57.9228 37.8744C57.7877 37.6391 57.7048 37.378 57.6525 37.1127C57.5871 36.8131 57.574 36.5092 57.5827 36.2097ZM57.1287 41.6787C57.1918 41.2769 57.7542 41.2711 57.8313 41.6704C57.9626 42.3398 58.1844 43.2474 57.9332 43.946C57.919 43.9853 57.8872 44.0164 57.8574 44.0456C57.8488 44.0555 57.8402 44.0644 57.8316 44.0726C57.8022 44.1005 57.7842 44.1556 57.744 44.1612C57.622 44.1783 57.4999 44.1697 57.3952 44.1098C57.2993 44.0499 57.2295 43.9558 57.1816 43.8573C57.0682 43.6134 57.0551 43.3309 57.0551 43.0656C57.0551 43.0219 57.0569 42.9799 57.0582 42.9374C57.0596 42.8889 57.0551 42.8403 57.0551 42.7917C57.0361 42.421 57.0704 42.0497 57.1287 41.6787ZM50.907 38.1013C51.0814 37.4122 51.3692 36.7403 51.7747 36.154C52.1148 35.6576 52.5596 35.1868 53.1308 34.9557C53.1594 34.9445 53.1992 34.9578 53.2268 34.9442C53.7663 34.6786 54.4039 34.6276 54.9839 34.8188C55.6947 35.0584 56.2484 35.6148 56.4926 36.3081C56.7281 36.9757 56.6932 37.7161 56.5188 38.3965C56.3487 39.0428 56.0435 39.6676 55.5944 40.1726C55.1191 40.7033 54.513 41.1483 53.8633 41.4479C53.2529 41.7304 52.5029 41.9187 51.8575 41.6277C51.2602 41.358 50.9288 40.7375 50.8067 40.1341C50.6671 39.4622 50.7413 38.7603 50.907 38.1013ZM50.484 43.8359C50.5756 43.2667 50.7718 42.7232 50.8546 42.154C50.8638 42.0878 50.9592 42.0763 50.9814 42.1394C51.3274 43.1271 51.6801 44.0833 51.8357 45.1327C51.8968 45.5392 52.0014 45.9543 51.9709 46.3695C51.9698 46.3867 51.9683 46.4038 51.9664 46.4207C51.9431 46.6329 51.7816 46.7945 51.6016 46.9091C51.4193 47.0252 51.1922 47.1085 51.0158 46.9834C50.7716 46.8101 50.6218 46.4662 50.5581 46.2068C50.3663 45.4536 50.3663 44.5977 50.484 43.8359ZM46.2588 45.4237C46.0844 45.3595 45.923 45.2653 45.7966 45.1284C45.6745 44.9957 45.5873 44.8416 45.5175 44.679C45.378 44.3324 45.3388 43.9515 45.3257 43.5834C45.3039 42.9928 45.3344 42.4065 45.439 41.8245C45.5524 41.1826 45.7356 40.5364 46.0539 39.9629C46.1118 39.8584 46.1753 39.7555 46.2446 39.6565C46.6138 39.1294 47.1415 38.6615 47.7675 38.5121C48.0248 38.4479 48.3038 38.4565 48.5524 38.5463C48.8314 38.6448 49.0756 38.8288 49.2631 39.0556C49.7166 39.5991 49.8866 40.3181 49.9172 41.0071C49.9477 41.7475 49.8212 42.5007 49.5683 43.1983C49.3329 43.8445 48.9753 44.4864 48.4434 44.9401C48.1512 45.1883 47.798 45.368 47.423 45.4622C47.0437 45.5478 46.6294 45.5606 46.2588 45.4237ZM71.876 53.97C71.5534 56.2853 70.9734 58.5706 70.0578 60.7276C69.1813 62.7903 68.004 64.8103 66.4605 66.4622C65.257 67.7504 63.7745 68.7347 62.2963 69.6891C60.853 70.6177 59.3748 71.5507 58.2062 72.8089C57.622 73.438 57.1292 74.1484 56.7717 74.9273C56.3269 75.8945 56.1133 76.9302 55.9999 77.9829C55.8184 79.6964 55.9291 81.4231 56.2942 83.0966C56.8094 85.4578 58.0878 87.599 59.946 89.1442C61.1626 90.1542 62.4489 91.1171 63.4082 92.3838C64.3413 93.6164 64.93 95.0629 65.2047 96.5736C65.7323 99.4623 65.2003 103.027 62.7716 104.996C60.4911 106.845 57.1816 106.575 54.7703 105.124C53.4273 104.32 52.3677 103.139 51.6744 101.752C50.9549 100.314 50.6235 98.7219 50.4491 97.1385C50.2529 95.3282 50.2616 93.5051 50.2485 91.6863C50.2355 89.4994 50.2398 87.3082 50.1483 85.1213C50.0567 82.9516 49.83 80.7947 49.5989 78.6377C49.3678 76.4765 49.0887 74.3239 48.7137 72.1841C48.5262 71.1185 48.3169 70.0571 48.0814 69C47.8591 68.0157 47.58 67.0485 47.314 66.0771C46.9067 64.5703 46.517 63.0117 46.4987 61.4447C46.4946 61.0899 46.4814 60.7348 46.455 60.3809C46.3373 58.9858 46.3983 57.5692 46.66 56.1912C46.9041 54.9201 47.3271 53.7004 48.0248 52.6006C48.9317 51.1712 50.157 49.9515 51.5087 48.9244C52.9302 47.8416 54.4999 46.9515 56.1351 46.2154C56.9548 45.8473 57.792 45.5221 58.6423 45.2354C59.0565 45.0342 63.7134 43.3609 65.7279 43.2625C66.225 43.2368 66.7264 43.2411 67.2235 43.271C67.6029 43.2967 67.9866 43.3267 68.3572 43.4037C68.8107 43.5021 69.2511 43.6733 69.6392 43.9344C70.3979 44.4436 70.8862 45.2354 71.1784 46.0784C71.2045 46.1598 71.2307 46.2411 71.2569 46.3224C71.7016 47.3794 71.9153 48.5735 72.0025 49.6476C72.1159 51.0856 72.0766 52.5449 71.876 53.97ZM73.2103 36.475C72.3644 36.7403 71.3572 36.8088 70.6508 36.184C70.0447 35.6448 69.8223 34.7931 69.7177 34.0271C69.6566 33.5734 69.6348 33.1155 69.6348 32.6619C69.6348 32.1697 69.6784 31.6733 69.7787 31.1854C69.8872 30.6616 70.0647 30.1421 70.3285 29.6732C70.3311 29.6686 70.3325 29.6633 70.3325 29.658C70.3325 29.6549 70.3329 29.6518 70.3339 29.6488C70.4037 29.4279 70.5078 29.2155 70.6377 29.0242C71.1958 28.2111 72.1944 27.7189 73.1798 27.6333C73.6943 27.5905 74.2132 27.6676 74.6754 27.8944C75.1638 28.134 75.5649 28.5192 75.8702 28.9557C76.1841 29.4008 76.4239 29.9101 76.5809 30.4322C76.7335 30.9329 76.8076 31.4636 76.7902 31.9857C76.7597 32.9786 76.4021 33.9415 75.7829 34.7289C75.1376 35.5634 74.2219 36.1626 73.2103 36.475Z" fill="#FDD1AC"/>
<path opacity="0.45" d="M78.1901 31.5025C78.1361 31.3204 78.0754 31.1388 78.008 30.9589C77.9313 30.7542 77.6499 30.8672 77.6843 31.0831C77.7976 31.7807 77.8282 32.4911 77.7846 33.1973C77.741 33.882 77.632 34.5667 77.4401 35.2301C77.257 35.8763 76.991 36.4926 76.6378 37.0703C76.1581 37.8577 75.5651 38.5896 74.8413 39.1716C74.1175 39.7536 73.2585 40.173 72.3341 40.3228C71.5318 40.4512 70.6902 40.2501 70.0144 39.8135C69.7907 39.6689 69.5861 39.4978 69.4092 39.304C69.3411 39.2294 69.1929 39.2971 69.2208 39.3941C69.3603 39.8948 69.5216 40.4041 69.5827 40.922C69.6591 41.4843 69.1123 41.6432 68.9362 41.1037C68.7398 40.5021 68.8186 39.7494 68.8763 39.1374C68.8818 39.0781 68.888 39.0182 68.8947 38.9581C68.9131 38.7933 68.9105 38.6256 68.8676 38.4655C68.8632 38.4526 68.8676 38.4398 68.8719 38.4312C68.7499 38.6067 68.606 38.7736 68.4534 38.9234C68.0827 39.2829 67.6467 39.5739 67.1758 39.7879C66.7223 39.9933 66.2339 40.1302 65.7325 40.1431C65.2877 40.1559 64.8299 40.0575 64.4723 39.7964C64.4057 39.7474 64.1981 39.8638 64.2182 39.944C64.2767 40.1773 64.3191 40.4095 64.3372 40.6395C64.372 41.0931 64.2761 41.5981 64.1758 42.0389C64.1235 42.2615 64.0712 42.5354 63.9447 42.7322C63.9249 42.7624 63.9066 42.7866 63.8894 42.8055C63.8065 42.8962 63.6871 42.7882 63.6303 42.6793C63.2903 42.0278 63.204 41.3026 63.2351 40.5608C63.2473 40.2699 62.7316 40.0687 62.5407 40.2886C62.1352 40.755 61.686 41.1744 61.1759 41.5254C60.718 41.8378 60.1861 42.0946 59.6192 42.1202C59.1527 42.1416 58.7079 41.979 58.3503 41.6837C58.2892 41.6333 58.2313 41.5797 58.1765 41.5234C58.0795 41.4239 57.8124 41.5347 57.8402 41.6709C57.9715 42.3402 58.1933 43.2478 57.9421 43.9465C57.9279 43.9858 57.8962 44.0168 57.8663 44.0461C57.8577 44.0559 57.8491 44.0648 57.8405 44.073C57.8111 44.1009 57.7931 44.156 57.753 44.1616C57.6309 44.1787 57.5088 44.1702 57.4041 44.1103C57.3082 44.0503 57.2384 43.9562 57.1905 43.8578C57.0771 43.6138 57.064 43.3314 57.064 43.066C57.064 43.0223 57.0658 42.9803 57.0671 42.9378C57.0686 42.8893 57.064 42.8407 57.064 42.7921C57.0588 42.6555 57.0598 42.5188 57.0663 42.3822C57.073 42.239 56.8526 42.1538 56.7632 42.2657C56.3576 42.775 55.8736 43.2415 55.3417 43.6224C55.1019 43.7936 54.8402 43.9476 54.5699 44.0717C54.269 44.2087 53.9464 44.3114 53.615 44.3371C53.035 44.3884 52.4725 44.2001 52.0321 43.8278C51.7479 43.585 51.5261 43.284 51.351 42.9558C51.2877 42.8371 51.2212 42.7195 51.1601 42.5996C51.4522 43.4298 51.7226 44.2472 51.8534 45.1331C51.9144 45.5397 52.0191 45.9548 51.9885 46.3699C51.9874 46.3871 51.9859 46.4042 51.9841 46.4212C51.9608 46.6333 51.7993 46.7949 51.6193 46.9095C51.4369 47.0256 51.2098 47.1089 51.0335 46.9838C50.7892 46.8106 50.6395 46.4667 50.5758 46.2073C50.5737 46.1992 50.5717 46.191 50.5696 46.1829C50.4849 45.8418 49.7612 45.6669 49.5424 45.9419C48.9799 46.6481 48.2299 47.2429 47.3404 47.4826C46.9959 47.5767 46.634 47.6195 46.2852 47.5254C45.9974 47.4441 45.7445 47.2772 45.5439 47.0589C45.3256 46.8225 45.1625 46.5415 45.0351 46.246C45.0276 46.2288 45.0025 46.2362 45.0076 46.2543C45.2256 47.3585 45.5134 48.4498 45.666 49.5668C45.7576 50.2558 45.8055 50.9662 45.7314 51.6595C45.6702 52.0832 45.5675 52.5069 45.5212 52.9354C45.5017 53.1161 45.4654 53.2943 45.4044 53.4655C45.3157 53.7203 45.2386 53.975 45.1713 54.2298C45.1553 54.2903 45.2235 54.3192 45.2561 54.2658C45.6878 53.5168 45.993 52.6994 46.5119 52.0019C47.1136 51.1845 47.8157 50.4441 48.5744 49.7679C50.0874 48.4198 51.801 47.29 53.6324 46.4041C55.503 45.5011 57.5001 44.8292 59.5058 44.2729C61.5378 43.7123 63.6046 43.2886 65.6845 42.9548C67.7819 42.621 69.9315 42.3856 72.0419 42.7237C72.0943 42.7279 72.151 42.7322 72.2033 42.7408C72.7788 42.8093 73.3501 42.9034 73.9038 43.0789C74.3442 43.2201 74.7672 43.4084 75.1596 43.6481C75.7611 44.0234 76.268 44.5202 76.6736 45.0927C76.7015 45.1321 76.7616 45.1082 76.7555 45.0603C76.6596 44.5853 76.5898 44.1017 76.568 43.6138C76.5593 43.4041 76.5637 43.1944 76.5767 42.989C76.5637 42.6424 76.5767 42.2957 76.6247 41.9491C76.6945 41.4526 76.8166 40.9647 76.9212 40.4726C76.9561 40.2415 76.9866 40.0061 77.0128 39.7707C77.0171 39.6851 77.0259 39.5953 77.0389 39.5097C77.0477 39.4112 77.052 39.3171 77.052 39.2187C77.052 39.0743 77.089 38.9324 77.1683 38.8118C78.5608 36.6953 78.9187 33.9515 78.1901 31.5025Z" fill="#FFBCA2"/>
<path opacity="0.45" d="M77.4801 56.0249C76.4642 59.4871 74.5369 62.7054 71.7506 65.0763C70.0955 66.4855 68.2391 67.5994 66.2901 68.5473C64.9171 69.215 65.1869 70.6653 66.662 70.2717C66.6969 70.2632 66.7362 70.2974 66.7231 70.3316C66.4789 70.9265 66.2609 71.5256 66.0603 72.1333C65.2318 74.6455 64.7522 77.2603 64.4513 79.8794C64.3074 81.1419 64.1679 82.4087 64.0676 83.6755C63.9673 84.9294 63.8714 86.3288 64.2289 87.5528C64.569 88.7168 65.3975 89.6712 66.0995 90.6427C66.6141 91.3616 67.0675 92.1234 67.4556 92.9109C68.1925 94.413 68.707 96.0264 68.912 97.6869C69.3044 100.832 68.4541 104.136 65.8597 106.19C64.2289 107.483 62.1534 108.138 60.1127 108.467C58.0852 108.797 56.0227 108.715 54.1041 108.022C54.3657 108.151 54.6317 108.262 54.9064 108.347C55.9631 108.778 57.0501 109.022 58.1367 109.089C58.8104 109.131 59.4955 109.182 60.1651 109.096C61.0241 108.985 61.8874 108.887 62.7377 108.707C64.242 108.386 65.6853 107.804 66.9018 106.867C69.021 105.232 70.1896 102.831 70.6736 100.268C70.8393 99.3816 70.9396 98.4658 70.9439 97.5628C71.1401 95.2047 70.7782 92.7996 70.3509 90.4586C69.989 88.4643 69.7405 86.4786 69.7056 84.4501C69.6707 82.4814 69.8189 80.5257 70.0282 78.5699C70.2463 76.5114 70.425 74.4315 70.9614 72.4244C71.4192 70.7125 72.0384 68.8937 72.9541 67.3487C73.3857 66.7924 73.8392 66.2532 74.2317 65.6669C75.3217 64.0449 76.281 62.3288 76.8958 60.48C77.3704 59.0553 77.6686 57.5751 77.8196 56.077C77.8413 55.862 77.5401 55.8173 77.4801 56.0249Z" fill="#FFBCA2"/>
<g opacity="0.81" filter="url(#filter0_f_225_1909)">
<path d="M50.2001 57.5712C50.2001 61.1153 48.6667 63.9884 46.7752 63.9884C44.8837 63.9884 43.3504 61.1153 43.3504 57.5712C43.3504 54.0271 44.8837 51.154 46.7752 51.154C48.6667 51.154 50.2001 54.0271 50.2001 57.5712Z" fill="#FF0000"/>
</g>
<g opacity="0.81" filter="url(#filter1_f_225_1909)">
<path d="M80.204 33.9907C80.204 37.5348 78.6707 40.4079 76.7792 40.4079C74.8877 40.4079 73.3543 37.5348 73.3543 33.9907C73.3543 30.4466 74.8877 27.5735 76.7792 27.5735C78.6707 27.5735 80.204 30.4466 80.204 33.9907Z" fill="#FF0000"/>
</g>
</g>
<path d="M52.6758 106.875V108.078H47.7812V109.008H51.2676V112.043H44.2402V112.945H51.6094V114.107H42.75V110.949H49.7773V110.156H42.7363V109.008H46.2637V108.078H41.4102V106.875H52.6758ZM42.832 106.096V102.24H51.2266V106.096H42.832ZM44.3223 104.906H49.709V103.43H44.3223V104.906ZM60.7549 102.596V103.812H58.1572C58.1777 105.262 59.2441 106.656 61.1924 107.203L60.4268 108.393C58.998 107.969 57.9658 107.073 57.4053 105.932C56.8447 107.162 55.792 108.133 54.3154 108.598L53.5498 107.408C55.5254 106.827 56.5918 105.351 56.626 103.812H53.96V102.596H60.7549ZM55.5869 114.066V109.104H57.0908V110.375H62.2451V109.104H63.7627V114.066H55.5869ZM57.0908 112.836H62.2451V111.551H57.0908V112.836ZM62.2314 108.557V101.857H63.7627V108.557H62.2314ZM72.4297 103.143V104.018C72.4297 105.118 72.4297 106.677 72.0879 108.803L70.584 108.68C70.8848 106.807 70.9189 105.419 70.9258 104.359H66.0723V103.143H72.4297ZM65.416 110.402C66.1474 110.396 66.9609 110.389 67.8086 110.368V106.67H69.3125V110.32C70.5703 110.266 71.8623 110.177 73.0449 110.033L73.1269 111.168C70.5771 111.585 67.7471 111.633 65.5664 111.619L65.416 110.402ZM73.6875 114.217V101.857H75.2187V106.889H77.0098V108.174H75.2187V114.217H73.6875ZM51.3223 119.418V120.375C51.3291 121.277 51.3291 122.33 51.0693 123.656H52.7031V124.887H47.7949V126.623H51.3496V127.84H44.2812V129.836H51.4727V131.066H42.75V126.623H46.2773V124.887H41.4102V123.656H49.5381C49.7773 122.419 49.8047 121.482 49.8047 120.635H42.8047V119.418H51.3223ZM64.7334 125.242V126.459H53.4678V125.242H64.7334ZM54.6299 121.756C54.6299 120.19 56.3867 119.247 59.0869 119.254C61.7803 119.247 63.5371 120.19 63.5439 121.756C63.5371 123.328 61.7803 124.285 59.0869 124.285C56.3867 124.285 54.6299 123.328 54.6299 121.756ZM54.8623 130.971V127.375H56.3799V129.74H63.4619V130.971H54.8623ZM56.2158 121.756C56.2021 122.597 57.2891 123.048 59.0869 123.041C60.8916 123.048 61.9717 122.597 61.9717 121.756C61.9717 120.942 60.8916 120.471 59.0869 120.471C57.2891 120.471 56.2021 120.942 56.2158 121.756ZM69.9277 120.143C69.9209 121.701 70.9258 123.116 72.8398 123.684L72.0605 124.859C70.6933 124.429 69.7295 123.561 69.1894 122.446C68.6426 123.718 67.6103 124.702 66.1406 125.188L65.3887 123.984C67.3779 123.355 68.4033 121.845 68.4101 120.143V119.295H69.9277V120.143ZM67.1933 126.924V125.748H75.2734V128.934H68.7109V129.904H75.6562V131.107H67.207V127.826H73.7558V126.924H67.1933ZM73.7558 125.242V118.857H75.2734V121.373H76.9961V122.617H75.2734V125.242H73.7558Z" fill="black"/>
<mask id="mask1_225_1909" style="mask-type:alpha" maskUnits="userSpaceOnUse" x="139" y="20" width="65" height="64">
<rect x="139.5" y="20" width="64" height="63.9999" rx="31.9999" fill="#F5F5F5"/>
</mask>
<g mask="url(#mask1_225_1909)">
<rect x="139.5" y="20" width="64" height="63.9999" rx="31.9999" fill="#F5F5F5"/>
<path d="M185.078 59.5393C185.093 59.5532 185.099 59.5731 185.096 59.5926C185.086 59.6502 185.076 59.7079 185.066 59.7655C185.06 59.805 185.045 59.8435 185.042 59.8835C185.041 59.8967 185.041 59.9112 185.041 59.9277C184.982 60.4112 184.952 60.9094 184.952 61.4368C184.952 65.0558 180.861 79.1066 179.07 88.4396C178.951 89.1136 178.816 89.7436 178.727 90.3589C178.428 92.1464 178.249 93.6848 178.249 94.8423C178.249 101.904 178.667 116.688 176.547 122.285C174.413 127.911 156.185 132.467 151.677 127.383C147.617 122.797 149.975 104.278 150.587 99.5601C150.632 99.2231 150.662 98.9594 150.677 98.7689C150.677 98.725 150.692 98.681 150.692 98.6371C150.826 97.084 149.647 93.8167 149.647 91.2087C149.647 88.6007 150.453 76.733 150.453 74.1104C150.453 71.4878 149.647 70.5794 149.647 67.3267C149.647 64.0741 149.378 60.2793 148.064 57.2611C147.497 56.0011 147.393 54.3162 147.617 52.7924C147.632 52.6312 147.661 52.4847 147.691 52.3529C147.721 52.1478 147.766 52.0012 147.796 51.8547C147.841 51.6935 147.885 51.5324 147.93 51.3712C147.96 51.2833 147.99 51.1954 148.02 51.1075C148.199 50.5947 148.423 50.1551 148.691 49.8035C148.736 49.7449 148.766 49.7009 148.811 49.6423C149.184 49.1735 149.647 48.9244 150.139 48.9244C150.504 48.9244 151.63 48.2366 151.619 47.8727C151.6 47.2325 151.604 46.4863 151.662 45.7157C151.677 45.4373 151.707 45.1297 151.737 44.8366C151.777 44.4024 151.841 43.98 151.951 43.58C151.976 43.49 151.985 43.4023 152.01 43.3123C152.023 43.2672 152.041 43.2167 152.052 43.1714C152.126 42.8886 152.223 42.6193 152.334 42.3752C152.423 42.1701 152.543 41.9796 152.662 41.7891C153.021 41.2617 153.528 40.8661 154.215 40.6609C154.832 40.4833 156.512 39.1256 156.485 38.4835C156.469 38.0804 156.474 37.6662 156.514 37.2618C156.514 37.1739 156.529 37.086 156.544 36.9981C156.559 36.8809 156.573 36.7636 156.588 36.6611C156.633 36.412 156.693 36.1776 156.797 35.9578C156.842 35.826 156.902 35.6941 156.977 35.5769C157.365 34.815 158.066 34.3022 159.186 34.3168C159.616 34.3234 159.976 34.428 160.243 34.541C160.46 34.633 160.759 34.4759 160.798 34.2436C160.962 33.1594 161.515 31.2107 163.739 30.8884C165.933 30.566 167.158 31.4891 168.307 37.7453C168.874 40.7635 168.964 41.6866 169.024 44.7487V45.0271C169.024 44.9392 169.038 44.8366 169.038 44.7487C169.068 44.1334 169.113 43.4155 169.143 42.6682C169.158 42.2433 169.158 41.8477 169.158 41.4668C169.158 41.3642 169.143 41.247 169.143 41.1298C169.128 40.4705 169.053 39.8551 168.904 39.3863C168.874 39.2984 168.859 39.1958 168.829 39.1372C168.815 39.1079 168.8 39.0639 168.785 39.02C168.441 38.053 167.65 34.3901 168.262 31.3279C168.277 31.2254 168.307 31.1082 168.337 31.0056C168.889 28.72 170.263 26.8885 173.278 26.8885C176.037 26.8885 178.661 25.9237 180.899 39.7352C180.904 39.7653 180.906 39.7974 180.914 39.8269C180.921 39.855 180.923 39.884 180.928 39.9126C181.419 42.8119 186.507 45.5051 187.086 50.3456C187.488 53.5887 185.62 55.987 185.061 59.4865C185.058 59.5058 185.065 59.5256 185.078 59.5393Z" fill="#F2D2C2"/>
<path d="M151.768 45.8093C151.87 45.8854 152.161 45.7146 152.15 45.5874C152.132 45.3829 152.114 45.1428 152.099 44.8754C152.085 44.6231 151.791 44.5942 151.757 44.8446C151.756 44.8571 151.754 44.8695 151.752 44.882C151.725 45.1538 151.697 45.4129 151.681 45.6828C151.679 45.7222 151.736 45.7857 151.768 45.8093Z" fill="#FBC8AC"/>
<path d="M169.012 39.8512C169.172 40.7682 169.199 41.9785 169.13 42.9069C169.063 43.8176 169.582 44.3319 169.764 43.437C170.214 41.2304 170.135 37.0133 169.754 36.0612C169.447 35.2875 168.04 35.4311 168.155 36.2553C168.356 37.6981 168.692 38.8216 168.843 39.1966C168.908 39.3491 168.964 39.5791 169.012 39.8512Z" fill="#FBC8AC"/>
<path d="M157.395 37.9817C157.395 37.9812 157.395 37.9813 157.395 37.9809C157.393 37.9732 157.294 37.6229 157.188 37.083C157.105 36.6601 156.626 36.6053 156.566 37.032C156.561 37.0637 156.557 37.0955 156.553 37.1273C156.537 37.2523 156.607 37.3705 156.716 37.4329C157.113 37.6586 157.341 37.9279 157.387 37.9848C157.39 37.9883 157.395 37.9862 157.395 37.9817Z" fill="#FBC8AC"/>
<path d="M151.139 95.0189C151.274 93.583 150.079 90.3157 150.079 87.7077C150.079 85.0998 151.617 73.5104 150.871 71.005C150.572 70.0087 150.363 69.6717 150.049 66.0967C149.751 62.7269 149.602 59.2691 148.273 56.2656C147.857 55.3317 147.469 55.2306 147.696 56.2277C147.783 56.6143 147.901 56.9822 148.049 57.3205C149.378 60.3241 149.646 64.1041 149.646 67.3714C149.646 70.6387 150.438 71.5471 150.438 74.1551C150.438 76.7631 149.646 88.6454 149.646 91.2534C149.646 93.8614 150.841 97.1287 150.706 98.5645C150.016 105.946 150.613 105.539 150.964 98.134C151.044 96.4439 151.113 95.3146 151.139 95.0335V95.0189Z" fill="#FBC8AC"/>
<path d="M185.057 59.8227C185.061 59.7958 185.101 59.7988 185.101 59.826C185.101 60.2216 185.041 60.7784 184.937 61.4377C184.516 67.1249 181.06 79.3784 179.055 88.4405C178.936 89.1144 178.801 89.7444 178.712 90.3598C179.144 83.7627 183.519 67.8192 185.034 59.9669C185.039 59.9407 185.04 59.9151 185.042 59.8884C185.043 59.866 185.046 59.8474 185.055 59.8291C185.056 59.827 185.056 59.8249 185.057 59.8227Z" fill="#FBC8AC"/>
<path d="M169.936 29.8552C169.936 29.8577 169.938 29.8592 169.94 29.8573C170.643 29.0253 175.611 28.5164 176.758 29.379C177.907 30.2435 177.594 34.4631 177.161 35.0785C176.728 35.6939 175.384 36.5144 174.28 36.6462C173.175 36.7781 171.533 36.4704 170.951 36.0309C170.37 35.5924 169.358 30.5759 169.931 29.8532C169.933 29.8512 169.936 29.8527 169.936 29.8552Z" fill="#FFE9D8"/>
<path d="M161.717 32.6309C161.713 32.6309 161.711 32.6276 161.712 32.6243C161.968 32.0542 164.504 31.3727 165.307 31.8543C166.113 32.3378 166.024 33.5979 165.844 33.9055C165.665 34.2132 163.187 35.0777 162.515 34.77C161.846 34.4634 161.458 33.2983 161.721 32.6377C161.723 32.6344 161.72 32.6309 161.717 32.6309Z" fill="#FFE9D8"/>
<path d="M157.149 36.5445C157.146 36.5445 157.143 36.5416 157.145 36.5386C157.285 36.3106 159.535 35.5057 160.067 35.68C160.605 35.8558 160.739 37.3063 160.65 37.4822C160.56 37.658 158.649 38.5517 158.037 38.3905C157.415 38.245 157.027 36.8709 157.154 36.5509C157.155 36.5476 157.153 36.5445 157.149 36.5445Z" fill="#FFE9D8"/>
<path d="M152.47 42.0014C152.47 42.0039 152.472 42.0055 152.474 42.0036C152.715 41.7193 154.444 40.8244 155.037 41.203C155.634 41.5986 155.575 42.6389 155.395 42.9612C155.231 43.2835 152.902 43.7377 152.604 43.7084C152.307 43.6793 152.261 42.2629 152.465 41.9995C152.467 41.9976 152.47 41.9989 152.47 42.0014Z" fill="#FFE9D8"/>
<path d="M148.826 49.686C149.319 49.2025 149.827 49.3783 149.827 49.4662C149.827 49.5541 149.767 50.7702 149.528 51.0339C148.779 51.861 148.051 50.8431 148.657 49.906C148.717 49.8135 148.774 49.7372 148.826 49.686Z" fill="#FFE9D8"/>
<path d="M160.829 34.2434C160.829 34.8588 161.426 37.9795 161.993 39.5179C162.561 41.0564 162.322 41.5399 162.695 42.6534C162.81 43.0114 163.072 43.7662 163.353 44.6636C163.907 46.4335 163.478 46.4419 162.829 44.7046C162.501 43.8255 162.262 41.9648 161.934 40.9245C161.605 39.8842 160.829 35.3569 160.799 35.0346C160.773 34.7209 160.817 34.349 160.827 34.2723C160.828 34.2626 160.829 34.2532 160.829 34.2434Z" fill="#FBC8AC"/>
<path d="M156.953 41.5103C156.958 41.5103 156.963 41.5134 156.964 41.5183C157.143 42.1532 157.335 43.6655 157.335 44.0157C157.335 44.3673 157.828 46.8874 158.171 47.5467C158.395 47.9569 160.007 52.0887 159.768 53.0264C159.649 53.4659 158.918 52.7626 158.365 51.781C157.813 50.7993 157.828 49.4953 157.649 48.8214C157.47 48.1474 157.066 47.0632 156.932 46.0815C156.783 45.1016 156.337 42.4576 156.944 41.5154C156.946 41.5121 156.949 41.5103 156.953 41.5103Z" fill="#FBC8AC"/>
<path d="M151.795 49.8619C151.796 49.8633 151.797 49.8648 151.798 49.8667C151.963 50.7058 152.708 53.8209 153.275 54.7576C153.842 55.71 154.678 57.893 154.574 58.4059C154.469 58.9333 154.32 59.871 153.932 58.7575C153.544 57.644 153.439 56.5451 152.902 55.036C152.364 53.5415 151.872 52.4866 151.767 51.8713C151.616 50.9111 151.757 50.0009 151.779 49.8664C151.78 49.8589 151.789 49.8566 151.795 49.8619Z" fill="#FBC8AC"/>
<path d="M173.83 62.7414C173.918 61.1212 173.113 61.0549 172.956 62.6697C172.481 67.5361 172.188 72.524 172.905 70.1843C173.592 67.9427 173.741 64.3677 173.83 62.7414Z" fill="#FBC8AC"/>
<path d="M155.953 68.4108C155.949 68.4108 155.946 68.4136 155.947 68.4172C156.08 69.7846 155.901 73.3933 155.633 73.9784C155.364 74.5645 155.453 71.6049 155.453 70.799C155.453 70.0246 155.922 68.533 155.959 68.4179C155.96 68.414 155.957 68.4108 155.953 68.4108Z" fill="#FBC8AC"/>
<path d="M159.857 65.5542C159.716 64.5025 160.778 64.4676 160.886 65.5232C161.158 68.1826 161.287 70.9245 161.066 71.6346C160.693 72.8214 160.081 67.1073 159.857 65.5542Z" fill="#FBC8AC"/>
<g opacity="0.81" filter="url(#filter2_f_225_1909)">
<path d="M190.081 51.0647C190.081 55.8447 187.276 59.7196 183.816 59.7196C180.356 59.7196 177.551 55.8447 177.551 51.0647C177.551 46.2848 180.356 42.4099 183.816 42.4099C187.276 42.4099 190.081 46.2848 190.081 51.0647Z" fill="#FF0000" fill-opacity="0.7"/>
</g>
</g>
<path d="M152.689 108.857V110.088H147.768V114.203H146.264V110.088H141.396V108.857H152.689ZM142.777 107.408V102.486H151.309V107.408H142.777ZM144.268 106.219H149.791V103.703H144.268V106.219ZM158.13 105.371C158.13 107.395 159.319 109.527 161.315 110.361L160.481 111.564C159.019 110.929 157.952 109.637 157.385 108.064C156.817 109.76 155.73 111.182 154.288 111.865L153.413 110.676C155.361 109.773 156.578 107.47 156.585 105.371V104.332H153.864V103.074H160.837V104.332H158.13V105.371ZM162.218 114.217V101.857H163.749V114.217H162.218ZM169.531 102.623C171.493 102.623 172.922 103.847 172.936 105.604C172.922 107.121 171.855 108.242 170.297 108.516V110.32C171.397 110.266 172.512 110.17 173.564 110.02L173.687 111.113C170.919 111.64 167.952 111.66 165.771 111.66L165.58 110.416C166.523 110.416 167.624 110.416 168.779 110.382V108.522C167.228 108.249 166.134 107.128 166.141 105.604C166.134 103.847 167.59 102.623 169.531 102.623ZM167.645 105.604C167.638 106.622 168.451 107.285 169.531 107.285C170.632 107.285 171.438 106.622 171.445 105.604C171.438 104.564 170.625 103.929 169.531 103.936C168.451 103.929 167.638 104.564 167.645 105.604ZM174.303 114.23V101.857H175.82V114.23H174.303ZM187.331 101.871V105.439H189.054V106.697H187.331V110.963H185.813V101.871H187.331ZM178.007 108.953V102.746H179.511V104.633H182.395V102.746H183.899V108.953H178.007ZM179.415 113.971V110.047H180.933V112.74H187.823V113.971H179.415ZM179.511 107.75H182.395V105.809H179.511V107.75ZM200.906 107.613V108.844H189.641V107.613H200.906ZM190.187 105.863C192.478 105.638 193.968 104.722 194.2 103.689H190.666V102.445H199.895V103.689H196.326C196.552 104.708 198.028 105.638 200.373 105.863L199.84 107.066C197.591 106.834 195.93 105.938 195.26 104.688C194.59 105.938 192.949 106.834 190.707 107.066L190.187 105.863ZM190.953 111.934C190.953 110.498 192.573 109.664 195.26 109.664C197.926 109.664 199.532 110.498 199.539 111.934C199.532 113.39 197.926 114.203 195.26 114.203C192.573 114.203 190.953 113.39 190.953 111.934ZM192.498 111.934C192.491 112.651 193.462 113.007 195.26 113.014C197.03 113.007 198.008 112.651 198.021 111.934C198.008 111.216 197.03 110.854 195.26 110.854C193.462 110.854 192.491 111.216 192.498 111.934Z" fill="black"/>
<mask id="mask2_225_1909" style="mask-type:alpha" maskUnits="userSpaceOnUse" x="251" y="20" width="65" height="64">
<rect x="251.5" y="20" width="64" height="63.9999" rx="31.9999" fill="#F5F5F5"/>
</mask>
<g mask="url(#mask2_225_1909)">
<rect x="251.5" y="20" width="64" height="63.9999" rx="31.9999" fill="#F5F5F5"/>
<path d="M292.494 31C296.386 31 300.292 36.6885 300.292 41.6109C300.292 47.8644 298.168 47.3873 298.168 51.7698C298.168 56.1523 298.497 56.8178 297.785 61.0872C297.046 65.5074 283.905 81.4552 283.905 92.2293C283.905 104.121 284.789 105.301 284.789 112.371C284.789 116.49 280.238 121.802 276.042 122.178C271.701 122.568 261.859 121.751 261.859 108.617C261.859 93.912 260.5 90.9987 260.5 85.4986C260.5 79.9985 261.793 73.858 261.793 70.9321C261.793 68.0063 261.621 66.4115 261.621 64.5028C261.621 62.5941 263.376 59.6432 263.376 57.9228C263.376 56.2025 262.044 47.4501 265.5 47.4501C266.497 47.4501 267.579 46.657 267.871 45.7039C268.28 44.3696 269.22 42.8792 271.385 42.8792C271.99 42.8792 272.677 42.2525 272.786 41.6573C273.003 40.4711 273.74 38.9236 276.108 38.9236C276.984 38.9236 277.979 37.8555 278.01 36.9797C278.061 35.4961 278.67 33.7877 281.201 33.7877C285.673 33.7877 285.211 37.6553 285.211 40.1291C285.211 42.6029 284.736 45.152 285.159 46.5208C285.568 47.8895 286.544 48.2286 287.494 48.2286C288.444 48.2286 288.708 45.6795 288.708 44.5493C288.708 43.4192 288.206 41.9123 288.206 40.2296C288.206 38.5469 285.911 31 292.521 31H292.494Z" fill="#F2D2C2"/>
<path d="M298.167 51.7727C298.167 47.3902 300.291 47.8674 300.291 41.6139C300.291 41.4327 300.032 41.4326 300.002 41.6112C299.456 44.8333 298.101 45.2455 298.101 48.7464C298.101 50.3789 298.14 51.4965 298.167 52.4759C298.167 52.2499 298.167 52.0239 298.167 51.7727Z" fill="#F5BA9A"/>
<path d="M284.988 40.1256C284.952 40.678 285.198 40.6726 285.198 40.119C285.198 39.2525 285.251 38.2103 285.132 37.2183C285.126 38.2066 285.05 39.2018 284.988 40.1256Z" fill="#EEB390"/>
<path d="M288.177 40.2316C288.177 40.681 288.213 41.1181 288.266 41.5387C288.3 41.8085 288.626 41.797 288.626 41.525C288.626 40.4074 288.125 38.888 288.125 37.2053C288.125 36.8883 287.816 36.9026 287.84 37.2188C287.939 38.5335 288.177 39.6861 288.177 40.2316Z" fill="#F5BA9A"/>
<path d="M261.727 67.9448C261.727 66.4128 261.688 65.2701 261.635 64.2529C261.635 64.3283 261.608 64.4162 261.608 64.5041C261.608 65.6468 261.674 66.6765 261.727 67.9448Z" fill="#F5BA9A"/>
<path d="M297.73 58.0505C296.992 62.4707 283.851 78.4184 283.851 89.1926C283.851 91.3399 283.877 93.123 283.93 94.6676C283.93 93.9016 283.917 93.0979 283.917 92.2189C283.917 81.4447 297.071 65.497 297.796 61.0768C298.416 57.3097 298.245 56.3427 298.192 53.1406C298.192 54.4968 298.113 55.7525 297.73 58.0505Z" fill="#F8D1B5"/>
<path d="M263.224 55.6401C263.221 55.6401 263.218 55.6368 263.219 55.6333C263.271 55.3721 263.31 55.1233 263.31 54.8993C263.31 54.4221 263.204 53.4049 263.138 52.1743C263.099 53.3649 263.151 54.5931 263.23 55.634C263.23 55.6373 263.228 55.6401 263.224 55.6401Z" fill="#F5BA9A"/>
<path d="M279.393 46.1932C279.144 46.904 278.519 46.5296 278.824 45.841C279.186 45.0252 279.67 43.9828 279.67 42.9534C279.67 41.1953 278.628 39.1987 278.232 39.1108C278.878 39.1987 279.525 40.4168 279.67 40.8438C279.802 41.2707 280.264 43.7445 279.393 46.1932Z" fill="#EEB28E"/>
<path d="M273.679 50.6642C273.679 50.6632 273.679 50.6623 273.679 50.6613C273.561 50.2221 273.679 49.708 273.811 49.3568C273.943 49.0052 274.576 47.762 274.431 46.1045C274.345 45.1041 274.072 44.3922 273.671 43.8607C273.524 43.6665 273.683 43.3911 273.851 43.5679C274.273 44.02 275.025 45.4264 274.866 46.77C274.774 47.5084 274.8 50.6539 273.69 50.6752C273.684 50.6753 273.679 50.6704 273.679 50.6642Z" fill="#EDB793"/>
<path d="M268.913 55.2839C268.908 55.2839 268.903 55.2802 268.904 55.2749C268.916 54.833 269.827 53.0983 269.814 51.1902C269.808 50.3608 269.448 49.6274 269.014 49.0536C268.891 48.8909 269.131 48.458 269.286 48.5909C269.787 49.0178 270.381 50.0349 270.342 51.7051C270.315 52.8227 270.236 53.8524 270.091 54.1286C269.963 54.3971 268.975 55.235 268.919 55.2818C268.917 55.2833 268.915 55.2839 268.913 55.2839Z" fill="#EEB28E"/>
<path d="M288.547 43.305C288.548 43.3053 288.548 43.3057 288.548 43.3061C289.063 44.2614 290.949 48.3661 288.997 48.4163C288.623 48.4273 288.312 48.4048 288.071 48.3698C287.854 48.3382 287.827 48.0454 287.981 47.8889C288.571 47.2901 288.796 44.1254 288.54 43.3086C288.539 43.3043 288.544 43.3019 288.547 43.305Z" fill="#F5BA9A"/>
<path d="M279.636 70.7817C279.638 70.7817 279.639 70.7842 279.638 70.7854C276.942 72.7202 269.973 76.368 271.344 93.4476C271.78 98.8347 271.753 94.1508 272.954 88.2866C275.709 74.8345 282.496 68.7183 279.636 70.7774C279.634 70.7786 279.634 70.7817 279.636 70.7817Z" fill="#FBC8AC"/>
<path d="M286.721 63.1969C286.718 63.1969 286.717 63.1998 286.718 63.2019C287.712 64.483 290.705 66.4703 295.198 63.3602C296.939 62.1547 297.019 65.52 291.952 65.52C287.269 65.52 286.206 62.5366 286.723 63.191C286.725 63.1931 286.724 63.1969 286.721 63.1969Z" fill="#FBC8AC"/>
<path d="M268.865 59.4422C270.421 56.0518 277.744 51.1544 281.346 50.4387C284.459 49.8234 282.823 49.6225 282.309 49.6476C280.053 49.7983 276.543 50.4763 274.445 51.8576C271.279 53.9547 269.828 55.7881 268.996 57.5838C268.126 59.4925 268.469 60.2961 268.865 59.4422Z" fill="#FBC7AC"/>
<path d="M290.791 54.4825C291.794 56.3912 291.464 58.4883 290.039 59.1664C288.628 59.8445 286.662 58.8273 285.659 56.9186C284.656 55.0099 284.986 52.9129 286.411 52.2348C287.823 51.5567 289.789 52.5738 290.791 54.4825Z" fill="#FFB5B5"/>
<path d="M290.04 58.2244C288.628 58.9025 286.663 57.8853 285.66 55.9766C285.538 55.7403 285.217 55.7913 285.295 56.0451C285.386 56.3373 285.507 56.6303 285.66 56.9184C286.663 58.8271 288.628 59.8443 290.04 59.1662C290.329 59.0287 290.572 58.8307 290.767 58.5865C290.981 58.3185 290.35 58.0769 290.04 58.2244Z" fill="#FF9393" fill-opacity="0.4"/>
<g opacity="0.81" filter="url(#filter3_f_225_1909)">
<path d="M291.439 55.7743C291.439 57.7636 290.017 59.3762 288.263 59.3762C286.51 59.3762 285.088 57.7636 285.088 55.7743C285.088 53.785 286.51 52.1724 288.263 52.1724C290.017 52.1724 291.439 53.785 291.439 55.7743Z" fill="#FF0000"/>
</g>
</g>
<path d="M278.314 102.924V104.168H273.625V106.369H277.822V107.572H273.625V110.115C275.648 110.108 277.193 110.033 278.971 109.746L279.121 110.977C277.173 111.284 275.437 111.346 273.16 111.346H272.121V102.924H278.314ZM280.201 114.217V101.857H281.732V114.217H280.201ZM293.476 105.344V106.547H284.944V102.24H286.476V105.344H293.476ZM283.468 108.98V107.777H294.747V108.98H289.976V111.291H288.472V108.98H283.468ZM284.835 113.971V110.293H286.339V112.74H293.571V113.971H284.835Z" fill="black"/>
<defs>
<filter id="filter0_f_225_1909" x="35.3504" y="43.154" width="22.8497" height="28.8344" filterUnits="userSpaceOnUse" color-interpolation-filters="sRGB">
<feFlood flood-opacity="0" result="BackgroundImageFix"/>
<feBlend mode="normal" in="SourceGraphic" in2="BackgroundImageFix" result="shape"/>
<feGaussianBlur stdDeviation="4" result="effect1_foregroundBlur_225_1909"/>
</filter>
<filter id="filter1_f_225_1909" x="65.3543" y="19.5735" width="22.8497" height="28.8344" filterUnits="userSpaceOnUse" color-interpolation-filters="sRGB">
<feFlood flood-opacity="0" result="BackgroundImageFix"/>
<feBlend mode="normal" in="SourceGraphic" in2="BackgroundImageFix" result="shape"/>
<feGaussianBlur stdDeviation="4" result="effect1_foregroundBlur_225_1909"/>
</filter>
<filter id="filter2_f_225_1909" x="169.551" y="34.4099" width="28.5298" height="33.3097" filterUnits="userSpaceOnUse" color-interpolation-filters="sRGB">
<feFlood flood-opacity="0" result="BackgroundImageFix"/>
<feBlend mode="normal" in="SourceGraphic" in2="BackgroundImageFix" result="shape"/>
<feGaussianBlur stdDeviation="4" result="effect1_foregroundBlur_225_1909"/>
</filter>
<filter id="filter3_f_225_1909" x="277.088" y="44.1724" width="22.3513" height="23.2039" filterUnits="userSpaceOnUse" color-interpolation-filters="sRGB">
<feFlood flood-opacity="0" result="BackgroundImageFix"/>
<feBlend mode="normal" in="SourceGraphic" in2="BackgroundImageFix" result="shape"/>
<feGaussianBlur stdDeviation="4" result="effect1_foregroundBlur_225_1909"/>
</filter>
</defs>
</svg>
